<?xml version="1.0" standalone="no"?>
<!DOCTYPE svg PUBLIC "-//W3C//DTD SVG 1.1//EN" "http://www.w3.org/Graphics/SVG/1.1/DTD/svg11.dtd" >
<svg xmlns="http://www.w3.org/2000/svg">
<metadata></metadata>
<defs>
<font id="swanky_and_moo_mooregular" horiz-adv-x="1466" >
<font-face units-per-em="2048" ascent="1638" descent="-410" />
<missing-glyph horiz-adv-x="1024" />
<glyph horiz-adv-x="2048" />
<glyph horiz-adv-x="2048" />
<glyph unicode="&#xd;" horiz-adv-x="1024" />
<glyph unicode=" "  horiz-adv-x="1024" />
<glyph unicode="&#x09;" horiz-adv-x="1024" />
<glyph unicode="&#xa0;" horiz-adv-x="1024" />
<glyph unicode="!" horiz-adv-x="520" d="M86 2208v23.5t1 38t1 37.5v24q2 6 14.5 20t27.5 28.5t29.5 27t20.5 16.5q2 0 25.5 -12.5t36.5 -18.5q4 -4 15 -15.5t15 -15.5q4 -53 10.5 -126.5t12.5 -159.5t11 -176.5t11.5 -176.5t10.5 -159.5t8 -126.5q2 -10 2 -55.5t-1 -96.5t-1 -96v-58q2 -14 6 -48.5t8 -72.5 t9.5 -73t7.5 -49q-18 -45 -44 -55.5t-63 -10.5t-62.5 10.5t-43.5 55.5q10 150 9 264.5t-8.5 211.5t-18.5 184t-22.5 184.5t-19.5 211t-8 265.5zM119 184q0 41 17.5 71t47 49.5t66.5 28.5t74 9t67.5 -16.5t53 -44t35 -62.5t12.5 -69q0 -33 -20.5 -61t-51.5 -47t-66 -30.5 t-63 -11.5q-88 0 -130 53t-42 131z" />
<glyph unicode="&#x22;" horiz-adv-x="978" d="M98 1432v671q0 37 32.5 51.5t59.5 14.5q25 0 59 -14.5t34 -51.5v-641q0 -35 -30 -64.5t-63 -29.5q-14 0 -30.5 2t-29.5 9t-22.5 19.5t-9.5 33.5zM739 1645v458q0 39 31.5 52.5t60.5 13.5q43 0 69 -34t40 -87t17.5 -118.5t3.5 -129t-3.5 -118t-3.5 -83.5q0 -14 -6 -32.5 t-16 -36t-24.5 -29.5t-28.5 -12q-29 0 -54.5 14.5t-44 37t-30 50t-11.5 54.5z" />
<glyph unicode="#" horiz-adv-x="2322" d="M-2 1012q0 14 2 23t8 15.5t18.5 10.5t34.5 8l611 123q6 2 21.5 41t30.5 87t27.5 91t12.5 55q0 8 -11.5 19.5t-19.5 11.5q-53 -10 -93 -15l-76 -9.5t-71.5 -5.5t-80.5 -1h-76q-4 4 -9 17.5t-9.5 28t-8.5 27.5t-4 20q0 4 12.5 15t18.5 15q45 31 113.5 47.5t136 25.5t126 13 t83.5 6q51 25 76.5 87.5t39 141.5t21.5 163t25.5 154.5t49 115.5t93.5 45q25 0 38 -8t19 -23.5t7 -35t1 -42.5q0 -76 -18.5 -146.5t-40 -139t-39.5 -138t-18 -143.5h387l153 428q-10 29 -3 66t24.5 70.5t45 57t58.5 23.5q23 0 35 -11t18.5 -26.5t7.5 -35t1 -33.5 q0 -61 -13.5 -129t-33 -134.5t-41 -130t-37.5 -114.5l30 -31l521 -61q23 -2 35 -13.5t18 -27t8 -32.5t2 -32q0 -20 -2 -45.5t-31 -34.5q-84 18 -147.5 30.5t-119.5 20t-112.5 11.5t-126.5 4q-6 0 -20 -1t-31.5 -1t-33 -1t-21.5 -1q-37 -66 -65.5 -132.5t-28.5 -142.5 q0 -8 1 -30.5t1 -30.5q31 -6 96.5 -6t145 -2t163.5 -10.5t154 -30t114 -61.5t44 -103h-779q-45 0 -72.5 -72.5t-48 -181.5t-36 -237t-36 -236.5t-50 -181t-76.5 -72.5h-10q-4 0 -7 2q-4 2 -15 14.5t-15 16.5q0 8 -1 32.5t-2 51t-2 50t-1 34.5q0 104 18 205.5t42 201 t42 199.5t18 205h-327q-18 0 -49 -21.5t-43 -40.5q-12 -33 -35 -114.5t-47.5 -175t-45 -176.5t-26.5 -115q-6 -29 0 -85.5t3 -113.5t-25.5 -99t-83.5 -42q-51 0 -79 35.5t-28 87.5q0 82 22.5 195.5t53.5 225t61.5 205.5t46.5 142v51q-70 0 -137 -8.5t-134 -19.5 t-134.5 -19.5t-136.5 -8.5q-43 0 -57.5 29t-14.5 70zM883 1253q0 -14 4 -37.5t31 -23.5h366q10 0 19.5 14.5t19.5 30.5q10 20 23 47q8 23 18 58.5t20.5 69.5t16.5 60l6 25l-31 31h-338l-59 -31q-2 0 -14.5 -25.5t-26.5 -59.5t-28.5 -69.5t-22.5 -58.5q0 -4 -2 -15.5 t-2 -15.5z" />
<glyph unicode="$" horiz-adv-x="1681" d="M29 868q0 27 3 77t16 99.5t38 86t68 36.5v-342q0 -66 56 -117t134 -85.5t159 -53t128 -18.5h12q6 4 17.5 15.5t11.5 15.5v884q0 6 -43 14.5t-107.5 22t-140.5 35t-143.5 57t-116.5 87t-60 122.5q-12 84 22 141.5t93.5 97.5t137 66.5t152.5 49t139.5 46t96.5 56.5 q14 14 24.5 77.5t20 149.5t20.5 180.5t30.5 170t48 121.5t72.5 36q14 -4 29.5 -20.5t29.5 -38t23.5 -43t9.5 -35.5q0 -57 -10.5 -115.5t-22.5 -119t-22.5 -121t-10.5 -119.5q0 -10 1 -31.5t1 -46.5t1 -45t1 -29q35 -12 69 -27.5t59.5 -37t42 -50t16.5 -67.5 q0 -41 -8.5 -68.5t-57.5 -27.5q-23 0 -36 10t-24.5 23.5t-25.5 23.5t-35 10q-4 0 -16 -2t-14 -2l-7.5 -60t-10.5 -92t-9 -92t-4 -61v-18v-13q2 -4 14 -16t17 -14q139 0 267 -44t225 -125t155.5 -196t58.5 -256q0 -94 -36 -169t-95 -134t-136 -106.5t-159 -86t-163 -71.5 t-148 -66q-2 -35 0 -101.5t-8.5 -132t-43 -114.5t-102.5 -49q-14 0 -37.5 11.5t-23.5 19.5v336q-92 2 -204 39.5t-209 105.5t-163.5 159t-66.5 197zM272 1835q0 -43 42 -73.5t98.5 -49t113 -27t86.5 -8.5q6 0 30 2t30 2q2 14 7 53.5t10 83.5t9 82.5t4 55.5q0 8 2.5 34.5 t2.5 32.5q-27 0 -70 -3t-91 -11t-96.5 -21.5t-88 -34t-64.5 -50t-25 -68.5zM887 606q72 0 167 41t181 105.5t145.5 144.5t59.5 158q0 41 -31 94t-80 108.5t-109.5 105.5t-118 82t-107.5 40t-76 -19l-31 -30v-830z" />
<glyph unicode="%" d="M-2 336q0 4 1 16.5t1 14.5q2 14 11 42.5t18.5 58.5t18.5 53.5t13 29.5l949 1681q29 18 53 57.5t48 86.5t47.5 98t53 93t65.5 68.5t83 26.5q2 0 4 -1t6 -1h6q4 -4 15.5 -15t15.5 -15v-7q0 -4 1 -6t1 -4t-1 -3t-1 -5v-6l-1253 -2294q-23 -37 -41.5 -50t-51.5 -13 q-41 0 -52 30.5t-11 63.5zM397 2490q0 59 24.5 132t67.5 135.5t99.5 105.5t120.5 43q82 0 152.5 -22.5t123.5 -66.5t84 -110.5t31 -154.5q0 -90 -41 -151.5t-103.5 -99.5t-138.5 -55.5t-145 -17.5q-6 0 -23.5 1t-37 1t-37 1t-23.5 1q-29 20 -55.5 50t-49 64t-36 70.5 t-13.5 73.5zM578 2494q0 -59 38.5 -84.5t102.5 -25.5q35 0 75 20.5t74.5 51t58 68.5t23.5 75q0 47 -31.5 70.5t-74.5 23.5q-41 0 -87 -13.5t-86 -38t-66.5 -61.5t-26.5 -86zM612 274q0 45 18.5 78t42 60.5t42 56.5t18.5 66v16q0 2 -5 11t-11 19.5t-10.5 19.5t-4.5 11 q20 49 60.5 75t88.5 37t98 12t93 1q68 0 133.5 -22.5t118 -63.5t84 -100t31.5 -133q0 -94 -42 -172t-110.5 -133.5t-155.5 -85t-175 -29.5q-68 0 -125.5 16.5t-99.5 50t-65.5 85.5t-23.5 124zM795 274q0 -27 13 -45t33.5 -28.5t45 -15.5t45.5 -5q49 0 105.5 18.5t104.5 52.5 t80.5 79t32.5 100q0 41 -19 70.5t-48 50t-65 30t-68 9.5q-10 0 -38 -3t-38 -5q2 -4 8 -17.5t10 -28t8.5 -27.5t4.5 -20q0 -25 -34 -46t-74 -44.5t-73.5 -53.5t-33.5 -71z" />
<glyph unicode="&#x26;" horiz-adv-x="2201" d="M29 492q0 119 44 216t114.5 181t158.5 157.5t176 145.5t168 146.5t135 158.5q37 59 72 131t72 143.5t81 138t101 119t130 83t169 30.5q43 0 93 -13t95 -40t75 -68t30 -96q0 -68 -44 -128t-113.5 -113.5t-154.5 -101.5t-166 -90t-149.5 -79t-105.5 -67q2 -39 19.5 -111 t47 -157t69.5 -174t85 -161.5t93 -118.5t97 -46q6 0 11 2q4 0 6 2l549 518q4 0 14 3t14 3q25 0 47.5 -10.5t40 -27.5t28.5 -39.5t11 -47.5q0 -51 -40 -69.5t-85 -24.5l-397 -398q0 -2 -4 -9t-9 -17t-10.5 -19.5t-7.5 -15.5v-16v-15q39 -35 73 -74.5t65.5 -79.5t64.5 -79 t74 -72q-27 -45 -53.5 -69.5t-69.5 -24.5q-4 0 -16.5 1t-14.5 1q-16 20 -49 66.5t-73 94.5t-80.5 84t-71.5 36q-4 0 -16.5 -3.5t-14.5 -3.5q-119 -63 -214 -109t-188.5 -77t-193.5 -46t-229 -15q-12 0 -44 1t-66 1t-63.5 1t-41.5 1q-80 49 -142.5 86t-105.5 84t-66.5 114.5 t-23.5 176.5zM236 442q0 -8 1 -27.5t2 -41t3 -41t2 -27.5q41 -43 95 -62.5t113.5 -26.5t120 -6t111.5 1q68 0 155 9t173 34t158.5 66.5t113.5 107.5q-66 70 -141.5 160t-140 190.5t-106.5 207t-40 206.5q-4 0 -15.5 2t-15.5 2q-63 0 -131.5 -41t-134 -107.5t-125 -149.5 t-103.5 -167t-69.5 -160.5t-25.5 -128.5zM1067 1651q0 -4 1 -15.5t1 -15.5q47 31 111.5 63.5t130 69.5t124 80t93.5 92q-25 23 -44.5 29t-45.5 6q-4 0 -16.5 -2t-14.5 -2q-16 -10 -71.5 -45t-115 -80t-106.5 -94t-47 -86z" />
<glyph unicode="'" horiz-adv-x="243" d="M-3 1359.5q-1 43.5 1 96.5t8 110.5t20.5 104.5t37 77t59.5 30q47 0 70.5 -32t23.5 -73q0 -88 -7 -169t-14.5 -160.5t-11.5 -162.5t0 -171q-4 -8 -27.5 -19.5t-33.5 -11.5q-37 0 -61.5 41t-38 94t-19.5 106t-6 76q0 20 -1 63.5z" />
<glyph unicode="(" horiz-adv-x="1161" d="M29 1012q0 111 44 242.5t119.5 264t178 256t219.5 219t240.5 153t244.5 57.5q41 0 48 -36t7 -73v-16q-94 -33 -198.5 -92.5t-206.5 -137t-195.5 -173t-164 -201t-112.5 -219t-42 -228.5q0 -174 84 -324.5t211 -279.5t273.5 -235.5t273.5 -191.5t211 -149.5t84 -107.5 q0 -29 -20.5 -38t-43.5 -9q-4 0 -15.5 1t-15.5 1q-127 68 -266 146.5t-275.5 170.5t-260 197.5t-218 229.5t-149.5 266.5t-55 306.5z" />
<glyph unicode=")" horiz-adv-x="1069" d="M-92 -764q0 39 42 101.5t106.5 136t144.5 154.5t154.5 157t135 139.5t89.5 106.5q74 106 122 214.5t75.5 221.5t38.5 230.5t11 244.5q0 197 -61 360.5t-153.5 299t-201 244t-200.5 190.5t-153.5 141t-61.5 98q0 35 12 58.5t53 23.5q4 0 15.5 -2t15.5 -2 q150 -104 284 -213.5t247.5 -233.5t202.5 -268.5t151 -322.5q-6 -51 -1 -109.5t13 -119t15.5 -120t7.5 -114.5q0 -121 -22.5 -263.5t-69 -284.5t-116 -270t-163.5 -216l-641 -613q-6 -2 -12 -2h-17q-14 0 -38.5 4t-24.5 29z" />
<glyph unicode="*" horiz-adv-x="1222" d="M59 1874v22.5t3.5 33t10.5 29.5t19 13h275q-49 31 -89 55.5t-69 50t-44 56.5t-15 76q0 29 6 57.5t43 28.5q18 0 45.5 -17.5t57.5 -39t55.5 -42t39.5 -26.5q2 -2 6 -2q4 -2 11 -2q2 0 7 2t7 2q2 23 6 50.5t13.5 51t27 39t45.5 15.5q45 0 57.5 -30t14.5 -68t8 -72.5 t43 -47.5q39 31 78 88.5t83 112.5t94 97t112 42q4 0 15 -2t15 -2q-12 -55 -38.5 -109.5t-62.5 -105.5t-74 -97t-70 -85q55 -20 87.5 -25.5t80.5 -5.5q55 0 95 6.5t103 24.5q31 -6 33 -33.5t2 -48.5q0 -51 -22.5 -74.5t-102.5 -25.5v-17v-14q0 -4 5 -17.5t9.5 -28.5 t9.5 -28.5t5 -17.5v-14q0 -29 -19.5 -39.5t-40.5 -10.5q-8 0 -18 1t-12 1l-308 154h-6h-6q-2 0 -2 2q-2 0 -4 -1t-4 -1h-6q-4 -4 -16.5 -15.5t-14.5 -15.5v-16q0 -35 9.5 -72t20.5 -73.5t20 -73.5t9 -70q0 -84 -29.5 -125t-107.5 -41q0 94 -17.5 178t-58.5 170q-4 0 -8 2.5 t-8 2.5q-41 0 -78 -32t-78 -70t-88 -69.5t-106 -31.5q0 98 48 170.5t134 120.5v38q-20 0 -61 -6t-82 -5t-72 15.5t-31 57.5z" />
<glyph unicode="+" horiz-adv-x="1527" d="M28 844.5q-1 15.5 1 32t9 29t23 12.5h404q0 25 -2 72.5t-1 106t7 119t20.5 110.5t39 82t65.5 32q57 0 69.5 -24.5t12.5 -80.5q0 -86 -18.5 -165.5t-18.5 -163.5q0 -39 8 -63.5t49 -24.5q154 0 303.5 16t298.5 16h52t68 -6t58.5 -22.5t24.5 -51.5q0 -2 -1 -3t-1 -5 q-2 -4 -2 -6q-4 -6 -13 -17.5t-18.5 -20.5t-17.5 -16t-10 -7l-736 -62q-14 0 -21 -9t-9 -20.5t-2 -23.5v-21q0 -94 18.5 -184t18.5 -188q0 -12 2 -59.5t-3.5 -97.5t-22.5 -91t-56 -41h-9q-4 0 -6 2q-4 2 -13 10t-19.5 18.5t-18.5 19.5t-10 13q-2 31 -10.5 105t-18.5 157 t-19 156.5t-14 102.5q-2 14 -7 37.5t-10 46t-9 38.5l-4 15h-398q-14 0 -21 15.5t-9 34.5t-2 35.5v20.5t-1 19.5z" />
<glyph unicode="," horiz-adv-x="671" d="M29 213q0 61 29.5 103t74.5 67t98.5 36t102.5 11q66 0 117 -31.5t86.5 -83t55 -115t19.5 -124.5q0 -59 -19.5 -145.5t-57 -166t-96 -137t-136.5 -57.5q-41 0 -57.5 21.5t-30.5 72.5q51 55 84 97t51.5 85t25.5 93.5t7 117.5q-4 0 -8 2t-8 2q-6 -2 -28 -6t-48.5 -9t-48 -10 t-27.5 -5h-18q-29 0 -58.5 18.5t-54.5 46t-40 59t-15 58.5z" />
<glyph unicode="-" horiz-adv-x="944" d="M74.5 808q31.5 30 109.5 46t184.5 20.5t207 2t177 -10.5t97.5 -16q0 -16 4 -36.5t4 -39t-8 -32t-33 -13.5l-725 4q-49 45 -17.5 75z" />
<glyph unicode="." horiz-adv-x="733" d="M59 322q0 51 45.5 83.5t106.5 51t122.5 25.5t94.5 7q47 0 92 -31.5t80 -76.5t56.5 -95t21.5 -87q0 -31 -1 -60.5t-9.5 -57.5t-27.5 -48.5t-58 -32.5q-6 0 -23.5 -1t-38 -2t-38 -2t-23.5 -1q-74 0 -144.5 18.5t-128 58.5t-92.5 101.5t-35 149.5z" />
<glyph unicode="/" horiz-adv-x="948" d="M-2 92q0 76 20.5 141.5t49 128t61.5 124t55 126.5q2 10 15.5 55.5t29 96.5t28.5 96t17 58q14 35 47 106.5l75 162.5t88 191.5t89 190.5t77 160.5t52 105.5q4 14 15.5 21.5t26 10.5t27.5 2t24 -1q59 0 76.5 -17.5t17.5 -76.5q0 -8 -1 -32t-1 -30q-111 -170 -210 -379 t-184 -427t-155 -429t-125 -385q-10 -29 -19.5 -47t-23.5 -28.5t-33.5 -14.5t-48.5 -4q-53 0 -71.5 21.5t-18.5 72.5z" />
<glyph unicode="0" horiz-adv-x="1253" d="M55 780q0 152 35 314.5t102.5 315.5t165 286t224.5 229q2 0 14 2t16 2q39 0 59.5 -29.5t30.5 -64.5q147 -12 248 -60.5t161 -131t86 -198.5t26 -265q0 -104 -8.5 -232.5t-34 -259.5t-70.5 -255t-120 -220t-182.5 -154.5t-256.5 -58.5q-111 0 -190.5 34t-135 91t-89.5 133 t-51 163t-23.5 179t-6.5 180zM242 709q0 -63 3 -109.5t13 -92.5t28.5 -99.5t49.5 -133.5q33 -47 82 -55t102 -8q129 0 218 47t146.5 126t90.5 181.5t47 213t17 220t3 203.5q0 74 -7 153t-33.5 145.5t-80 109.5t-147.5 43q-43 0 -74.5 -3t-62.5 -13.5t-65.5 -29t-82.5 -48.5 q-121 -201 -184 -409t-63 -441z" />
<glyph unicode="1" horiz-adv-x="397" d="M49 -6q0 25 2 86t4 131t4 131t2 86q6 104 13.5 231t18.5 260.5t25.5 266.5t35.5 250q16 96 57 146t137 50q0 -195 -21.5 -386t-44 -382.5t-37 -383t0.5 -388.5q-72 -98 -197 -98z" />
<glyph unicode="2" horiz-adv-x="1894" d="M59 94q0 27 1 45.5t7.5 34.5t19.5 31.5t36 38.5l672 643q16 14 42.5 49t58.5 80t62.5 97t56 103.5t42 96.5t16.5 78q0 35 -17.5 61.5t-44 43.5t-59 26.5t-65.5 9.5q-84 0 -157 -32t-137.5 -81t-118.5 -104t-100 -104.5t-86 -81t-73 -31.5q-49 0 -57 29.5t-8 70.5 q0 68 38.5 129.5t102 116.5t141.5 102t157 85t149.5 66.5t117.5 45.5q4 0 22.5 1t22.5 1q66 0 130.5 -37t114.5 -92t80.5 -123t30.5 -129q0 -86 -33.5 -177t-90 -180t-126 -176.5t-141 -166t-138 -146t-116.5 -121.5l31 -30q4 -4 37 -13.5t84 -24t114.5 -31.5t127 -32.5 t121 -30t96.5 -22.5q4 0 34.5 -1t47.5 -1q72 0 141.5 20.5t137 45t133 45t130.5 20.5q0 -115 -56 -182.5t-144 -102t-196 -46t-212 -11.5h-16l-703 184q-4 0 -20.5 1t-26.5 1q-59 0 -105 -29.5t-86 -64.5t-78 -64.5t-79 -29.5q-47 0 -56.5 27.5t-9.5 68.5z" />
<glyph unicode="3" horiz-adv-x="1284" d="M59 1395q0 35 8.5 59.5t55.5 42.5q70 31 151.5 63.5t165.5 60.5t170 45t166 17q174 0 251 -101t77 -271q0 -84 -30 -126t-73 -70t-91 -54.5t-85 -81.5q61 -74 132 -133.5t129.5 -123t97.5 -143t39 -196.5q0 -76 -33 -135.5t-88 -101.5t-125 -70.5t-142.5 -46 t-144.5 -24.5t-127 -7q-66 0 -142.5 9t-142 37t-109.5 78t-44 134q57 0 111.5 -12.5t106.5 -25.5t105.5 -25.5t110.5 -12.5q55 0 133 10.5t150.5 37t123 74.5t50.5 122q0 94 -40 160.5t-106.5 110.5t-149.5 67.5t-168 33t-166 7.5t-140 -8q-37 18 -51.5 38.5t-14.5 53.5 q0 45 54.5 73.5t137.5 53t178 49t178 60.5t137.5 89.5t54.5 133.5q0 94 -42 124.5t-128 30.5q-84 0 -173.5 -29.5t-173.5 -65.5t-160.5 -65.5t-136.5 -29.5q-16 0 -26 8t-14.5 20.5t-5.5 27.5t-1 28z" />
<glyph unicode="4" horiz-adv-x="1527" d="M59 718v75q0 125 21.5 233.5t58.5 212.5t87 212t110 230q8 29 33.5 31t46.5 2q41 0 57 -17.5t16 -60.5v-16q-8 -23 -25.5 -68t-37.5 -101t-44 -119.5t-45.5 -121t-37.5 -103.5t-25 -69q-10 -31 -16 -53t-10 -41.5t-5 -41t-1 -50.5q0 -10 -1 -23.5t2 -27t9 -23.5t22 -14 h28t42.5 -1t42 -1h27.5h41t89 2t88 9t42 22l59 520q4 41 18.5 52t43.5 11q27 0 59.5 -13t32.5 -50v-520h520q47 0 70.5 -35t23.5 -72q0 -23 -3 -46.5t-30 -29.5q-18 0 -66 1t-101.5 1t-101.5 -1t-69 -1q-25 -2 -64.5 -6t-78.5 -8t-68.5 -9t-31.5 -7l-31 -31v-569 q-14 0 -38.5 4t-49.5 13t-44 24.5t-22 37.5l-59 521h-459q-51 0 -76.5 19.5t-37 49t-11.5 67.5z" />
<glyph unicode="5" horiz-adv-x="2140" d="M59 811q0 49 35 133t82 175t92 176t68 141q4 4 15 16t16 14q-61 -16 -93 1.5t-32 76.5q0 20 3 45t29 31q291 63 584 78.5t586 15.5h164t153.5 -2t153.5 -9t164 -22q0 -4 2 -22.5t2 -22.5q0 -33 -4 -56.5t-31 -51.5q-41 0 -127 1t-194.5 1t-228.5 1t-228.5 0t-194.5 -2 t-127 -1q-18 0 -69.5 -3t-109.5 -8.5t-111.5 -10.5t-75.5 -9q-29 -4 -54.5 -32.5t-46 -70.5t-36 -92.5t-26.5 -98.5t-16.5 -88t-5.5 -60v-17q4 -4 15.5 -15t15.5 -13h16h15q8 2 30.5 13t30.5 15q25 6 85.5 12.5t128 11.5t129 7t85.5 0q137 -12 260 -71.5t215.5 -154.5 t146.5 -219t54 -264q0 -80 -39 -146.5t-100.5 -113.5t-139 -73.5t-153.5 -26.5h-641q-72 0 -137.5 34t-116.5 87t-81 119.5t-30 132.5q35 0 90.5 -35t132 -77t176 -76.5t222.5 -34.5q43 0 107.5 1t134 7t140.5 20.5t126 41t90 67.5t35 102q0 115 -51.5 207t-134.5 156.5 t-187 99.5t-211 35q-96 0 -185 -24.5t-177 -53.5t-176.5 -53.5t-180.5 -24.5q-47 0 -62.5 16.5t-15.5 63.5z" />
<glyph unicode="6" horiz-adv-x="1925" d="M31 920q0 100 36.5 202.5t100 197.5t148.5 178t182.5 144.5t202 97.5t204.5 36q47 0 61.5 -27t14.5 -68q0 -4 -1 -16t-1 -14q-43 -18 -114.5 -51t-152.5 -76t-165 -97.5t-150.5 -117t-109.5 -131t-43 -140.5v-366l30 -60q80 100 195 156.5t244 83.5t261 32t249 5h60 t92 -1t92 -1h61q68 -23 129 -55.5t108 -78.5t75 -105.5t28 -133.5q0 -106 -52.5 -186t-136.5 -137.5t-191.5 -94.5t-216 -59.5t-211 -30.5t-177.5 -8q-197 0 -354.5 71.5t-268 195.5t-170 292t-59.5 363zM426 446q0 -78 51 -130t125 -82.5t154 -43t139 -12.5q57 0 136 4 t165 16.5t173 35t158.5 60.5t122 93t62.5 133q8 51 -23.5 88t-85 60.5t-121 38t-131 20.5t-114.5 8t-72 2q-41 0 -111.5 -7t-153.5 -21.5t-167 -38t-152.5 -55t-111.5 -74t-43 -95.5z" />
<glyph unicode="7" horiz-adv-x="2537" d="M59 1632q0 20 2 46t31 34h73h113.5t133 1t133 1h114h74.5q100 0 225 2t256.5 0t259.5 -9t238 -26q23 -16 37 -40.5t25 -51.5q-14 -23 -50 -66.5t-80.5 -101t-92.5 -120t-88 -122t-65.5 -109.5t-25.5 -79q0 -6 2 -8q0 -2 2 -4q6 -4 30 -16.5t32 -14.5q248 -35 515 -59.5 t523 -63.5q29 -6 32 -30.5t3 -44.5q0 -23 -3 -46.5t-32 -31.5h-27.5t-41 -1t-41 -1h-27.5q-131 0 -260 14t-259 32.5t-260 33t-262 14.5h-45q-43 -78 -63.5 -165t-34.5 -173t-29.5 -166t-45 -140.5t-82 -96t-142.5 -35.5q0 109 23.5 208t53.5 195t53.5 191.5t23.5 197.5v15 q-39 12 -68 18t-56.5 9t-55 4t-62.5 1q-51 0 -93 -2t-84 -5t-88 -10t-106 -15q-20 12 -60 37.5t-63 54.5q86 53 195 79.5t221.5 36t219 8.5t190.5 -1q53 35 98 97t85 132t78 139.5t77 118.5q-16 4 -55.5 9t-83.5 10.5t-82.5 8.5t-55.5 3q-39 0 -119.5 1t-183 1t-216.5 1 t-216 0t-183 -2t-120 -1q-47 18 -55.5 42.5t-8.5 61.5z" />
<glyph unicode="8" horiz-adv-x="1773" d="M31 1466q0 100 50 174t132 125.5t185.5 83t209 50t202.5 24.5t169 6q14 0 49 -1t73 -1t72.5 -1t49.5 -1q47 -18 55 -42.5t8 -59.5q0 -37 -10 -58.5t-49 -21.5q-59 0 -114.5 16.5t-115.5 16.5q-78 0 -187.5 -10.5t-219 -37t-203.5 -75.5t-143 -125l61 -31l32 -2t82 -5 t113.5 -6t128 -7t124 -6.5t102.5 -4.5q4 0 22.5 1t39 1h39t22.5 -2q14 -2 49 -10t72.5 -17t72.5 -18.5t49 -13.5q57 39 102.5 78t76 84t48 101t17.5 134q4 0 15.5 1t15.5 1q33 0 52 -14t29.5 -35.5t12.5 -47.5t2 -50q0 -63 -25.5 -109.5t-55.5 -86.5t-55.5 -77.5 t-25.5 -87.5q0 -66 39 -132t87 -139t87 -156t39 -183q0 -86 -40 -171t-107.5 -161.5t-154.5 -142.5t-181 -114t-187.5 -74.5t-173.5 -26.5q-78 0 -128 32.5t-79.5 85t-42 118t-12.5 131.5q0 281 115 497.5t346 390.5q-6 4 -29.5 15.5t-29.5 15.5q-92 16 -195.5 24.5 t-207 10.5t-204 0t-188.5 -4q-18 6 -49 19.5t-60.5 32.5t-52 44t-22.5 55zM762 365.5q0 -21.5 1 -46t1 -46v-29.5q31 -45 77 -54.5t95 -9.5q92 0 187.5 42t180.5 108.5t152.5 148.5t102.5 162q0 4 2 15.5t2 15.5q0 31 -12.5 79t-34 103t-51 110.5t-63.5 100.5t-72 72.5 t-77 27.5q-70 0 -133 -41t-118.5 -107.5t-99.5 -149.5t-74.5 -169t-48 -164.5t-17.5 -136.5v-31.5z" />
<glyph unicode="9" horiz-adv-x="1406" d="M-2 1190q0 88 42 156.5t110.5 121t156.5 87t179.5 57t178.5 32t154 9.5q80 0 172 -13.5t171 -50.5t131.5 -103.5t52.5 -170.5q0 -158 -12.5 -313.5l-25 -311t-21.5 -312.5t-3 -317q-23 -31 -55.5 -47t-67.5 -16q-12 0 -27.5 1t-29.5 6t-24.5 13.5t-10.5 24.5 q0 121 5 233.5t14.5 223t19.5 221t22 227.5v19v12q-2 10 -14 33.5t-16 25.5q-2 0 -6 2h-7q-2 0 -2 2q-4 0 -8 -2t-8 -2q-29 -10 -106.5 -33.5t-164.5 -48t-166 -44t-112 -25.5q-2 0 -17.5 -1t-34.5 -1t-39.5 -1t-33.5 -1q-74 0 -145.5 14t-126.5 49t-90 94.5t-35 149.5z M184 1178q0 -49 24.5 -72t60.5 -32t76 -8t71 1q35 0 102.5 5t147 17.5t162.5 35t152 56t112 82t43 113.5q0 35 -12.5 53.5t-53.5 36.5q-12 0 -42 1t-63.5 2t-64.5 2.5t-43 1.5q-39 0 -104.5 -3.5t-140 -14.5t-150.5 -30.5t-137.5 -52.5t-100.5 -80.5t-39 -113.5z" />
<glyph unicode=":" horiz-adv-x="686" d="M104 334q0 63 23 115.5t62.5 89t93 57t114.5 20.5q39 0 76 -19t64.5 -50t44 -70t16.5 -78q0 -4 -1 -16t-1 -14q-47 -43 -82 -68t-66.5 -38t-66.5 -16t-82 -3q-25 0 -57.5 1t-63.5 10t-52.5 26.5t-21.5 52.5zM207 1255q0 53 17.5 88t49 55.5t74.5 29t94 8.5 q76 0 122 -55.5t46 -135.5q0 -41 -24.5 -70.5t-59 -48t-74.5 -26.5t-73 -8q-96 0 -134 33.5t-38 129.5z" />
<glyph unicode=";" horiz-adv-x="520" d="M-37 -399q0 57 26.5 90t68.5 47t91.5 17t94.5 3h23.5t38 -1t37.5 -1h24q39 -27 67.5 -65.5t48 -83.5t28.5 -93.5t9 -93.5q0 -92 -28.5 -173t-75.5 -152.5t-108.5 -135t-125.5 -120.5q-2 0 -13 -1t-15 -1q-14 0 -38 4t-24 29q0 68 31 134t70.5 130.5t80.5 128t62 127.5 q0 6 -4 18t-9.5 26.5t-10.5 28t-7 17.5q-2 8 -14 19.5t-17 11.5q-4 0 -22.5 -4.5t-37.5 -9.5t-37.5 -10t-22.5 -7h-35q-66 0 -111 26.5t-45 94.5zM27 750q0 102 65.5 166.5t167.5 64.5q33 0 73 -20.5t74.5 -52t58 -69.5t23.5 -75q0 -41 -29.5 -70.5t-72.5 -48t-88 -28 t-76 -9.5q-33 0 -67.5 8.5t-63.5 25.5t-47 44t-18 64z" />
<glyph unicode="&#x3c;" d="M-2 979q0 33 13.5 53.5t49.5 38.5q166 78 295 143.5t254 127t262.5 122t319.5 125.5q4 0 8 2t8 2q35 0 56.5 -31.5t21.5 -62.5q0 -33 -13 -54.5t-50 -37.5l-807 -354l43 -43q2 -2 35.5 -17.5t86 -40t119 -54.5t134 -60.5t129 -58t106.5 -46.5q31 -14 88 -21t113.5 -20.5 t97.5 -38t41 -71.5t-31.5 -71t-72.5 -24t-118 18.5t-176.5 48.5t-213 70t-226 82t-216 85t-183.5 79.5t-127 65.5t-47 43z" />
<glyph unicode="=" d="M49 879q0 6 2 25.5t4 40t4 40t2 25.5q2 6 14.5 18t16.5 12q20 2 63.5 7.5t97.5 10.5t113.5 12t114 13.5t98.5 11.5t64 7h27h32q23 0 71 -3t108.5 -6t127 -6.5t127 -6.5t108.5 -5t71 -4q18 -12 39.5 -43t21.5 -49q0 -4 -4 -13.5t-8 -19.5t-10 -18t-8 -10q-182 6 -344 0.5 t-318 -14.5t-311.5 -17t-323.5 -8zM150 612q0 51 61 83t157.5 49.5t214 22.5t228.5 6t202 -2t134 -3q57 0 102 -3t76 -20.5t47.5 -52.5t16.5 -98q-152 0 -299.5 -7t-294 -14.5t-292 -14.5t-292.5 -7q-61 0 -61 61z" />
<glyph unicode="&#x3e;" horiz-adv-x="1712" d="M29 1788q0 16 4 35.5t13 36t23.5 27.5t36.5 11q2 0 4.5 -1t6.5 -1q4 -2 6 -2q4 -2 13 -10t19.5 -18.5t18.5 -19.5t10 -13q172 -96 337 -161.5t330 -119t332 -101.5t345 -108q53 -16 90 -56t37 -99q0 -25 -10.5 -43.5t-55.5 -14.5l-1161 -825q-4 -2 -10 -2h-17 q-29 0 -42 9.5t-19 24.5t-6 35.5v43.5v48t4 30.5t17.5 24.5t41.5 30l795 551q37 4 62.5 29.5t29.5 62.5q-33 8 -116 32.5t-176 53.5t-175 56.5t-115 39.5q-14 6 -80.5 37t-149.5 70t-164 77.5t-124 61.5q-25 12 -52.5 28.5t-50 38t-37.5 46t-15 55.5z" />
<glyph unicode="?" horiz-adv-x="1284" d="M-2 1782.5v32.5q0 57 36 107t92 94t128 79t143.5 59.5t136 38t107.5 13.5q86 0 183.5 -35t180 -95.5t137 -142.5t54.5 -174q0 -109 -66.5 -199t-165 -166.5t-215 -146t-215 -136.5t-165 -136.5t-66.5 -147.5q0 -33 14.5 -58.5t33 -50t32.5 -48t14 -54.5 q0 -27 -23.5 -30.5t-37.5 -3.5q-49 0 -89 24.5t-68.5 63.5t-44 86t-15.5 90q0 100 65.5 184t165 159t215 144.5t215 138t165 140t65.5 151.5q0 66 -42 111t-102.5 72.5t-127 39t-115.5 11.5q-98 0 -192.5 -44t-172.5 -97.5t-134 -97.5t-79 -44q-20 0 -29.5 10.5t-13.5 25.5 t-4 32.5zM88 137q0 39 20.5 65.5t50 44t65.5 25t67 7.5q78 0 109.5 -44.5t31.5 -115.5q0 -74 -39 -99.5t-106 -25.5q-29 0 -64 7t-64.5 23.5t-50 44t-20.5 68.5z" />
<glyph unicode="@" horiz-adv-x="3147" d="M59 1055q0 221 79 392t214 298t312.5 215t373 142.5t398 78t387.5 23.5q127 0 273.5 -15.5t289.5 -53.5t276.5 -98.5t235.5 -151.5t162.5 -213t60.5 -281q0 -152 -46 -249.5t-123 -167t-177 -122.5t-207 -119h-36.5t-55.5 -1t-55.5 -1h-36.5q-70 0 -131.5 19.5t-114.5 44 t-98 44t-80 19.5q-53 0 -106.5 -15.5t-106.5 -32.5t-108.5 -32.5t-112.5 -15.5q-76 0 -142.5 20.5t-116.5 60.5t-79 101.5t-29 140.5q0 106 66.5 185.5t164 130.5t206 75.5t192.5 24.5q10 0 38.5 -2t39.5 -2q88 -45 129 -104.5t60.5 -125t30.5 -129t39.5 -113.5t87 -81 t175.5 -31t217 28t174 85t116 144t42 206q0 133 -55.5 235.5t-147.5 177.5t-212 125t-248 80.5t-255 43t-233 12.5q-154 0 -328 -22.5t-346 -71.5t-328.5 -129t-277.5 -192.5t-192.5 -262t-71.5 -340.5q0 -184 85 -321.5t222 -235.5t310 -161.5t351.5 -99.5t343 -50 t287.5 -14q170 0 339 17t337 17q12 0 29.5 1t31 -4t20.5 -18t1 -40q-8 -33 -70.5 -54.5t-152.5 -36t-195.5 -21.5t-202 -10t-170 -3h-100.5q-164 0 -350.5 20.5t-369.5 67.5t-351 127t-296 196.5t-205 276.5t-77 369zM1341 1069q0 -41 16.5 -65.5t44.5 -38t61.5 -17.5 t68.5 -4t91 5t110.5 20.5t94.5 41t40 68.5q0 35 -4 76t-16.5 77t-36 60.5t-62.5 24.5q-49 0 -118.5 -16.5t-134 -48t-110 -78t-45.5 -105.5z" />
<glyph unicode="A" horiz-adv-x="1406" d="M29 137q0 4 1 23.5t1 23.5q47 428 165.5 842t292.5 809q2 4 10.5 13.5t18.5 18.5t19.5 17t13.5 10q2 0 6 2q4 0 5 1t3 1q74 0 141.5 -50t128 -130t111.5 -178t90 -193.5t63.5 -178.5t30.5 -130q31 -18 68 -29.5t71 -24.5t62.5 -34.5t44.5 -62.5q1 -2 1 -5.5t-1 -7.5 q-2 -10 -7 -20t-11 -18.5t-12 -10.5q-8 -4 -30 -10t-46.5 -10t-47 -7t-30.5 -3v-15q0 -145 26.5 -299.5t65.5 -296.5q0 -2 5 -11t10.5 -19.5t9.5 -19.5t6 -11v-17q0 -53 -38 -80.5t-85 -27.5q-20 0 -36 4t-26 29q-12 39 -22 106.5t-19.5 146t-19.5 162.5t-22.5 159 t-29 133.5t-38.5 86.5h-29.5t-46 1t-47 1h-31.5q-68 0 -120 -2t-102 -8t-106.5 -19.5t-129.5 -33.5q-18 -10 -35 -37t-29 -59.5t-19.5 -64.5t-9.5 -52q0 -23 -4 -80t-9 -120.5t-10 -120t-7 -76.5q-25 -35 -65 -66t-87 -31q-41 0 -52 21.5t-11 58.5zM397 973q59 0 141.5 8 t162 19.5t147 21.5t100.5 16q-4 23 -20.5 76t-36 111.5t-38.5 109.5t-28 72q-6 12 -25.5 43t-46 62.5t-56 56t-54.5 24.5q-18 0 -34.5 -4t-26.5 -30l-185 -521v-65z" />
<glyph unicode="B" horiz-adv-x="1497" d="M29 1407q0 70 43 115t110.5 72.5t150.5 41t165 18.5q68 4 129 4h23q70 -1 114 -1q16 0 55 -1t83 -2t83 -2t55 -1q41 -18 98.5 -36t111 -42.5t91 -63.5t37.5 -102q0 -66 -32.5 -111t-83 -79.5t-111.5 -61.5t-119.5 -52.5t-105.5 -55t-70 -68.5q86 -20 183.5 -57t179 -94.5 t136 -136.5t54.5 -183q0 -135 -56.5 -231.5t-149.5 -158t-212 -90t-241 -28.5h-17q-12 2 -31.5 7t-38 9t-34 8.5t-17.5 6.5l-489 274q-4 4 -16.5 27.5t-14.5 34.5q-16 111 -24.5 238.5t-11.5 257.5q-2 78 -2 154q0 51 1 101q2 124 6 228q-25 10 -28.5 24t-3.5 37zM236 997 q43 0 129 17.5t189 47.5t211.5 68.5t198 82.5t145.5 89.5t56 88.5q0 25 -29.5 43t-76.5 30.5t-102.5 19.5t-106.5 11t-92.5 5t-55.5 1q-154 0 -245.5 -21.5t-141 -79t-64.5 -154.5t-15 -249zM238 838q0 -147 42 -269.5t124.5 -208.5t203.5 -133t279 -47q53 0 112.5 19.5 t110.5 56.5t84 87t33 112q0 109 -54.5 180.5t-141.5 113.5t-195 61q-108 20 -218 26q-84 5 -162 4h-48q-100 -2 -170 -2z" />
<glyph unicode="C" horiz-adv-x="1650" d="M29 627q0 125 60.5 219t159.5 163.5t223 117t250 75t243.5 39.5t201.5 12q37 0 63.5 -25.5t26.5 -62.5q0 -35 -8 -62.5t-26 -64.5q-67 8 -167 10h-19q-91 0 -191 -14q-110 -14 -217 -42.5t-194 -80t-140 -125t-53 -174.5q0 -94 31.5 -162.5t84 -115.5t122 -78t146 -47 t154.5 -22.5t150 -6.5q168 0 319.5 14.5t309.5 79.5q31 -6 32.5 -31.5t1.5 -45.5q0 -59 -40 -98.5t-103.5 -61t-142 -30.5t-153.5 -11q-38 -1 -72 -1t-66 1q-64 2 -98 2q-96 0 -200 13.5t-202 43t-187 76.5t-156 117.5t-105.5 164t-38.5 214.5z" />
<glyph unicode="D" horiz-adv-x="1376" d="M55 1372q0 39 13.5 59.5t35 28.5t50 9t61.5 1q111 0 237 -19t247.5 -58t233 -101.5t198 -146.5t136.5 -193.5t50 -244.5q0 -166 -66.5 -297t-178 -222.5t-258 -140.5t-304.5 -49q-102 0 -185 35t-141.5 96t-90.5 147.5t-32 188.5q0 100 1 204.5t9.5 209t28 207 t54.5 198.5q-35 -14 -55.5 -8t-30 21.5t-11.5 37t-2 37.5zM242 811q4 -84 4 -139v-60q0 -20 4 -68t8 -102.5t9 -102t7 -65.5q25 -35 65 -54t84 -28.5t89 -10.5t82 -1q111 0 209 39t173 108.5t118 164t43 204.5q0 131 -80 239.5t-199 186.5t-256 120t-254 42h-12 q-47 -49 -67.5 -130t-25.5 -170q-3 -49 -3 -97q0 -39 2 -76z" />
<glyph unicode="E" d="M29 440q0 174 20.5 363.5t42.5 357.5q8 63 63.5 106.5t140.5 70t186.5 42t200.5 21.5t186 7t143 1q27 0 88 4q24 2 49 2q37 0 73 -4q62 -6 109 -27.5t47 -72.5q0 -25 -11 -43.5t-52 -14.5q-113 13 -227 13q-150 0 -300 -22q-264 -38 -514 -114q2 -8 2 -28.5v-45v-47 t-2 -30.5q0 -4 -5 -22.5t-10 -39t-10 -39t-5 -22.5t12 -15.5t18 -15.5h13h18q18 2 74.5 6.5t132.5 11.5t161 13t160.5 13.5t132 11.5t74.5 6h12.5t24 1t26.5 1h19q57 0 81 -11.5t24 -70.5q0 -63 -75 -84q-76 -21 -188 -22h-41q-95 -1 -202 3l-58 2q-97 0 -185 -12 q-112 -16 -187.5 -65t-75.5 -156q0 -109 41 -175.5t108.5 -102t155.5 -47t183.5 -11.5t189.5 6.5t174 6.5q76 0 136.5 17t125.5 17q20 0 30.5 -10t14.5 -24.5t4 -32v-29.5v-34.5t-5 -28t-18.5 -18.5t-39.5 -7h-887q-104 0 -180 34t-125 93t-71.5 140t-22.5 173z" />
<glyph unicode="F" horiz-adv-x="1406" d="M59 659q0 27 9.5 40.5t23.5 20.5t30.5 16t31.5 28q2 20 7 72.5t9 111t8 110.5t6 72q0 4 -1 14.5t-1 23t-1 22.5t-1 14q-12 0 -32.5 -5t-39 -5t-33 8t-14.5 35q0 31 17.5 61.5t44.5 47.5q133 37 270 55t276.5 25.5t277.5 8.5t274 1q25 0 47 -3t39.5 -12.5t29 -27 t11.5 -47.5q0 -33 -13.5 -53.5t-50.5 -39.5q-25 0 -78 1t-118.5 1h-139.5h-139.5t-118.5 -1t-78 -1q-29 -2 -69.5 -6t-80.5 -8t-67.5 -9t-27.5 -7v-486l733 -65q20 -2 35.5 -18.5t24.5 -38t13.5 -44t4.5 -36.5h-842v-560q-66 0 -106 30t-62 79q-21 50 -27 112q-5 47 -5 94 q0 16 1 32q2 64 7.5 124t9.5 105q-49 16 -72 37.5t-23 70.5z" />
<glyph unicode="G" horiz-adv-x="1681" d="M29 594q0 131 60.5 234.5t158.5 180t224 130t257 86t256 47t223 14.5h27.5t41 -1t41 -1h28.5q4 -2 13 -10t19.5 -18.5t18.5 -19.5t10 -13v-6v-7q0 -2 2 -2q0 -2 -1 -4t-1 -6v-6q-2 -4 -10 -13.5t-18.5 -19.5t-19.5 -18t-13 -11q-78 -4 -190 -14t-234.5 -31.5 t-244.5 -57.5t-218.5 -93t-156.5 -139t-60 -193q0 -96 35.5 -180t98 -148.5t146.5 -104.5t180 -46q23 -1 48 -1q49 0 108 5q88 8 179 27.5t173 49t136 70.5q18 14 35.5 42t35 53.5t37 45t43.5 19.5q45 0 69.5 -28.5t53.5 -69.5v-12q0 -111 -3 -198t-8 -163t-10.5 -147.5 t-8.5 -152.5t-4 -177v-39q0 -82 3 -180q-6 -18 -28.5 -30.5t-47 -18.5t-47 -9.5t-28.5 -3.5q-14 0 -38 11.5t-24 19.5v856q-111 -43 -186.5 -67.5t-140 -37t-130 -16.5t-155.5 -4q-139 0 -271.5 38t-234.5 115t-165.5 195.5t-63.5 278.5z" />
<glyph unicode="H" horiz-adv-x="1497" d="M29 586v55q0 106 1 191.5t4 167t9 171t18 205.5q-4 25 2.5 37t17.5 18.5t26.5 7.5t27.5 1q20 0 46 -2t34 -31q21 -129 29 -259q4 -67 4 -134q0 -63 -4 -127l30 -31h881q0 66 2 105.5t3 68.5t2 50.5t-2 51t-10 71.5t-20 112q8 29 34 31t46 2q31 0 58.5 -48.5t49 -129 t40 -186t33 -220.5t24.5 -231.5t16.5 -220t9.5 -185.5t3 -127h-129q-4 0 -16.5 35t-27 83t-28.5 100t-20 87q-2 12 -6.5 57.5t-9.5 96.5t-9 96t-6 57t-14.5 36t-16.5 24h-917q-2 0 -13.5 -23.5t-15.5 -36.5v-12v-18q0 -10 5 -46t9 -77t9.5 -78t5.5 -45v-37 q0 -20 -10.5 -31.5t-27 -17.5t-34.5 -7t-35 -1q-57 0 -76.5 33.5t-29.5 91.5v54t-1 83t-1 82z" />
<glyph unicode="I" horiz-adv-x="397" d="M22 548q2 106 8 210q3 58 3 110q0 42 -2 80v16.5t-1 32t-1 34v26.5q0 39 -2 89v18q0 40 7 77q9 45 32.5 76t76.5 31q25 0 43 -45.5t27.5 -116t14.5 -154.5t8.5 -162.5t4.5 -141t3 -87.5q4 -80 21.5 -164t35.5 -167t32.5 -165t14.5 -157q-113 0 -178.5 47t-99.5 126 t-42 180q-7 78 -6 159q-1 24 0 48z" />
<glyph unicode="J" horiz-adv-x="1773" d="M49 1223v24.5t4 39t13.5 37.5t25.5 22q18 2 65.5 11t101.5 18t102.5 18.5t66.5 13.5h25h36q45 -2 138.5 -4t211 -5t248 -6t247 -6.5t209.5 -5.5t138 -4q25 -10 29 -26.5t4 -34.5q0 -33 -29.5 -62.5t-64.5 -29.5h-459q-47 0 -55 -20.5t-8 -53.5q0 -90 26.5 -178t60.5 -177 t63.5 -180.5t35.5 -185.5q1 -13 1 -26q0 -102 -43 -175q-48 -82 -128 -133t-181.5 -73.5t-199.5 -22.5q-90 0 -177 29.5t-155.5 85t-111.5 135.5t-43 180q0 18 6 52t18.5 67t33 57.5t50.5 24.5q0 -98 20.5 -186.5t67.5 -154t125 -103.5t195 -38q43 0 87 5.5t84 18.5 t75.5 37.5t62.5 65.5q0 10 2 37t3 55.5t2 55.5t1 37q0 94 -6 167.5t-23.5 144.5t-49 148.5t-82.5 180.5v123h-869z" />
<glyph unicode="K" horiz-adv-x="1681" d="M31 1161q0 25 1 62t8 71.5t26.5 59t56.5 24.5q43 0 61.5 -19.5t24.5 -48t5 -60t1 -58.5q0 -25 4 -85t8 -129t9.5 -129.5t7.5 -84.5h30l490 246q31 39 70.5 72.5t80.5 65.5t81 65.5t73 70.5h92v-123q0 -14 -39 -54t-90 -84t-102 -83t-74 -53q-18 -12 -65.5 -39 t-101.5 -55.5t-102 -55t-67 -35.5l856 -458q14 -2 59.5 -5t94.5 -15.5t87 -35t38 -65.5q0 -18 -4 -34.5t-31 -27.5q-8 0 -27.5 -1t-41 -1t-41 -1t-27.5 -1q-109 0 -208 35t-192.5 86t-184.5 111.5t-186.5 112t-195.5 86t-211 34.5q-4 0 -15 -1t-16 -1q-3 -22 -3 -57v-18 q1 -48 2 -106v-19q0 -48 -4 -100q-5 -62 -18 -112.5t-41 -82t-75 -31.5q-23 0 -36 3t-21 13t-11.5 29.5t-5.5 52.5q-2 16 -2 78.5v135.5t1 135.5t1 78.5q-2 16 -4 65.5t-5 115t-7 140t-7 140.5t-5 115t-2 65z" />
<glyph unicode="L" horiz-adv-x="1773" d="M59 459v76v99t1 122.5t1 107.5v54v90t5.5 96t17.5 95t39 85q16 25 25.5 29t35.5 4q14 0 38 -4t24 -29v-979q0 -51 34.5 -76.5t84 -35t100.5 -9.5h82q139 0 278.5 9.5t279.5 20.5t279.5 20.5t278.5 9.5h40t24.5 -7.5t12.5 -25.5t3 -57q0 -10 -15.5 -20.5t-31.5 -20.5 q-20 -10 -45 -21q-43 -4 -131 -11t-200 -16.5t-234.5 -19.5t-234.5 -19.5t-200 -16.5t-131 -9h-31h-125.5t-123 12.5t-105.5 44t-74 97.5v74.5t-1 116t-1 114.5z" />
<glyph unicode="M" horiz-adv-x="1863" d="M29 1060v70v55.5t1 83.5t1 83v55q6 27 30.5 30t44.5 3q4 0 24 -2t24 -2q106 -74 202.5 -143.5t194.5 -122t205.5 -84t236.5 -31.5q34 -11 69 -11q36 0 74 12q74 24 147 66.5t136.5 91t108.5 72.5q31 0 58.5 -18.5t48 -47t32.5 -61.5t14 -59q2 -31 9.5 -95.5t16.5 -146.5 t19.5 -172t19.5 -171t16 -145.5t12 -95.5q2 -27 13 -54t21.5 -54t19.5 -54.5t9 -54.5q0 -25 -15.5 -37t-38 -17t-47 -5h-42.5q-47 0 -68 23.5t-37 70.5q-2 27 -6 85.5t-10 130t-12.5 151.5t-12.5 151.5t-12 129t-8 85.5q0 8 -3 33t-11.5 51.5t-22.5 48t-39 21.5 q-49 0 -114.5 -17.5t-136.5 -39t-139.5 -39t-121.5 -17.5q-115 0 -202 40t-168 88t-164.5 88t-188.5 40q0 -180 15.5 -357t15.5 -357q0 -14 -1 -36t-1 -44q-2 -25 -2 -54l-152 -90l-31 29q-2 0 -4 35t-5 91t-6 126t-6 140.5t-5 137t-4 113.5v38t-1 78t-1 88z" />
<glyph unicode="N" horiz-adv-x="1955" d="M31 612q16 29 29.5 83.5t26.5 119t27.5 132t33 122.5t41 91t55.5 36q4 0 16 -2t14 -2q303 -256 643 -461t703 -364q4 0 15.5 -1t15.5 -1q18 0 34.5 4t26.5 28q-39 92 -72.5 208t-59.5 236t-40 231.5t-14 195.5q0 12 3 34.5t11 46t20.5 41t28.5 17.5q14 0 40 -6 t51.5 -18.5t45 -29t19.5 -36.5q0 -37 -16.5 -70t-16.5 -69v-17q0 -6 5 -33.5t10.5 -58.5t9.5 -57.5t6 -32.5v-31q20 -76 48 -166t51.5 -186t39.5 -194.5t16 -190.5q0 -31 -3 -58.5t-14 -49t-31.5 -34t-57.5 -12.5q-78 0 -147.5 49.5t-116.5 106.5l-1192 643h-6h-6q-2 0 -2 2 q-18 0 -33 -28.5t-25 -63.5t-15 -63.5t-5 -30.5q0 -16 4 -79t10 -135.5t11 -135t5 -78.5v-107v-106q-4 -16 -18 -23.5t-32 -9.5q-12 -1 -22 -1h-12q-16 1 -22 1q-10 0 -38 1t-38 1z" />
<glyph unicode="O" horiz-adv-x="1558" d="M31 641q0 90 35.5 173t96 154.5t140.5 130t167 100.5t175 64.5t168 22.5q168 0 297 -56t216 -157.5t131 -240t44 -300.5q0 -270 -154.5 -402t-439.5 -132q-82 0 -179 19.5t-194.5 57.5t-188.5 93t-160.5 126t-111.5 158t-42 189zM242 639q0 -72 32.5 -133.5t87 -112.5 t123 -91t141 -66.5t142.5 -41t127 -14.5q98 0 183 17.5t147.5 59.5t101.5 113.5t49 180.5q2 24 2 48q0 97 -34 179q-42 102 -118.5 173t-181 110t-219.5 39q-88 0 -190.5 -36t-189.5 -97.5t-145 -145.5t-58 -182z" />
<glyph unicode="P" horiz-adv-x="1253" d="M24 354q1 58 3 104.5t2 69.5q0 31 1 92.5t7 136t16 152.5t29.5 141.5t47.5 104.5t69 41q2 0 4 -1t6 -1q4 -2 6 -2q4 -2 13.5 -10t18.5 -18.5t17 -19.5t10 -14q-27 -59 -39 -95t-17 -60.5t-4 -43t4 -42t7 -58t4 -92.5q55 0 134 7.5t166 24.5t173 46t155 72t112 100.5 t43 132.5q0 49 -56.5 83t-144.5 56.5t-193.5 34t-205 16.5t-178 5t-111.5 -2q-27 10 -31 26.5t-4 34.5q0 35 12.5 53.5t53.5 36.5q8 0 32.5 1t51 1t50 1t34.5 1q88 0 157.5 -3t139 -10t147.5 -19.5t182 -30.5q57 -35 102.5 -55.5t78 -47t50 -69.5t17.5 -125q0 -104 -51 -183 t-134 -136.5t-188.5 -97.5t-214 -66.5t-212 -44t-181.5 -31.5v-109q0 -53 1 -96t4 -85t8 -89t16 -111q-16 -27 -46 -44t-61 -17q-37 0 -60.5 33t-35.5 85t-15 114q-2 47 -2 92v30z" />
<glyph unicode="Q" horiz-adv-x="1619" d="M59 508q0 109 29 207t82 184t126 160t163 133l123 61q4 2 15 14.5t15 16.5h49t73 1t73 1h49q186 0 324.5 -37t230.5 -122t137 -223t45 -341q0 -133 -28.5 -223t-87 -154.5t-144.5 -113.5t-203 -103q16 -51 39 -96t48.5 -89l51 -88t46.5 -93q-25 -23 -45.5 -28t-48.5 -5 q-63 0 -103.5 48t-71 110.5t-60 124t-68.5 86.5q-135 8 -286 35.5t-279 91t-211 170t-83 272.5zM242 467q0 -68 31.5 -121t83 -92t117 -64.5t134 -41t134 -22.5t118.5 -7q0 90 -18.5 176t-18.5 178v21.5t1 33t1 32.5v22q2 6 9.5 15t17.5 18.5t19.5 17.5t15.5 8q10 2 20 2 q28 0 45 -23q23 -32 33 -86.5t14.5 -120t12.5 -124t23.5 -97t47.5 -38.5q94 0 162 42t111 107.5t62.5 146t19.5 160.5q0 156 -35 261.5t-105.5 171t-176 94t-247.5 28.5q-129 0 -243.5 -63.5t-200.5 -162.5t-137 -224t-51 -248z" />
<glyph unicode="R" horiz-adv-x="1894" d="M59 287v49q0 258 38 458.5t142.5 344t290 226.5t480.5 101q45 -12 79.5 -37.5t58 -60.5t36 -76t12.5 -84q0 -82 -44 -153.5t-108.5 -132t-141.5 -112.5t-141.5 -94t-108.5 -76t-44 -58q0 -39 30 -79t76 -78t102 -72t110.5 -61.5t100.5 -48t73 -30.5h54t84 -1t83 -1h55 q131 0 250 19.5t246 19.5q0 -66 -36 -110t-92 -72.5t-126 -42t-139.5 -19.5t-130 -6h-97.5q-129 0 -254 41t-238.5 109.5t-213 156.5t-178.5 182h-107v-335q0 -4 -12 -16.5t-28.5 -27t-35 -28.5t-30.5 -21q-6 -2 -13 -2q-4 -2 -9 -2h-7q-20 0 -36.5 4.5t-27.5 30.5v49t-1 73 t-1 73zM303 793q0 -41 31 -51.5t63 -10.5q47 0 108.5 19.5t127 52.5t129 78t113 96t80 105.5t30.5 109.5q0 47 -15.5 69.5t-68.5 22.5q-102 0 -208.5 -32.5t-192.5 -96t-141.5 -154.5t-55.5 -208z" />
<glyph unicode="S" horiz-adv-x="1558" d="M59 352q0 33 4.5 55.5t28.5 51.5q61 -37 89 -74t47.5 -70.5t42 -63.5t72.5 -51.5t137 -33.5t239 -12q33 0 90 1t123.5 8t135.5 20.5t125 39t92 65.5t36 97q0 8 -2 23.5t-4 19.5l-154 154l-1007 274q-27 6 -41.5 21.5t-20.5 36t-6 42v41.5q0 86 57.5 147.5t147.5 104.5 t200.5 67.5t218 39t199.5 18.5t146 4h32.5t51 -1t50 -1h34.5q29 -8 31.5 -31.5t2.5 -46.5q0 -43 -57 -63.5t-148 -31.5t-202 -20t-216.5 -27.5t-194.5 -51.5t-134 -94l62 -31l886 -246q55 -14 101.5 -57t78 -98.5t50 -116t18.5 -109.5q0 -78 -32.5 -135t-87 -96t-123 -63.5 t-141.5 -38t-143.5 -17.5t-125.5 -4q-61 0 -143 1t-170.5 10t-173.5 29.5t-152.5 59.5t-108.5 100.5t-41 153.5z" />
<glyph unicode="T" horiz-adv-x="1986" d="M59 1208q0 51 35 81t89.5 45.5t120.5 19.5q53 3 104 3h26q62 -1 114 -5t79 -4q313 0 635.5 -25t633.5 -39q4 -2 13.5 -10t18.5 -18.5t17.5 -19.5t10.5 -13q0 -2 2 -6v-7q0 -2 2 -2q0 -2 -1 -4t-1 -6q-2 -4 -2 -6q-4 -6 -13.5 -17.5t-18.5 -20.5t-17.5 -16.5t-10.5 -7.5 h-718q0 -61 -13.5 -116.5t-32 -109.5t-36 -111.5t-25.5 -120.5v-31q-2 -33 -6 -116t-8 -175t-9.5 -174t-7.5 -115q-23 -51 -70.5 -65t-95.5 -14q0 136 -7 286q-3 64 -3 128q0 86 6 174q10 152 46 296t124 264l-122 31q-6 0 -38 1t-72 2t-81 2t-63 1q-147 0 -282.5 -18.5 t-277.5 -18.5q-33 0 -39 26t-6 52z" />
<glyph unicode="U" d="M29 987v68t4 93t13 102.5t26.5 94t44 68.5t67.5 27q27 0 40.5 -15.5t18.5 -37t5 -45v-39.5q0 -66 -5 -114t-28 -120q12 -100 22.5 -205.5t29 -205t51 -186.5t88 -151.5t138.5 -102.5t206 -38q59 0 132.5 7.5t142.5 30t123 65.5t75 114q0 14 1 49t1 74t1 74t1 47 q0 80 -15.5 152.5t-34 143.5t-34 141.5t-15.5 144.5q0 39 8.5 66.5t55.5 27.5q57 0 95 -44t62.5 -113.5t37 -154.5t17.5 -165t5 -146.5v-99.5q0 -164 -54.5 -276.5t-149.5 -183.5t-228 -102.5t-289 -31.5q-129 0 -227.5 43t-172 116.5t-122.5 171t-80 207t-44 225t-13 224.5 z" />
<glyph unicode="V" horiz-adv-x="1527" d="M29 1253q0 63 63 64q78 0 136.5 -64.5t105.5 -165t87 -221.5t82 -232.5t90 -201.5t109 -127l246 459l15.5 15.5l15.5 15.5q14 20 46 63t71 97.5t82 113.5t82.5 113.5t70.5 98.5t45 65q2 0 14.5 1t16.5 1q47 0 70.5 -33t23.5 -78q0 -4 -2 -22.5t-2 -22.5q-12 -20 -41 -61 t-65.5 -92.5t-76.5 -108t-76 -107.5t-64.5 -92t-43.5 -59q-2 -4 -14 -15.5t-16 -15.5l-305 -580q0 -2 -14.5 -10t-35 -18t-41 -19.5t-32.5 -13.5q-2 0 -15.5 -1t-19.5 -1h-14q-6 0 -11 2l-489 1038q-16 18 -32.5 45t-30 56.5t-22.5 59.5t-9 54z" />
<glyph unicode="W" horiz-adv-x="2291" d="M59 1329q0 37 11.5 58.5t52.5 21.5q23 0 43 -12.5t35.5 -30.5t27 -40.5t17.5 -41.5q39 -127 65.5 -232.5t47 -210t37 -218t32.5 -256.5l31 -62q25 10 50.5 24.5t41.5 37.5t49 70.5t75 108t88 127t89 127t77 108.5t50 71q27 35 42 49t50 14q33 0 83 -49t109.5 -125.5 t124 -169t125 -177.5t112.5 -152.5t87 -94.5q2 0 7 -1t7 -1h11q4 0 6 2q4 4 15 15.5t16 15.5l335 1161q10 41 17.5 53.5t40.5 12.5q27 0 46 -14.5t30.5 -36t16.5 -46t5 -46.5q0 -49 -23.5 -171t-64.5 -277t-94 -321.5t-110.5 -305t-117 -227.5t-112.5 -89q-4 0 -16.5 1 t-14.5 1q-92 84 -172 172t-153.5 179t-143 186.5t-143.5 195.5q-4 4 -15.5 16.5t-13.5 14.5q-2 0 -6 2q-4 0 -6 1t-4 1q-41 0 -89 -57.5t-102.5 -142.5t-114 -184t-123 -184t-129 -142.5t-130.5 -57.5q-2 0 -10.5 7t-18.5 16.5t-19.5 20.5t-13.5 17q-2 4 -2 15.5t2 15.5 l-213 1131q-25 29 -29 51t-4 55z" />
<glyph unicode="X" horiz-adv-x="1619" d="M31 1223q0 6 8 15t17.5 19.5t19.5 17.5t16 9q6 0 19.5 -3t28 -7t27.5 -10.5t17 -10.5l428 -428h60q63 70 156.5 165t197.5 181t214 146.5t210 60.5q16 0 35.5 -1t37 -7t29 -18.5t11.5 -34.5q0 -29 -6.5 -49.5t-28.5 -44.5q-33 -10 -100.5 -48t-148.5 -89.5t-167 -112 t-156.5 -117.5t-115.5 -106.5t-45 -77.5v-31q0 -16 31.5 -52t81.5 -80t110.5 -91t120 -86t110.5 -64.5t80 -25.5q23 0 37 6t26.5 12t27 12.5t36.5 6.5q45 0 60.5 -28t15.5 -71q0 -41 -24.5 -64.5t-60.5 -36.5t-75 -17.5t-67 -4.5q-55 0 -118 27t-127.5 70t-127 95 t-117.5 103t-100 96.5t-72 71.5q-121 -111 -229.5 -218t-198.5 -241q-16 -25 -20.5 -37t-7.5 -18t-11 -7t-35 -1q-55 0 -69.5 20.5t-14.5 75.5q0 51 35 110.5t86 121t109.5 119t106.5 105.5t76 80t19 42l-428 458q-4 4 -10 17.5t-10 28t-7 28t-3 19.5z" />
<glyph unicode="Y" horiz-adv-x="1314" d="M0 1620q0 59 14.5 79.5t61.5 20.5q4 0 23.5 -3t23.5 -5q31 -45 72 -108.5t91 -131t107.5 -135t118.5 -121t124.5 -86t127.5 -32.5q4 0 16.5 1t14.5 1q8 14 22 42.5t32.5 64.5t39 76t38 77t32 64.5t20.5 41.5q10 20 20.5 60.5t24.5 88.5t32.5 98t41 91t49.5 67.5t61 26.5 q0 -2 2 -2h7q4 -2 6 -2q4 -2 13 -10t19.5 -17t18.5 -18.5t10 -13.5q-59 -229 -145 -452.5t-191 -434.5v-61q-23 -27 -72 -102.5t-108 -174t-124.5 -207t-122 -198.5t-97.5 -148.5t-53 -58.5q-53 0 -60.5 30.5t-7.5 77.5q0 10 1 39t1 39q12 20 37 65.5t55.5 103t63.5 121 t63.5 120.5t54 102t33.5 68q4 8 13.5 29.5t18.5 46t17.5 46t10.5 32.5q-39 49 -104.5 99t-140.5 102t-150.5 108.5t-137 118t-100.5 129t-39 145.5z" />
<glyph unicode="Z" horiz-adv-x="2291" d="M31 123q0 4 8 17.5t17.5 27.5t19.5 26.5t16 18.5l764 705q23 12 61.5 37.5t84 58.5t90.5 69.5t81.5 71.5t60 64.5t23.5 48.5q0 4 -2 8t-2 8q-37 3 -86 3q-41 0 -91 -2q-109 -5 -232 -9q-82 -3 -165 -3q-42 0 -84 1q-126 2 -226.5 24.5t-164 69.5t-63.5 133q10 0 38 -1 t59.5 -1t59.5 -1t38 -1q45 0 138 -2t211 -5t248 -6t247.5 -7t210 -6.5t137.5 -4.5q41 -18 53 -36.5t12 -53.5q0 -59 -73.5 -146t-190.5 -191.5t-261 -217t-283.5 -222.5t-259 -210t-189.5 -176h92q207 0 417 19.5t420 42t417.5 42t410.5 19.5q68 0 104.5 -30t36.5 -95 q0 -23 -76.5 -44.5t-205.5 -41t-296 -36.5t-347.5 -30.5t-361.5 -24.5t-336.5 -19.5t-272.5 -12.5t-170 -4h-21.5t-32 1t-31.5 1h-22q-4 6 -10 22.5t-10 36t-7 38t-3 26.5z" />
<glyph unicode="[" horiz-adv-x="1161" d="M29 146.5v52.5q0 70 14 130t18 130q2 35 9.5 140.5t16.5 246.5t19.5 300t20.5 301t17.5 247.5t9.5 140.5q0 8 -2 22.5t0 29t8 25.5t24 13l703 92q6 2 19.5 -8t27.5 -24.5t27.5 -31t17.5 -28.5q8 -18 -6.5 -38.5t-37 -38t-46 -30t-33.5 -14.5q-16 0 -79.5 3t-141.5 2 t-153.5 -9t-114.5 -26q-8 -4 -18.5 -73t-20 -179.5t-19.5 -249.5t-19 -283.5t-17.5 -283t-14.5 -247t-10 -176t-4 -69.5h23.5t38 -1t37.5 -1h24q86 0 168.5 19.5t164.5 43t163 43t161 19.5q39 0 75 -25.5t36 -66.5q0 -39 -15.5 -62.5t-50.5 -58.5q-131 -35 -232.5 -59.5 t-192.5 -40t-182 -22.5t-202 -7q-10 0 -33.5 1t-50 2t-51.5 2t-33 1q-25 12 -38 35.5t-19 52.5t-6 58.5z" />
<glyph unicode="\" horiz-adv-x="1284" d="M0 1681q0 10 7 25.5t18.5 31t24.5 26t26 10.5h16q6 -4 29.5 -15.5t32.5 -15.5q10 -18 34.5 -54t54 -81t62.5 -95.5t63.5 -95.5t54 -81t36.5 -52q2 -4 14 -16.5t16 -14.5l549 -764q20 -55 54 -103t69 -95t69 -95.5t54 -103.5q-8 -6 -29.5 -19.5t-46 -27.5t-47 -27.5 t-31.5 -17.5q-2 -2 -6 -2h-8q-35 0 -72.5 46t-69.5 104.5t-56.5 113.5t-30.5 74l-856 1253q-4 4 -9.5 17.5t-10.5 28t-8 27.5t-3 19z" />
<glyph unicode="]" horiz-adv-x="1038" d="M-2 111q0 35 44 55t111.5 33.5t145.5 21.5t146.5 18.5t115.5 25t51 40.5q25 166 46.5 344t38 359.5t26.5 359.5t10 344v31q-66 16 -155 15t-181 1t-174 16.5t-131 59.5q2 20 5 48t12.5 51.5t26 40t44.5 16.5q90 0 190.5 -9.5t201 -21.5t196.5 -22.5t180 -12.5 q25 -29 29 -51.5t4 -54.5q0 -41 -6 -69t-27 -69q-23 -150 -50.5 -342t-48 -398t-29.5 -410.5t5 -376.5q-41 -55 -126 -87t-182 -47.5t-192.5 -18.5t-156.5 -3h-21.5t-32 1t-31.5 1h-22q-27 16 -45 48t-18 63z" />
<glyph unicode="^" horiz-adv-x="978" d="M29 1407q0 55 17 133t48 163t74 169t95 150.5t110.5 108.5t122.5 42q18 0 41.5 1t44 -4t38 -18.5t23.5 -42.5q14 -92 45 -185t72 -182t89 -173t99 -162q-31 -49 -53.5 -72.5t-65.5 -23.5t-79.5 46t-69.5 114.5t-61.5 148.5t-54 148.5t-48 114.5t-43.5 46q-57 0 -90 -48 t-53.5 -119.5t-35.5 -154.5t-39 -155t-60.5 -120t-102.5 -48q-16 0 -27.5 15.5t-19.5 35t-12 40t-4 32.5z" />
<glyph unicode="_" horiz-adv-x="1345" d="M58 105.5q1 15.5 1 25.5q0 45 33 64.5t77 24.5t91 1t76 -4q117 0 221.5 -2t209.5 -7t216 -11.5t240 -12.5q6 -2 16 -9t19.5 -17.5t17.5 -19.5t8 -15q0 -4 -11 -27.5t-20 -34.5q-2 -4 -14 -16t-16 -14q-61 -12 -105.5 -18.5t-83.5 -9.5t-80 -3h-94q-96 0 -192.5 6 t-192.5 13.5t-191.5 11.5t-191.5 0q-16 2 -23.5 15t-9.5 28.5t-1 31z" />
<glyph unicode="`" horiz-adv-x="1705" d="M211 1761q0 16 4 36t13.5 36t23.5 27.5t37 11.5q2 0 4 -1t6 -1q4 -2 6 -2q4 -2 13.5 -10.5t19.5 -18.5t18.5 -19.5t10.5 -13.5q115 -63 200.5 -101t158.5 -61.5t138.5 -37t139 -28.5t161.5 -37.5t207 -61.5q53 -16 90 -56.5t37 -99.5q-63 -23 -149 -20.5t-182.5 18.5 t-195 43t-183 55.5t-149.5 53t-93 36.5q-14 6 -28.5 11.5t-34 14.5t-47 22.5t-70.5 35.5q-25 12 -52.5 28.5t-50 38t-38 46.5t-15.5 55z" />
<glyph unicode="a" horiz-adv-x="1597" d="M29 489q0 90 54 164t135 126t174 80t171 28q33 0 85 -5t112.5 -16.5t124 -30t116 -45t88 -64.5t41.5 -85q-2 -14 -7 -53t-9 -83t-8 -83t-6 -55v-19q0 -70 29.5 -104.5t75.5 -49t98.5 -14.5h99.5q49 0 61.5 1t16.5 1t16 1t59 1q41 0 62.5 -14t21.5 -66q0 -53 -34.5 -75.5 t-80.5 -29.5q-32 -5 -66 -5q-15 0 -29 1q-48 3 -72 3q-72 0 -136.5 24.5t-117.5 54t-97 54.5t-75 25q-49 0 -103.5 -15.5t-109.5 -34t-112.5 -34t-114.5 -15.5q-94 0 -178.5 30t-148 86t-100 136t-36.5 180zM211 459q0 -78 31.5 -121t82 -64.5t111 -26.5t115.5 -5 q20 0 72.5 3t107.5 13t101.5 28.5t54.5 49.5l61 246q1 5 1 11q0 29 -36 49q-43 24 -102 38t-113.5 20.5t-66.5 6.5q-57 0 -130 -9.5t-137.5 -37t-108.5 -75.5t-44 -126z" />
<glyph unicode="b" horiz-adv-x="1435" d="M59 1272q0 47 18.5 61.5t65.5 14.5q55 0 82 -43t37 -109t12 -141.5t9.5 -141t27 -108.5t66.5 -43q70 0 138.5 10t138 22.5t138 22.5t140.5 10h32.5t52 -1t51.5 -1h32q72 -39 123 -96t87 -124.5t58.5 -144.5t38.5 -155q-16 -70 -64.5 -120t-115 -83.5t-146.5 -54 t-158.5 -32t-152.5 -14.5t-127 -3t-95 1t-83 4t-86.5 9.5t-104.5 18.5q-23 14 -38 40.5t-26 57.5t-17.5 61.5t-8.5 53.5q-4 33 -14 106.5t-21.5 167.5t-25.5 200.5t-25.5 205t-21.5 178.5t-15 121q0 4 -1 22.5t-1 26.5zM365 442q0 -137 53 -199.5t190 -62.5q31 0 86.5 1 t121 6.5t133 17.5t122.5 32.5t90 51t35 76.5q0 68 -25.5 120t-68.5 87.5t-100.5 54t-118.5 18.5q-66 0 -134.5 -4t-136 -18.5t-130 -39t-115.5 -63.5q0 -10 -1 -39t-1 -39z" />
<glyph unicode="c" horiz-adv-x="1435" d="M29 483q0 135 69.5 221.5t175 133.5t229.5 64.5t230 17.5h37t55.5 -1t55 -1h37.5q61 -10 79.5 -37t18.5 -68q0 -53 -32 -83t-83 -30q-31 0 -43 10.5t-19.5 24t-19.5 23.5t-45 10q-47 0 -107.5 -5t-123 -17.5t-123 -35t-106.5 -57.5t-74.5 -84t-28.5 -114q0 -59 34 -105.5 t87 -80t119.5 -56.5t133 -37t126 -20t100.5 -6q84 0 161 26.5t150.5 57t145 57t147.5 26.5q0 -117 -65.5 -181t-161.5 -95t-206 -37t-200 -6q-78 0 -164 8t-168.5 28.5t-159.5 55.5t-134.5 88t-92 129t-34.5 176z" />
<glyph unicode="d" horiz-adv-x="1497" d="M29 434q0 117 58 198t149.5 130t200 71.5t206.5 22.5q133 0 269.5 -42t248.5 -112v582q0 41 15.5 52.5t44.5 11.5q33 0 58 -50.5t43.5 -134.5t33 -193.5t25 -227t16.5 -236.5t10 -221.5t5 -179t1 -113.5q-53 0 -88 16.5t-62.5 34.5t-52 34.5t-57.5 16.5 q-102 0 -199.5 -18.5t-201.5 -18.5q-68 0 -148 2t-159.5 13.5t-154.5 35t-133.5 65.5t-93 105.5t-34.5 155.5zM211 434q0 -59 35 -99t90 -64.5t124.5 -37t139.5 -17.5t132.5 -5h103.5q4 0 28.5 -1t61.5 -1t77.5 2t75.5 9t58.5 20.5t23.5 33.5v338q-29 -33 -57.5 -49 t-67.5 -16q-4 0 -35.5 20.5t-83 44t-120 44t-144.5 20.5q-53 0 -128.5 -10.5t-145.5 -38t-119 -74.5t-49 -119z" />
<glyph unicode="e" horiz-adv-x="1527" d="M59 553q0 106 59.5 205.5t151.5 175.5t204 121t214 45q80 0 160 -21.5t143.5 -64.5t103.5 -108.5t40 -153.5q0 -41 -6.5 -63.5t-20.5 -40t-37.5 -32t-60.5 -34.5q-18 -6 -56.5 -16.5t-87.5 -23t-101 -25.5t-101.5 -25.5t-87 -20.5t-56.5 -12q-8 -2 -39.5 -6t-67.5 -8.5 t-68 -9.5t-40 -7q-6 -4 -18.5 -15.5t-12.5 -15.5q0 -61 35 -104t89.5 -70.5t122 -42t133 -21.5t121.5 -8t91 -1q156 0 308.5 18t306.5 18v-25.5t-4 -40t-13.5 -37.5t-25.5 -22q-121 -23 -212 -36t-174 -19t-169 -7t-195 -1h-51t-78 1t-79 1h-52q-98 25 -168 81t-115 131 t-65.5 163t-20.5 178zM268 606h125t142.5 6t141 20.5t122 44.5t86.5 76t33 117v17q-4 4 -15.5 15t-15.5 16q-6 0 -23.5 1t-38 2t-38 2t-23.5 1q-59 0 -144 -19.5t-163 -59.5t-133.5 -99.5t-55.5 -139.5z" />
<glyph unicode="f" horiz-adv-x="1130" d="M59 981q0 117 6.5 234.5t28 226t61.5 203t108.5 165t167.5 110.5t239 40q84 0 161.5 -19.5t138 -62.5t97.5 -110.5t37 -161.5q0 -23 -5 -58t-18.5 -67.5t-35 -55t-52.5 -22.5q-4 0 -8 2q-4 0 -6 2q-4 2 -16.5 14.5t-14.5 16.5q2 10 7.5 35.5t9.5 55.5t8 55.5t6 35.5v35 q0 49 -35 79.5t-84 47t-101 22.5t-85 6q-115 0 -191.5 -40.5t-127 -109.5t-77 -158t-40 -184t-16.5 -191.5t-7 -178.5q10 -27 23.5 -51.5t35.5 -40.5q100 4 206 4q71 0 146 -2q185 -4 353 -33q16 -4 24.5 -18t12.5 -31.5t5 -35t1 -25.5q-20 0 -64.5 -1t-100.5 -2t-117.5 -2 t-117 -2t-99.5 -3.5t-64 -2.5h-38t-64.5 -5t-66.5 -17t-44 -37v-12v-19l151 -886q4 -23 -6 -40.5t-27.5 -29.5t-37 -18.5t-35.5 -6.5q-53 0 -91 81t-64.5 209t-41 284.5t-23 306.5t-10.5 275.5t-2 193.5z" />
<glyph unicode="g" horiz-adv-x="1345" d="M53 -760q37 0 71 -35.5t64.5 -83t59 -94.5t57.5 -67q70 -51 152 -87t170 -57.5t178 -32t174 -10.5q6 0 23.5 1t37 1t37 1t23.5 1q47 27 72.5 63t38 79t14.5 89t2 93q0 33 -3 118t-12.5 194.5t-26 232.5t-40 231.5t-57 191.5t-78.5 113q-29 -33 -63 -65.5t-71.5 -58 t-79.5 -42t-89 -16.5q-100 0 -214 22.5t-210.5 75t-160 137t-63.5 207.5q0 119 61.5 199t156 128t204 68.5t207.5 20.5q31 0 77 -1t93 -6t88 -18.5t64 -37.5q4 -6 9 -33t9 -58.5t7 -59.5t5 -34q12 -53 36 -106t50.5 -107.5t53 -107.5t43.5 -107q84 -270 135 -535t51 -550 v-45t-1 -70t-1 -69.5v-45.5q-2 -82 -49 -135t-115.5 -84.5t-144.5 -44t-137 -12.5q-154 0 -315 36t-293 114.5t-216 201.5t-84 297zM242 424q0 -63 37.5 -109.5t93 -76t118 -44t111.5 -14.5q90 0 150.5 22.5t97.5 66.5t53.5 109.5t16.5 151.5q0 51 -18.5 80t-50.5 43.5 t-72 17.5t-83 3q-55 0 -134 -10.5t-149.5 -38t-120.5 -76.5t-50 -125z" />
<glyph unicode="h" horiz-adv-x="1619" d="M29 1544v21.5t1 32t1 32v21.5q6 29 30.5 30.5t44.5 1.5q4 0 24 -1t24 -1q6 -47 22.5 -144t39 -217t50 -246t57 -229.5t60.5 -170t59 -66.5q49 0 111.5 39t133.5 86t152 86t167 39q18 0 49.5 -1t64.5 -4t61.5 -9t41.5 -19l274 -274q29 -29 47.5 -94.5t29.5 -139t15 -142.5 t3 -105q0 -43 -27 -57.5t-68 -14.5q-45 0 -68.5 50t-41 126t-38 163t-62.5 162.5t-112.5 126t-187.5 50.5q-96 0 -164.5 -35t-120 -86t-90.5 -111.5t-75.5 -111.5t-76.5 -86t-93 -35q-41 0 -60.5 29.5t-32.5 64.5q-39 137 -81.5 292t-79.5 314.5t-60.5 320.5t-23.5 312z" />
<glyph unicode="i" horiz-adv-x="368" d="M63 612q0 10 3.5 36t8.5 55.5t10 55t9 36.5q6 4 29.5 7t32.5 3q37 0 63.5 -44t44 -112.5t26.5 -151.5t14 -159t6 -136.5t1 -82.5q0 -13 1 -33v-10q0 -14 -2 -28q-3 -18 -13 -33t-35 -15h-14q-6 0 -19.5 4t-28 9t-27.5 10.5t-17 7.5q-23 61 -40.5 135t-28.5 151.5 t-17.5 153.5t-6.5 141zM121 1409q0 80 96 119q10 4 18 4q13 0 24 -10q17 -16 27.5 -42t15.5 -52.5t5 -36.5q0 -20 -9 -30.5t-23.5 -15t-30 -4.5h-27.5q-41 0 -68.5 10.5t-27.5 57.5z" />
<glyph unicode="j" horiz-adv-x="489" d="M-797 -658.5q0 27.5 3 54t9.5 54.5t20.5 61q2 0 7 2t7 2t4.5 -1t6.5 -1q4 -2 6 -2q4 -2 15 -14.5t16 -16.5q-4 -49 -4 -93q0 -242 122 -370q146 -152 453 -152q135 0 221 59.5t133 154t64.5 212t17.5 236.5q0 150 -25.5 294t-60.5 285.5t-70.5 281.5t-56.5 284 q-2 18 6 34.5t22.5 30t31 21.5t32.5 8q43 0 76 -46t58.5 -119t46 -163t37 -179t29.5 -166t28 -124v-72.5t1 -110.5t1 -110.5v-72.5q0 -109 -5 -217.5t-24.5 -208t-57.5 -184.5t-103.5 -146t-162 -97t-231.5 -36q-143 0 -266 31.5t-214 100.5t-142.5 176t-51.5 259v60.5z M-2 1237q0 37 30.5 58.5t63.5 21.5t62.5 -30t29.5 -64q0 -37 -30.5 -66t-65.5 -29q-41 0 -65.5 35t-24.5 74z" />
<glyph unicode="k" horiz-adv-x="1804" d="M61 565q0 39 32 78t61 59v45t1 70t1 70v45q0 92 -1 164.5t-7.5 142.5t-19.5 145.5t-36 174.5q0 8 9.5 26.5t21.5 35.5q13 17 29 27q10 6 20 5q6 0 12 -2q37 -14 63.5 -74.5t47 -145.5t33 -183.5t20.5 -188.5t12.5 -162t6.5 -102q49 39 105 65.5t113.5 52t112 54 t97.5 71.5q20 20 40.5 56t43 71t51 61.5t63.5 26.5q20 0 30.5 -9t14.5 -23.5t4 -29.5v-30q0 -78 -44 -144.5t-109.5 -120.5t-140 -96t-136.5 -67q125 -145 238 -245.5t237.5 -170t274 -115.5t350.5 -79q39 2 53.5 -15.5t14.5 -46.5q0 -4 -3 -16t-3 -14q-59 -23 -100.5 -28 t-98.5 -5q-74 0 -156 6t-163.5 19.5t-160.5 38t-147 61.5q-70 37 -126 104.5t-114.5 133t-125 113.5t-156.5 48q-14 0 -36.5 -4t-22.5 -29v-428q0 -4 -24 -15t-38 -15h-14h-17q-25 10 -45 20q-16 10 -30.5 20.5t-14.5 20.5v367q-4 2 -24.5 13t-42 26.5t-39 33t-17.5 33.5z " />
<glyph unicode="l" horiz-adv-x="825" d="M29 522q0 168 13 317.5t27.5 298t22.5 302.5q4 77 4 160.5t-4 173.5q2 10 9.5 25.5t17.5 30.5t22.5 26.5t26.5 11.5q41 0 64.5 -40t35.5 -100q13 -62 16 -134q2 -54 2 -105v-33q-1 -66 -4 -118t-3 -70q0 -184 -18.5 -365.5t-18.5 -367.5v-51.5t1 -78t1 -78.5v-53 q2 -27 19.5 -47t42 -35.5t50 -24.5t41.5 -13q12 0 42 -1t64 -1t65.5 -1t43.5 -1q80 0 116 4t63.5 10t63.5 10t116 4q0 -102 -41 -143q-42 -41 -106 -49q-29 -4 -60 -4q-39 0 -81 6q-77 10 -148 10h-45t-70 1t-70 1h-45q-96 16 -151.5 69.5t-83 126t-34.5 158.5t-7 168z" />
<glyph unicode="m" horiz-adv-x="2445" d="M59 901v21.5t1 33t1 33v21.5q10 25 26.5 28.5t35.5 3.5q39 0 61.5 -32.5t34.5 -74.5t17.5 -83t9.5 -57h28q203 274 537 274q113 0 189.5 -49t130 -124t88 -167t65.5 -178h31q70 63 142.5 123.5t150.5 108.5t165 77t187 29q78 0 142.5 -48t115.5 -126t89 -175.5 t63.5 -197.5t38 -192.5t12.5 -157.5q-88 0 -139.5 30.5t-80 81t-42 115t-22.5 131t-22.5 131t-43 114.5t-83 81t-141.5 31q-92 0 -160.5 -39t-124 -97.5t-103.5 -127t-99 -127t-110.5 -97.5t-139.5 -39q0 59 -3 134t-14.5 154t-35 154.5t-64.5 135t-101.5 95.5t-146.5 36 q-104 0 -182 -49t-129 -128t-75.5 -175.5t-24.5 -188.5q-39 0 -61.5 -8t-42 -19.5t-42 -19.5t-59.5 -8q0 78 -11.5 153.5t-23.5 151.5t-23.5 150.5t-11.5 152.5z" />
<glyph unicode="n" horiz-adv-x="1406" d="M52 410q7 72 7 125v52t1 79t1 77.5v51.5q10 25 26.5 28.5t35.5 3.5q27 0 47 -33.5t34.5 -79.5t25 -92.5t16.5 -70.5q37 6 67.5 30.5t63.5 58.5t70.5 72t89 70.5t118 54t156.5 21.5q178 0 288.5 -75.5t172 -198.5t84 -280t22.5 -316q-96 0 -146 29.5t-72.5 77.5t-26 109.5 t-4.5 126t-8 127t-36.5 110.5t-92 78t-175.5 30q-109 0 -192.5 -41t-148 -102.5t-109.5 -133t-77 -133t-49.5 -102.5t-25.5 -41q-84 0 -118 44q-34 43 -43 107q-5 36 -5 74q0 31 3 62z" />
<glyph unicode="o" horiz-adv-x="1314" d="M59 373q0 104 38 216.5t107.5 206t169 154t222.5 60.5q174 0 294 -34t194.5 -105.5t108.5 -181t34 -261.5q0 -10 -1 -35.5t-1 -55.5t-1 -56.5t-1 -36.5q-23 -80 -86.5 -128t-143.5 -74t-165 -35t-152 -9q-96 0 -205 12.5t-200 51t-151.5 113.5t-60.5 198zM215 412 q0 -82 49 -133.5t120 -80t148.5 -38.5t137.5 -10q55 0 98 1t84 10t85 28.5t103 54.5q29 49 31 97t2 101q0 106 -39 188.5t-108 133.5q-70 52 -166 68q-40 7 -83 6q-60 0 -126 -13q-49 -10 -107.5 -57t-109.5 -109.5t-85 -129t-34 -117.5z" />
<glyph unicode="p" horiz-adv-x="1327" d="M86 738q10 130 58.5 213t159.5 117q79 24 194 24q49 0 106 -4q187 -15 477 -78q68 -37 106 -80t55.5 -94.5t21.5 -114t4 -135.5q0 -82 -56.5 -143.5t-144.5 -107.5t-196.5 -77t-214 -52.5t-196.5 -33.5t-143 -18q-12 -20 -17 -86t-6 -156v-46q0 -70 2 -148 q3 -103 6 -199.5t4 -176.5v-31q0 -59 -3 -95q-2 -31 -7 -78t-10 -90t-10 -75l-4 -32h-159q31 281 31 526v63q-5 271 -21.5 496.5t-31.5 403.5q-9 107 -9 196q0 60 4 112zM195 640q2 -126 104 -321q53 0 133 6.5t167 20.5t174 40t156.5 64.5t112.5 92t43 125.5q8 34 8 61 q0 30 -10 51q-18 39 -64 61.5t-114.5 34t-150.5 23.5q-110 21 -205 21q-45 0 -86 -4q-129 -15 -199 -82q-69 -66 -69 -187v-7z" />
<glyph unicode="q" horiz-adv-x="1222" d="M61 414q0 102 68 179t165 128t204.5 76.5t185.5 25.5q72 0 151.5 -13t147.5 -46t112 -89.5t44 -142.5v-26.5t-1 -33.5t-2 -31.5t-3 -18.5l-275 -1153q125 135 221.5 235.5t170 157.5t128.5 68q11 1 20 1q45 0 83 -38q0 -14 -32 -52t-81 -91.5t-110.5 -116t-121 -126 t-109.5 -124t-77 -107.5q-35 -57 -49 -97t-31.5 -65.5t-49.5 -38t-99 -12.5q-29 0 -39 19t-10 39q0 8 2 19t2 16l182 1069v118q-66 0 -130 -13t-130 -13q-78 0 -171 9t-175 40t-136.5 89t-54.5 159zM244 426q0 -29 17.5 -49.5t42 -34.5t51 -24.5t44.5 -18.5h37t55.5 -1 t55 -1h37.5q86 0 154.5 4t115.5 28.5t72.5 79t25.5 154.5q0 43 -22.5 64.5t-56 31t-74.5 9.5h-78q-45 0 -125 -13.5t-159 -42t-136 -74.5t-57 -112z" />
<glyph unicode="r" horiz-adv-x="1435" d="M59 647v10v11q0 2 2 4q35 35 58.5 50t64.5 15q14 0 23.5 -6t16.5 -12t15.5 -12.5t20.5 -6.5q6 0 35 30t77 74t115.5 96t153.5 96t189.5 74t224.5 30h16q14 -4 54 -12.5t83 -17.5t82 -18.5t56 -13.5q4 -2 13 -10t19.5 -17.5t18.5 -18.5t10 -13v-6q0 -4 1 -6t1 -4t-1 -3.5 t-1 -5.5v-6q-4 -8 -15.5 -19t-15.5 -11h-551q-72 0 -151.5 -40t-148 -101.5t-113.5 -137.5t-45 -150v-446q-33 0 -51.5 -7t-31 -15.5t-23.5 -15.5t-32 -7h-8q-4 0 -6 2q-8 2 -19.5 14.5t-11.5 16.5l-92 581q-4 2 -16.5 13.5t-14.5 15.5q-2 2 -2 6z" />
<glyph unicode="s" horiz-adv-x="1435" d="M0 856q0 53 57.5 98t146.5 83t199.5 68t218 50.5t199.5 30.5t146 10q37 0 69.5 -25.5t32.5 -70.5q0 -37 -19.5 -54.5t-48 -23.5t-60.5 -7t-54 -5q-51 -10 -129 -24.5t-152 -30t-126 -26.5l-52 -11v-35q59 0 150.5 -3t192.5 -16.5t204.5 -39t185.5 -71.5t134.5 -115 t52.5 -165q0 -131 -74 -222t-183.5 -147.5t-237.5 -81t-237 -24.5q-47 0 -97 8t-91 29.5t-67.5 60t-26.5 97.5v65.5t6 78.5t23.5 65.5t52.5 27.5q0 -2 2 -2h4h6l61 -244q2 -10 13.5 -17t26 -11t28.5 -5t25 -1q4 0 15 2t15 2q20 4 72.5 17t111 27.5t110.5 27t73 18.5 q18 25 49 43t61.5 37.5t53 42t22.5 57.5q0 80 -40 125t-100 69.5t-131 34t-130 19.5q-27 4 -81 11t-124 16.5t-145.5 19.5t-145 19.5t-125 15.5t-82.5 10q-18 12 -39.5 43t-21.5 49z" />
<glyph unicode="t" horiz-adv-x="1619" d="M61 870v17q8 12 22.5 30.5t29 35t27 28.5t14.5 12h290v473q0 12 9.5 18.5t21.5 10.5t25.5 5t19.5 1q51 0 74.5 -35.5t31.5 -89.5q7 -43 7 -92v-24q-2 -62 -2 -116t7 -92t36 -42q27 -2 96.5 -10.5t147 -18.5t146.5 -19.5t97 -13.5q8 -2 26.5 -6t38 -8t36 -9t22.5 -7 q6 -4 18.5 -15.5t12.5 -15.5q0 -25 -12.5 -42.5t-31 -28.5t-40 -16t-39.5 -5q-6 0 -34 5t-58.5 10t-57 10t-32.5 5h-32t-58.5 1t-63.5 1h-49h-33.5t-43 -1t-38 -1h-18.5l-31 -30q0 -4 -1 -23.5t-2 -44.5t-2 -51.5t-1 -40.5q0 -170 34 -267.5t106.5 -145.5t188 -60t279.5 -12 q18 0 50 1t63 1t54.5 1t25.5 1t15 5t28.5 10t29 10t17.5 5q14 0 22.5 -11t10.5 -24.5t2 -28v-20.5q0 -51 -22.5 -74.5t-102.5 -25.5h-53t-78 -1t-78 -1h-51q-178 0 -302 12.5t-206 46t-128 92t-68.5 149.5t-28 218t-5.5 301q-88 0 -163.5 -12t-157.5 -12q-35 0 -46.5 24.5 t-11.5 52.5z" />
<glyph unicode="u" horiz-adv-x="1925" d="M29 446v88.5t2 121t11 134t25.5 127t45 100.5t71.5 52q7 2 13 2q15 0 27 -10q18 -14 29 -35.5t17 -44.5t4 -33q0 -8 -9 -39.5t-20.5 -67.5t-20.5 -68t-9 -40q0 -2 -1 -24.5t-1 -52t-1 -61.5t-1 -50q0 -43 -2 -95v-25q0 -38 4 -76q6 -50 26.5 -94t65.5 -71q6 0 23.5 -1 t38 -1t38 -1t23.5 -1q168 0 319.5 75t262.5 204q-2 20 -3 72.5t-1 110.5t1 110.5t3 72.5q0 18 5 40t16 40.5t27.5 30.5t41.5 12q45 0 64.5 -34.5t27.5 -91t12 -129t20.5 -149.5t52.5 -151t108.5 -133t188.5 -96t292 -41q0 -4 1 -15.5t1 -15.5q0 -49 -42 -69.5t-98 -25.5 q-35 -3 -72 -3q-20 0 -42 1q-58 3 -86 3q-92 0 -169 44t-134.5 96t-94.5 96.5t-45 44.5q-80 0 -160.5 -40t-165.5 -89.5t-175 -89.5t-187 -40q-10 0 -35.5 1.5t-55.5 2.5t-55.5 3t-35.5 4q-57 35 -94 82t-57.5 101t-27.5 113.5t-7 118.5z" />
<glyph unicode="v" horiz-adv-x="1345" d="M0 918q-1 8 -1 16q0 18 6 34q9 23 26.5 39.5t41 25.5t50.5 5q43 -29 86 -91t86 -141t83 -162t74.5 -152.5t63.5 -113.5t49 -44q16 0 52 59.5t86.5 148.5t113 192.5t130 192.5t138 148.5t138.5 59.5q23 0 43 -10.5t20 -39.5q0 -4 -1 -8t-1 -8q-109 -86 -212 -209 t-189 -262t-150.5 -285.5t-91.5 -281.5q-53 -23 -86 -27t-82 -4h-45q-18 53 -39.5 128t-48.5 161t-59.5 177t-74.5 176t-93.5 157t-112.5 119z" />
<glyph unicode="w" horiz-adv-x="1925" d="M59 856q0 20 6.5 43t18.5 41t29.5 29.5t40.5 11.5q59 0 84 -47q24 -48 31 -112q5 -45 5 -91q0 -21 -1 -41q-1 -29 -1 -52q0 -32 2 -56q2 -20 10.5 -72.5t18.5 -112t19.5 -112t13.5 -72.5q4 -2 23.5 -4t23.5 -2q61 0 100 34.5t65.5 87t48 114t45.5 113.5t55.5 87t82.5 35 q61 0 108.5 -37t88.5 -92t79 -119.5t82 -120t97 -92.5t125 -37q4 0 23.5 2t23.5 2q27 43 55.5 122t58 170t59.5 186.5t60.5 173t59.5 127t57 49.5q2 0 4 -1t6 -1h7q4 -2 13 -10.5t19.5 -18.5t18.5 -19.5t10 -13.5v-6q0 -4 1 -6t1 -4t-1 -7t-1 -7q-8 -27 -24.5 -82.5 t-37 -125t-44 -146.5t-45 -146.5t-39 -123.5t-25.5 -81q-20 -53 -43 -92q-18 -35 -41 -62.5t-39 -27.5h-305q-39 0 -77 27.5t-74.5 69.5t-72.5 93t-67 99.5t-58.5 85t-47.5 53.5q-66 -39 -103 -88t-62.5 -100.5t-48 -99.5t-57.5 -86t-90 -61.5t-147 -23.5q-33 0 -62.5 55.5 t-55.5 141.5t-45.5 189t-33.5 198.5t-22.5 169t-8.5 102.5z" />
<glyph unicode="x" horiz-adv-x="1558" d="M55 0q0 90 48.5 160.5t116 130t142 115t127.5 114.5q-10 45 -51 103.5t-90 117t-96 113.5t-68 94q0 2 -2 14.5t-2 16.5q0 39 21.5 51t58.5 12q4 0 22.5 -2t22.5 -2q8 -14 35 -50t55.5 -75t55 -72.5t38.5 -45.5q14 -16 39 -43t49.5 -51.5t44 -42t21.5 -17.5h31 q12 10 40.5 29.5t64.5 44t75 51.5t76 50.5t66.5 43t43.5 27.5q35 20 94.5 51t118 60.5t103.5 50t51 20.5h80q0 -55 -42 -107.5t-107.5 -100.5t-145.5 -95t-158 -93t-142.5 -91t-96.5 -93q51 -33 112.5 -75.5t129 -80.5t138 -64.5t140.5 -26.5q47 0 79.5 18.5t75.5 18.5 q34 -1 56 -19q12 -10 11 -30q0 -19 -9 -46q-2 -8 -13.5 -22.5t-25.5 -29.5t-28.5 -26.5t-22.5 -13.5t-27.5 -4t-42 -3t-42 -2t-28.5 -1q-94 0 -175 40t-156.5 89t-151.5 89t-160 40q-41 0 -75.5 -16.5t-65.5 -40t-58.5 -50t-58.5 -49.5q-27 -20 -67.5 -52t-79.5 -60.5 t-68 -49.5l-28 -22h-99z" />
<glyph unicode="y" horiz-adv-x="1222" d="M-246 -1061q0 39 5 92.5t21.5 103.5t47.5 88t82 44q0 -4 1 -15.5t1 -15.5q0 -23 -6 -42t-12.5 -38.5t-12.5 -40t-6 -47.5q0 -135 72.5 -231.5t182.5 -157.5t240 -90t244 -29q100 0 173 35t124.5 93.5t83 135t49 159.5t23.5 167t6 160q0 12 -2 75.5t-7 150.5t-15.5 185.5 t-25.5 181.5t-36.5 137t-50.5 54q-61 0 -118.5 -15.5t-114 -34.5t-117 -34.5t-127.5 -15.5q-12 0 -43 1t-65 2t-63.5 2t-41.5 1q-68 25 -110 76t-66.5 115.5t-32.5 134t-8 131.5q0 86 2 155.5t30 151.5q4 4 23.5 5t24.5 1q53 0 71.5 -46t23.5 -114.5t6 -149.5t22.5 -149.5 t73.5 -114.5t159 -46q143 0 226 35.5t123 105t46 173.5q2 38 2 82q0 72 -6 156q-2 41 15.5 53.5t46.5 12.5q31 0 65.5 -68.5t67 -174t63.5 -230.5t54.5 -237.5t38 -196.5t16.5 -105q2 -18 11 -90t19.5 -154.5t19.5 -154.5t11 -90v-17q0 -162 -39 -313t-122 -269t-211 -188.5 t-306 -70.5q-74 0 -166 12t-187 39t-184 70t-160 101t-113 135t-42 173z" />
<glyph unicode="z" horiz-adv-x="1863" d="M16 1069h258l15.5 -15.5l15.5 -15.5q12 -4 44 -8t66 -9t63.5 -8t41.5 -3q31 0 95.5 -1t146.5 -2t172 -1t171 1t145.5 1t95.5 2q2 -4 8 -17.5t10 -28t8 -27.5t4 -19t-4 -19.5t-8 -28t-10 -28t-8 -17.5q-76 -86 -169.5 -159.5t-188.5 -145t-185 -145.5t-160 -162h1161 q2 0 14.5 -22.5t16.5 -36.5v-7q0 -4 1 -6t1 -4q0 -55 -35 -78.5t-81 -29.5q-28 -4 -56 -4q-19 0 -37 2q-47 4 -69 4q-18 -2 -75 -4t-131.5 -5.5t-159.5 -7.5t-161 -7t-132 -5t-75 -2h-49q-131 0 -269 7t-261 54q23 86 74 158t120.5 135.5t150.5 119.5t162 111.5t155.5 114 t131.5 125.5q-61 -4 -160.5 -10t-213.5 -7h-20l-210 10q-114 11 -208.5 39t-153 79t-58.5 133z" />
<glyph unicode="{" horiz-adv-x="886" d="M31 1681q0 59 43 132t110.5 148t151.5 146.5t165 127t151.5 89t111.5 33.5q45 0 69.5 -23.5t53.5 -70.5q-43 -59 -106.5 -105.5t-135.5 -89.5t-143.5 -87t-130 -97t-94 -120.5t-35.5 -157.5q0 -55 8 -106.5t55 -92.5l338 -305q0 -2 2 -10.5t3 -19.5t2 -21.5t1 -16.5 q0 -59 -17.5 -105t-82.5 -73q27 -23 59.5 -54.5t61 -67.5t47 -74.5t18.5 -77.5q0 -66 -33.5 -127.5t-82 -116.5t-101.5 -102.5t-92 -81.5q0 -4 -1 -8.5t-1 -8.5q0 -78 52 -125t131 -75.5t171 -44t171 -31t131.5 -36t52.5 -56.5q0 -12 -1 -27.5t-7.5 -27t-19.5 -17.5t-38 -2 q-10 0 -35.5 -2t-55.5 -3t-55.5 -2t-35.5 -1q-115 0 -229.5 31.5t-207 94t-150.5 155.5t-58 216q0 68 38.5 114t85 85t85 80t38.5 102q0 37 -22.5 61.5t-58 40t-78.5 22.5t-84 10t-75 3t-48 3q-16 2 -23.5 13t-10.5 25.5t-2 27.5t1 24q0 57 28.5 90t72.5 54.5t99.5 35.5 t108.5 35v30q-86 68 -154.5 135.5t-115.5 143.5t-71.5 164t-24.5 198z" />
<glyph unicode="|" horiz-adv-x="1712" d="M59 786q0 104 33 190.5t92.5 148t145.5 96t190 34.5q72 0 145.5 -33.5t135 -75.5t105.5 -76t57 -34q25 0 66.5 34t97 76t123 75.5t141.5 33.5h21t32.5 -1t32 -1h20.5q43 -33 72.5 -78t49 -96t28 -105t8.5 -104q0 -80 -16.5 -136t-45 -98t-65.5 -75t-78 -65.5t-84 -70.5 t-82 -89q-20 -29 -27.5 -66t-9.5 -73.5t-3 -72.5t-11 -63.5t-33.5 -45t-71.5 -17.5q-92 0 -164.5 41t-135 99.5t-122 121t-124.5 107.5q-53 35 -112.5 55t-117 37.5t-111 38t-94.5 55.5t-64.5 90t-23.5 143zM246 811q0 -61 44 -102t104.5 -67t122 -39t95.5 -21l367 -308 q2 -2 6 -2h8q20 0 33.5 15.5t23 36t14.5 41t7 32.5q35 33 101.5 86.5t133 121t115.5 143t49 153.5q0 23 -2 52.5t-11 56t-27.5 45t-51.5 18.5q-66 0 -121 -33.5t-101 -85t-83 -111t-63 -110.5q-4 -2 -23.5 -4t-23.5 -2q-55 0 -88 25.5t-57.5 63.5t-46 82t-53.5 82t-79 63.5 t-123 25.5q-53 0 -102 -19.5t-86 -54t-59.5 -82t-22.5 -102.5z" />
<glyph unicode="}" horiz-adv-x="1222" d="M31 2451v117q0 2 21.5 10.5t50 17.5t60.5 18t52 14q2 0 18.5 2t26.5 2q102 0 203.5 -42t183.5 -114t132 -166t50 -201q0 -88 -44 -156.5t-97 -132t-97 -129t-44 -147.5q0 -33 4 -56.5t31 -51.5q29 -14 80 -24.5t108 -23t116.5 -27.5t107.5 -38t79 -54.5t31 -76.5 q0 -8 -2 -30.5t-2 -31.5q-47 -16 -96.5 -32.5t-89.5 -41t-65.5 -61.5t-25.5 -94q0 -109 49.5 -204t109.5 -188t109.5 -194.5t49.5 -222.5q0 -10 -1 -36.5t-3 -56.5t-3 -55.5t-4 -35.5q-45 -117 -109.5 -193.5t-147 -123t-183 -65t-219.5 -18.5q-37 0 -92 2.5t-106.5 16.5 t-87 43t-35.5 84q0 31 34.5 44t90 18t127 5t147.5 5.5t147.5 20.5t127 48t90 88.5t34.5 143.5t-25.5 165.5t-63.5 148.5t-82 138.5t-82 137t-63.5 142t-25.5 154.5q0 70 6 130.5t60 117.5q-20 41 -53 63.5t-71 40t-75 35t-67.5 48t-50 80t-19.5 131.5q0 66 22.5 118t57.5 96 t73.5 83.5t73.5 84t57.5 95.5t22.5 118q0 66 -34 114t-88 81t-121.5 53.5t-136 31.5t-130 14t-102.5 3z" />
<glyph unicode="~" horiz-adv-x="1497" d="M59 1452q0 76 43 146.5t108.5 123t143.5 84t148 31.5q55 0 99 -20.5t81 -52t71.5 -67.5t73.5 -68t86.5 -52.5t110.5 -20.5q55 0 96 25t78 55.5t74 55t86 24.5q51 0 72.5 -23.5t37.5 -72.5q-23 -27 -64.5 -73t-92.5 -91t-106.5 -77.5t-100.5 -32.5q-80 0 -149.5 22.5 t-129 56t-109.5 73.5t-94 74t-81 56.5t-68 22.5q-51 0 -86 -20.5t-60.5 -51.5t-46 -67.5t-42 -67.5t-49 -51.5t-66.5 -20.5q-41 0 -52.5 21.5t-11.5 58.5z" />
<glyph unicode="&#xa1;" horiz-adv-x="520" d="M170 473.5q0 -16.5 1 -35.5t1 -35v-23q2 -5 14 -18t27 -27t29.5 -25.5t20.5 -15.5q2 0 25.5 12t36.5 17l15 15t15 14q4 50 10.5 118.5t12.5 149t11 165t11.5 165t10.5 149.5t8 118q2 10 2 52.5t-1 90t-1 89.5v54q2 13 5.5 45.5t7.5 68t9.5 68.5t7.5 46q-18 42 -43.5 51.5 t-62.5 9.5t-62.5 -9.5t-43.5 -51.5q10 -141 9 -248t-8.5 -197.5t-18.5 -172t-22 -172.5t-19 -197t-8 -249v-21.5zM202 2388q0 -38 17.5 -66t47 -46.5t66.5 -27t74 -8.5q36 0 66.5 15.5t53 41t35 58.5t12.5 65q0 31 -20.5 57t-51.5 43.5t-65.5 28.5t-62.5 11 q-88 0 -130 -49.5t-42 -122.5z" />
<glyph unicode="&#xa2;" horiz-adv-x="1435" d="M33 651q0 100 40 173t105.5 122t149.5 79t174 44q2 51 8 82t11 58.5t7 63.5t0 95q2 10 9.5 25.5t17.5 31t22.5 26.5t26.5 11q49 0 70.5 -34.5t28 -89t2 -121t-6.5 -130.5h39h37t55.5 -1t55 -1h37.5q61 -10 79.5 -36.5t18.5 -67.5q0 -53 -32 -83t-83 -30q-31 0 -43 10.5 t-19 23.5t-19.5 23.5t-45.5 10.5q-20 0 -41.5 -1t-44.5 -3q-4 -152 -17 -300.5t-18 -301.5q47 -6 88 -9.5t70 -3.5q84 0 161 27t150.5 57.5t145 57t147.5 26.5q0 -117 -65.5 -181t-161.5 -95t-205.5 -37t-200.5 -6q-31 0 -62.5 1t-66.5 3q2 -47 2 -95v-67q6 -35 -6 -82 t-34.5 -83t-52 -49t-55.5 19.5t-45.5 124t-21.5 265.5q-82 20 -156.5 56t-131 89t-90 128t-33.5 175zM215 623q0 -43 18.5 -80t50 -67t73.5 -52.5t89 -40.5q4 137 17.5 262t23.5 254q-53 -16 -102 -38.5t-87 -56.5t-60.5 -79t-22.5 -102z" />
<glyph unicode="&#xa3;" horiz-adv-x="1308" d="M-153 753.5q3 22.5 31 39t76 26.5t107 17v82q0 158 12.5 270t56.5 171.5t129 65t228 -52.5q141 -57 206 -94t74 -57.5t-25.5 -28.5t-93 -8t-129 6t-132 13t-103.5 13l-42 5l4 -375q66 0 130 -2t117.5 -5t90.5 -8.5t49 -11.5q0 -16 4 -36.5t4 -39t-8 -32t-33 -13.5l-354 2 v-395q0 -35 16.5 -44t43 -3t60 23.5t67.5 35t64.5 30.5t51.5 13q94 0 145 -12t83 -29.5t52.5 -39t52 -39t83 -29.5t145.5 -12q111 0 137.5 -23.5t-2 -51.5t-100.5 -51.5t-158 -23.5t-173 33t-148 117q-72 4 -152 -21.5t-154.5 -58.5t-139 -63.5t-107.5 -37t-59.5 22.5 t7.5 113v74.5t-1 116t-1 114.5v76v165l-184 2q-31 29 -28 51.5z" />
<glyph unicode="&#xa4;" horiz-adv-x="1742" d="M223 260q0 68 36 132.5t89 125.5q-23 35 -34 78t-11 98q0 111 41 227.5t117 206.5q-51 63 -93 119t-57 86q0 2 -2 12.5t-2 14.5q0 35 18.5 46t49.5 11q4 0 18.5 -1t18.5 -1q4 -8 18 -28.5t34.5 -49t44 -61.5t48.5 -64q41 29 90 45.5t103 16.5q256 0 383 -105q37 27 95 66 t114.5 69.5t99.5 42t51 -19.5q0 -41 -22.5 -78t-59.5 -72.5t-84 -70.5t-98 -68q47 -119 47 -295q0 -8 -1 -28.5t-1 -45t-1 -48t-1 -35.5q25 -20 51.5 -46t56 -48.5t60 -38t61.5 -15.5q27 0 46.5 -16t0.5 -70q2 -41 -20.5 -53t-57 -6t-77.5 26.5t-82 46t-70 51t-41 44.5 q-37 -35 -86 -55.5t-101 -33t-102.5 -16.5t-93.5 -4q-86 0 -178 12.5t-170 51.5q-37 -47 -75 -92t-70.5 -72t-59 -29t-41.5 37zM419 739.5q-5 -67.5 32.5 -123t125 -90t234.5 -34.5q68 0 112 3t77.5 18t65.5 45t77 83q4 29 4 57.5v59.5q-25 150 -75 235.5t-115.5 120.5 t-138.5 28t-141.5 -44t-126.5 -96.5t-92 -127t-39 -135z" />
<glyph unicode="&#xa5;" horiz-adv-x="1314" d="M0 1620q0 59 14.5 79.5t61.5 20.5q4 0 23.5 -3t23.5 -5q31 -45 65.5 -116.5t75.5 -152.5t87 -164t98.5 -148.5t109.5 -107.5t121 -42q4 0 16.5 1t14.5 1q88 109 144 231.5t105.5 244.5t104.5 235.5t143 203.5q0 -2 2 -2h7q4 -2 6 -2q4 -2 13 -10t19.5 -17t18.5 -18.5 t10 -13.5q-31 -115 -84 -241t-115.5 -253t-128 -248.5t-116.5 -226.5q-29 -43 -47.5 -125t-29.5 -178t-17.5 -197.5t-11.5 -183.5t-11 -134t-18 -52q-27 0 -49.5 -3t-38 -2t-23.5 9t-8 31q0 51 4 145t6 207t0 233.5t-14 229.5q-39 49 -97.5 105.5t-123 115.5t-129 124.5 t-117 135.5t-84 142.5t-31.5 150.5zM262 377q0 6 2 25.5t4 40t4 40t2 25.5q2 6 14.5 18.5t16.5 12.5q61 6 135 1t138 3h26h33q35 -2 95.5 -1t125 1h124.5t95 -2q18 -12 40 -43t22 -49q0 -4 -4.5 -13.5t-8.5 -19.5t-10 -18.5t-8 -10.5q-121 4 -200 5t-135 0t-101 -4t-98.5 -5 t-126 -4t-185.5 -2zM283 692q0 51 41 79t106.5 38t146 9t160.5 -7t150.5 -13t113.5 -7q57 0 75 1t17 -10.5t-11.5 -42t-10.5 -94.5q-100 0 -166.5 -1t-115 -3t-87 -3t-86 -3t-111 -3t-161.5 -1q-61 0 -61 61z" />
<glyph unicode="&#xa6;" horiz-adv-x="1705" d="M49 -6q0 25 2 86t4 131t4 131t2 86q2 86 -2 152.5t7.5 107.5t49.5 51.5t124 -16.5q-14 -117 -18.5 -185.5t-1.5 -127t10.5 -129t15.5 -189.5q-72 -98 -197 -98zM74 846q4 51 14 133t22.5 168t23.5 164t20 125q16 96 57 146t137 50q-4 -80 -11 -182t-20.5 -205.5t-32 -196 t-48 -152.5t-69.5 -77.5t-93 27.5z" />
<glyph unicode="&#xa7;" horiz-adv-x="1224" d="M125 195q0 29 3 48t19 42q41 -31 59.5 -63t32 -60.5t28 -54t48 -44t92 -28.5t158.5 -10q33 0 100.5 3t135 22.5t118 59.5t50.5 113q0 6 -1 19.5t-3 17.5l-103 131l-188 66q-53 0 -121 5t-139.5 32.5t-142 86t-128.5 164.5q0 80 45 136.5t115 92.5t153 55.5t158 29.5 l-374 131q-37 12 -41 49t-4 72q0 74 37.5 127t98 89t134.5 57.5t146.5 32.5t134 15t96.5 4h22.5t33.5 -1t33.5 -1h22.5q18 -6 20.5 -26.5t2.5 -38.5q0 -35 -39 -53.5t-99.5 -28.5t-134 -17.5t-144.5 -22.5t-130 -45t-90 -81l41 -27l594 -209q37 -12 67.5 -48t52 -84t34 -99 t12.5 -94q0 -109 -53.5 -169.5t-126.5 -90.5q29 -23 52 -60t40.5 -79t27 -86t9.5 -80q0 -100 -47.5 -161t-115 -92.5t-143 -41t-131.5 -9.5q-41 0 -96 1.5t-114.5 8.5t-116 25.5t-101.5 52t-72.5 86t-27.5 130.5zM289 756q33 -78 100.5 -120t148 -57.5t167 -5t156 40 t114.5 74.5t45 100q0 6 -1 19.5t-3 17.5l-103 131l-10 5q-25 -20 -73 -30.5t-107 -18t-125 -15.5t-125 -24.5t-108.5 -44t-75.5 -72.5z" />
<glyph unicode="&#xa8;" horiz-adv-x="1705" d="M197 1765q0 41 33.5 67t77.5 41t90 20t71 5q35 0 68.5 -24.5t59.5 -60t42 -75.5t16 -69q0 -25 -1 -48.5t-7 -45t-21.5 -38.5t-41.5 -26q-6 0 -18.5 -1t-27 -1t-27.5 -1t-17 -1q-55 0 -108.5 14.5t-95.5 45t-67.5 79.5t-25.5 119zM848 1757q0 41 33.5 66.5t78 41 t90.5 20.5t70 5q35 0 68 -24.5t59.5 -60.5t42 -75.5t15.5 -68.5q0 -25 -1 -48.5t-7.5 -45t-20.5 -39t-43 -25.5q-4 0 -17.5 -1t-27.5 -1t-26.5 -1t-18.5 -1q-55 0 -107.5 14.5t-94.5 45t-67.5 79.5t-25.5 119z" />
<glyph unicode="&#xa9;" horiz-adv-x="1959" d="M66 961q0 121 44 232.5t118.5 207.5t173 174t206 133t217 86t207.5 31q207 0 361.5 -76t257 -210t152.5 -319.5t50 -402.5q0 -362 -178 -540.5t-528 -178.5q-102 0 -221 26t-240 77t-232.5 124.5t-197.5 169t-138 212.5t-52 254zM221 965q0 -96 48 -185.5t126 -166 t175.5 -141t198.5 -110t195.5 -71t163.5 -25.5q199 0 345.5 91.5t212.5 281.5q-43 -55 -113 -85t-150 -45t-162.5 -18.5t-152.5 -3.5q-78 0 -164 8.5t-169 29t-159.5 55t-134 88t-92.5 129t-35 176.5q0 135 70 221t175.5 133t229 64.5t230.5 17.5h36.5t55.5 -1t55.5 -1h36.5 q61 -10 79.5 -37t18.5 -67q0 -53 -31.5 -83t-82.5 -30q-31 0 -43.5 10t-19.5 23.5t-19 23.5t-45 10q-47 0 -107.5 -5t-123 -17t-123 -34.5t-106.5 -57.5t-74.5 -84t-28.5 -115q0 -59 33.5 -105t87 -80t120 -56.5t133 -37t126 -20.5t100.5 -6q80 0 160.5 24.5t157.5 58.5 t146.5 66.5t124.5 51.5q12 168 -43 316.5t-154 259t-231.5 175t-273.5 64.5q-72 0 -160 -26.5t-177 -75t-173 -113t-149.5 -141t-104.5 -161.5t-39 -173z" />
<glyph unicode="&#xaa;" horiz-adv-x="837" d="M10 995q0 49 26.5 88t65.5 67t84 42t84 14q23 0 67 -6t89 -21.5t80 -40t39 -63.5q0 -8 -2 -28.5t-5 -43t-5.5 -44t-2.5 -29.5v-10q0 -37 14.5 -55.5t37 -26t48 -7.5h48.5h30t7 1.5t8 1.5h29q20 0 30.5 -7.5t10.5 -35.5q0 -29 -16.5 -41.5t-40 -15.5t-46 -2t-35.5 1 q-35 0 -66.5 13.5t-57 29t-47 28.5t-35.5 13q-25 0 -50.5 -8t-52.5 -17.5t-55.5 -17.5t-54.5 -8q-92 0 -159 61.5t-67 167.5zM98 979q0 -41 15.5 -63.5t40 -34t53.5 -14.5t57 -3q10 0 35 2t52.5 7.5t49 14.5t25.5 25l31 131q4 18 -17.5 30.5t-50.5 21t-54.5 11.5t-31.5 3 q-29 0 -63.5 -5t-66.5 -19.5t-53.5 -40t-21.5 -66.5z" />
<glyph unicode="&#xab;" horiz-adv-x="2254" d="M-2 979q0 33 13.5 53.5t49.5 38.5q166 78 295 143.5t254 127t262.5 122t319.5 125.5q4 0 8 2t8 2q35 0 56.5 -31.5t21.5 -62.5q0 -33 -13 -54.5t-50 -37.5l-807 -354l43 -43q2 -2 35.5 -17.5t86 -40t119 -54.5t134 -60.5t129 -58t106.5 -46.5q31 -14 88 -21t113.5 -20.5 t97.5 -38t41 -71.5t-31.5 -71t-72.5 -24t-118 18.5t-176.5 48.5t-213 70t-226 82t-216 85t-183.5 79.5t-127 65.5t-47 43zM778 1030q0 33 13.5 53.5t50.5 38.5q166 78 295 143.5t254 127t262 122t319 125.5q4 0 8.5 2.5t8.5 2.5q35 0 56 -32t21 -63q0 -33 -13 -54t-50 -38 l-807 -354l43 -43q2 -2 36 -17.5t86 -40t118.5 -54t134 -60.5t129 -58.5t106.5 -46.5q31 -14 88.5 -21t113.5 -20.5t97 -38t41 -71.5t-31.5 -70.5t-72.5 -23.5t-118 18t-176 48t-213 70t-226.5 82t-216 85t-183.5 79.5t-127 65.5t-47 43z" />
<glyph unicode="&#xac;" horiz-adv-x="1433" d="M186 1028q2 23 23.5 38t36.5 19q106 -14 199.5 -14t182.5 6t178 11t189 -1q98 6 170 -24.5t120 -84.5t72.5 -125t30 -144.5t-8 -143t-41 -121t-69.5 -79t-93 -17.5q2 61 6 89t8 49.5t7 48t7 88.5q-2 41 1 84t0 80.5t-17 70.5t-49 53q-70 14 -158 14.5t-181 -3.5 t-186.5 -7.5t-176.5 5t-148.5 33t-102.5 75.5z" />
<glyph unicode="&#xad;" horiz-adv-x="944" d="M74.5 808q31.5 30 109.5 46t184.5 20.5t207 2t177 -10.5t97.5 -16q0 -16 4 -36.5t4 -39t-8 -32t-33 -13.5l-725 4q-49 45 -17.5 75z" />
<glyph unicode="&#xae;" horiz-adv-x="1941" d="M29 856q0 119 44 228.5t118.5 203.5t173 171t206 131.5t216 84t206.5 29.5q207 0 366 -75t266.5 -207t162.5 -313t55 -396q0 -354 -192.5 -528.5t-540.5 -174.5q-102 0 -222 25.5t-240 76t-231.5 122t-197.5 166t-138 209t-52 247.5zM199 846q0 -66 23.5 -126.5 t64.5 -113.5t96 -101t121 -89q-4 2 -6 12v164q0 174 26.5 309t98 231.5t200.5 152.5t334 69q63 -16 97 -66.5t34 -107.5q0 -55 -30.5 -102.5t-75.5 -89.5t-98.5 -76.5t-98.5 -63.5t-75.5 -51.5t-30.5 -38.5q0 -41 43 -81t100 -74t114.5 -58.5t84.5 -34.5h37.5t58.5 -1 t57.5 -1h38.5q63 0 119.5 7t114.5 13q33 88 43 209q12 166 -46.5 306.5t-162 241.5t-238.5 158.5t-276 57.5q-72 0 -158 -24.5t-171 -68.5t-165 -105.5t-140.5 -134t-97 -154.5t-36.5 -168zM516 408q76 -47 160 -85t164 -64t153.5 -39t128.5 -13q145 0 258 41t187 133 q-70 -14 -137.5 -14h-104.5q-90 0 -173 31.5t-164 81.5t-160.5 113.5t-161.5 127.5l-29 -252q0 -2 -8 -10t-20.5 -18.5t-25 -19.5t-20.5 -13q-4 -2 -8 -2h-12q-18 0 -27 2zM666 901q0 -29 21.5 -36t43.5 -7q49 0 119 28.5t134.5 73t110.5 99.5t46 110q0 31 -10.5 46.5 t-49.5 15.5q-72 0 -145.5 -22.5t-134 -64.5t-98 -103.5t-37.5 -139.5z" />
<glyph unicode="&#xaf;" horiz-adv-x="1181" d="M70 1501q0 51 45 80t116.5 42t160.5 15t175 -2t161 -9t118 -5q57 0 102 -3t76 -20.5t47 -52.5t16 -98q-152 0 -265 -1t-217.5 -3t-215 -3t-258.5 -1q-61 0 -61 61z" />
<glyph unicode="&#xb0;" horiz-adv-x="534" d="M59 786q0 37 12.5 77t34 72t52 53.5t69.5 21.5q111 0 155 -49.5t44 -155.5v-64q-8 -29 -28.5 -48t-47 -33.5t-54.5 -20.5t-48 -6q-31 0 -64.5 7t-61.5 25.5t-45.5 48t-17.5 72.5zM143 795q0 -37 17.5 -53.5t45 -19.5t60.5 8t62 30q14 39 17 74.5t-7 60.5t-38 32t-75 -12 q-16 -4 -30.5 -16t-25.5 -29.5t-18.5 -37t-7.5 -37.5z" />
<glyph unicode="&#xb1;" horiz-adv-x="1380" d="M28 844.5q-1 15.5 1 32t9 29t23 12.5h404q0 25 -2 72.5t-1 106t7 119t20.5 110.5t39 82t65.5 32q57 0 69.5 -24.5t12.5 -80.5q0 -86 -18.5 -165.5t-18.5 -163.5q0 -39 8 -63.5t49 -24.5q76 0 118 1t78 2t78 2t115 1h52t68 -6.5t58.5 -22.5t24.5 -51q0 -2 -1 -3t-1 -5 q-2 -4 -2 -7q-4 -6 -13 -17t-18.5 -20.5t-17.5 -16.5t-10 -7l-523 -35q-14 0 -21 -9t-9 -20.5t-2 -23.5v-21q0 -94 18.5 -184t18.5 -188q0 -8 1 -28.5t1 -49.5q119 -4 242.5 -10t271.5 -15q6 -2 16 -9t19.5 -17.5t17.5 -19.5t8 -15q0 -4 -11 -27.5t-20 -34.5q-2 -4 -14 -16 t-16 -14q-61 -12 -105.5 -18.5t-83.5 -9.5t-80 -3h-94q-102 0 -203 6q-10 -8 -30 -8h-9q-4 0 -6 2q-4 2 -16 10q-127 10 -252 18.5t-252 2.5q-16 2 -23.5 15t-9.5 28.5t-1 31t1 25.5q0 45 33 64.5t77 24.5t91 1t76 -4q53 0 102 -1t97 -1q-6 51 -12.5 107.5t-12.5 107.5 t-12 91t-9 61q-2 14 -7 37.5t-10 46t-9 38.5l-4 15h-398q-14 0 -21 15.5t-9 34.5t-2 35.5v20.5t-1 19.5z" />
<glyph unicode="&#xb2;" horiz-adv-x="1097" d="M48 479q0 16 0.5 27t4 20t10.5 18.5t20 22.5l370 377q9 8 23.5 28.5t32 47t34.5 57t31 60.5t23 56.5t9 45.5q0 21 -9.5 36.5t-24 25.5t-32.5 15.5t-36 5.5q-47 0 -87 -18.5t-75.5 -47.5t-65.5 -61t-55 -61t-47 -47.5t-41 -18.5q-27 0 -31 17t-4 41q0 40 21 76t56 68.5 t78 60t86.5 49.5t82.5 39t65 27q2 0 12 0.5t12 0.5q37 0 72.5 -21.5t63 -54t44.5 -72.5t17 -75q0 -51 -18.5 -104.5t-50 -105.5t-69.5 -103t-77.5 -97t-76 -86t-64.5 -71l17 -18q2 -2 20.5 -7.5t46.5 -14t63 -18.5t70 -19t66.5 -17.5t53.5 -13.5q2 0 19 -0.5t26 -0.5 q40 0 78 12t75.5 26t73.5 26t72 12q0 -67 -31 -106.5t-79.5 -60t-108 -27t-116.5 -6.5h-9l-387 108q-3 0 -12 0.5t-14 0.5q-33 0 -58.5 -17.5t-47.5 -38t-43 -37.5t-43 -17q-26 0 -31 16t-5 40z" />
<glyph unicode="&#xb3;" horiz-adv-x="731" d="M46 1148q0 18 4.5 31t28.5 22q37 16 79.5 33t86.5 32t89 23.5t87 8.5q91 0 131 -52.5t40 -141.5q0 -43 -15.5 -65t-38 -36.5t-47.5 -28.5t-45 -43q32 -38 69.5 -69t68 -64.5t50.5 -74.5t20 -102q0 -40 -17 -71t-46 -53t-65.5 -37t-74.5 -24t-75.5 -12.5t-66.5 -3.5 q-34 0 -74 4.5t-74.5 19.5t-57.5 41t-23 69q30 0 58.5 -6.5t56 -13l55 -13t57.5 -6.5q29 0 70 5.5t78.5 19t64 38.5t26.5 64q0 49 -21 83.5t-55.5 57.5t-78 35.5t-88 17.5t-87 4t-72.5 -5q-20 10 -27.5 20.5t-7.5 27.5q0 24 28.5 39t72 27.5t93 25.5t93 31.5t72 46.5 t28.5 70q0 49 -22 64.5t-67 15.5q-44 0 -90.5 -15t-90.5 -34t-84 -34.5t-72 -15.5q-8 0 -13 4.5t-7.5 11t-3 14t-0.5 14.5z" />
<glyph unicode="&#xb4;" horiz-adv-x="1705" d="M455 1450q0 39 24.5 65.5t61.5 38.5q80 27 139 41.5t109.5 24.5t94.5 19.5t93 24.5t107.5 41t136.5 69q4 6 19 22t22 21h4q2 0 4 1t4 1q29 0 40 -26t11 -48q0 -41 -35 -69.5t-69 -45.5q-59 -29 -81 -38t-42 -17q-29 -12 -110 -42t-178 -55.5t-194.5 -38t-160.5 10.5z" />
<glyph unicode="&#xb5;" horiz-adv-x="1363" d="M74 446v88.5t2 121t11 134t25.5 127t45 100.5t71.5 52q23 6 40.5 -8t28.5 -35.5t17.5 -44.5t3.5 -33q-16 -55 -34.5 -132t-29.5 -161t-11 -168t22.5 -150.5t71.5 -109.5t135 -47q131 0 257 44t213 128t123 204t-11 269q0 18 5 40t16 40.5t27.5 30.5t41.5 12 q18 16 38.5 -27.5t39 -123.5t33 -182.5t20.5 -202t1 -180t-24 -117.5q-59 -18 -92 -18.5t-48 12t-17 32t1 39t5 36t-4 20.5q-29 -59 -94.5 -122t-164 -97.5t-229.5 -30.5t-288 77q-6 0 -7.5 -39.5t1.5 -99t8.5 -128t8.5 -128t2 -98.5t-7 -37q-41 -76 -76 -69.5t-63.5 70 t-51 171t-37 234.5t-21.5 260t-5 247z" />
<glyph unicode="&#xb6;" horiz-adv-x="1658" d="M86 1249q0 133 45 213t120 122t171 55.5t196 13.5q92 0 160 -3t125.5 -7.5t113.5 -7.5t126.5 -1t165 10.5t227.5 24.5q0 -195 -21.5 -386t-44 -382.5t-37 -383t0.5 -388.5q-72 -98 -197 -98q0 25 2 86t4 130.5t4 131t2 86.5q4 70 13.5 172t20.5 214t22.5 223.5 t20.5 199.5t13 143.5t2 55.5q-72 0 -133 3t-114 7q51 -68 51 -168q0 -158 -12.5 -313.5t-24.5 -311t-21.5 -312.5t-3.5 -317q-23 -31 -55.5 -47t-66.5 -16q-12 0 -27.5 1t-30 6t-25 13.5t-10.5 24.5q0 121 5.5 233.5t14.5 223t19.5 221t22.5 227.5v31q-2 10 -14.5 33.5 t-16.5 25.5q-2 0 -6 2h-6q-2 0 -2 2q-4 0 -8.5 -2t-8.5 -2q-59 -23 -126.5 -52.5t-133.5 -39.5q-2 0 -17.5 -1t-34.5 -1t-39.5 -1t-33.5 -1q-74 0 -145.5 14.5t-126.5 49t-90 94t-35 149.5z" />
<glyph unicode="&#xb7;" horiz-adv-x="673" d="M166 827q0 31 24.5 51.5t57.5 32t66.5 15.5t52.5 4q25 0 49 -19.5t43.5 -47t31 -58.5t11.5 -53q0 -37 -5 -73t-46 -50q-8 -2 -34 -3t-34 -1q-41 0 -80 11t-69.5 35.5t-49 62.5t-18.5 93z" />
<glyph unicode="&#xb8;" horiz-adv-x="1705" d="M229 53l138 31q0 -78 31.5 -135.5t77.5 -95t99.5 -60t96.5 -31.5q29 -6 100.5 -19t152.5 -27.5t153.5 -27t101.5 -16.5q12 -14 27.5 -43.5t15.5 -48.5q0 -53 -41 -98t-105.5 -82t-144.5 -65.5t-158 -49t-144.5 -31t-103.5 -10.5q-27 0 -50 25.5t-23 71.5q0 37 14 53 t34.5 22t43 7.5t39.5 5.5q37 8 93 23.5t108.5 29.5t90.5 26l37 11v35q-43 0 -109.5 10t-143 33.5t-153.5 62.5t-138.5 94.5t-100.5 129t-39 169.5z" />
<glyph unicode="&#xb9;" horiz-adv-x="397" d="M48 395q0 14 2 49.5t3.5 76t3.5 76t2 50.5q5 60 11.5 134t16.5 151.5t23 155t31 145.5q14 55 50.5 84.5t120.5 29.5q0 -114 -19 -225t-38.5 -222t-32.5 -222.5t0 -226.5q-63 -56 -174 -56z" />
<glyph unicode="&#xba;" horiz-adv-x="604" d="M59 745q0 43 15.5 90.5t44 86.5t69.5 63.5t93 24.5q145 0 202.5 -58.5t57.5 -183.5v-76q-10 -33 -38 -57.5t-62.5 -39.5t-70.5 -23.5t-63 -8.5q-41 0 -85 9.5t-80 30t-59.5 55t-23.5 87.5zM170 756q0 -43 23.5 -63.5t59.5 -23.5t78 9t81 35q18 47 23 90t-9 71.5t-50 37 t-100 -14.5q-20 -4 -39.5 -18.5t-34 -35t-23.5 -44t-9 -43.5z" />
<glyph unicode="&#xbb;" horiz-adv-x="1712" d="M29 1788q0 16 4 35.5t13 36t23.5 27.5t36.5 11q2 0 4.5 -1t6.5 -1q4 -2 6 -2q4 -2 13 -10t19.5 -18.5t18.5 -19.5t10 -13q172 -96 337 -161.5t330 -119t332 -101.5t345 -108q53 -16 90 -56t37 -99q0 -25 -10.5 -43.5t-55.5 -14.5l-1161 -825q-4 -2 -10 -2h-17 q-29 0 -42 9.5t-19 24.5t-6 35.5v43.5v48t4 30.5t17.5 24.5t41.5 30l795 551q37 4 62.5 29.5t29.5 62.5q-33 8 -116 32.5t-176 53.5t-175 56.5t-115 39.5q-14 6 -80.5 37t-149.5 70t-164 77.5t-124 61.5q-25 12 -52.5 28.5t-50 38t-37.5 46t-15 55.5zM868 1909 q0 16 4.5 35.5t13.5 36t23.5 27.5t36.5 11q2 0 4 -1t6 -1q4 -2 7 -2q4 -2 13 -10t19.5 -18.5t18.5 -19.5t10 -13q172 -96 337 -162t329.5 -119t331.5 -101t345 -108q53 -16 90 -56t37 -99q0 -25 -10 -43.5t-55 -14.5l-1161 -825q-4 -2 -11 -2h-16q-29 0 -42 9t-19 24.5 t-6 36v43.5v48t4 30.5t17 24.5t42 30l795 551q37 4 62.5 29.5t29.5 62.5q-33 8 -116 32.5t-176 53t-175 56.5t-115 40q-14 6 -80.5 37t-149.5 69.5t-164 77.5t-124 62q-25 12 -52.5 28.5t-50 38t-38 46t-15.5 55.5z" />
<glyph unicode="&#xbc;" horiz-adv-x="1536" d="M49 388q0 15 1.5 52t3 79t3.5 78.5t2 51.5q5 63 11.5 139.5t15.5 156.5t21.5 160t30.5 150q13 58 48 88t117 30q0 -117 -18.5 -232t-37.5 -230t-31.5 -230t0.5 -234q-61 -59 -167 -59zM70 33q0 76 20.5 141.5t49 128t61.5 124t55 126.5q2 10 15.5 55.5t29 96.5t28.5 96 t17 58q14 35 47 106.5l75 162.5t88 191.5t89 190.5t77 160.5t52 105.5q4 14 15.5 21.5t26 10.5t27.5 2t24 -1q59 0 76.5 -17.5t17.5 -76.5q0 -8 -1 -32t-1 -30q-111 -170 -210 -379t-184 -427t-155 -429t-125 -385q-10 -29 -19.5 -47t-23.5 -28.5t-33.5 -14.5t-48.5 -4 q-53 0 -71.5 21.5t-18.5 72.5zM380 492v51q0 87 12 161.5t32.5 146t48.5 146t61 158.5q5 20 19 21.5t26 1.5q23 0 32 -12t9 -42v-11q-5 -16 -14.5 -47t-21 -69.5t-24.5 -82t-25 -83.5t-21 -71.5t-14 -47.5q-6 -21 -9 -36t-5.5 -28.5t-3 -28.5t-0.5 -35q0 -7 -0.5 -16 t1 -18.5t5 -16.5t12.5 -10h15.5t24 -0.5t23 -0.5h15.5h23t49.5 1.5t49 6t23.5 15.5l33 358q2 28 10 35.5t24 7.5q15 0 33.5 -8.5t18.5 -34.5v-358h290q26 0 39 -24t13 -50q0 -16 -1.5 -32t-16.5 -20q-10 0 -37 0.5t-56.5 0.5t-56.5 -0.5t-39 -0.5q-14 -2 -36 -4.5 t-43.5 -5.5t-38 -6.5t-17.5 -4.5l-18 -21v-392q-7 0 -21 2.5t-28 9t-24.5 17t-11.5 25.5l-33 359h-256q-29 0 -43 13.5t-20.5 34t-6.5 46.5z" />
<glyph unicode="&#xbd;" horiz-adv-x="1828" d="M49 385q0 16 1.5 53t3 79.5t3.5 79.5t2 52q5 63 11.5 140t15.5 158.5t21.5 162t30.5 151.5q13 59 48 89t117 30q0 -118 -18.5 -234t-37.5 -232.5t-31.5 -232.5t0.5 -236q-61 -60 -167 -60zM154 10q0 76 20.5 141.5t49 128t61.5 124t55 126.5q2 10 15.5 55.5t29 96.5 t28.5 96t17 58q14 35 47 106.5l75 162.5t88 191.5t89 190.5t77 160.5t52 105.5q4 14 15.5 21.5t26 10.5t27.5 2t24 -1q59 0 76.5 -17.5t17.5 -76.5q0 -8 -1 -32t-1 -30q-111 -170 -210 -379t-184 -427t-155 -429t-125 -385q-10 -29 -19.5 -47t-23.5 -28.5t-33.5 -14.5 t-48.5 -4q-53 0 -71.5 21.5t-18.5 72.5zM423 70q0 15 0.5 25t4.5 19t12 17.5t22 20.5l411 355q10 7 26.5 26.5t36 44.5t38 53.5t34 57t25.5 53t10 42.5q0 20 -10.5 34.5t-26.5 24t-36 14.5t-40 5q-52 0 -96.5 -17.5t-84 -44.5t-72.5 -57.5t-61 -57.5t-52.5 -44.5 t-44.5 -17.5q-30 0 -35 16.5t-5 38.5q0 38 23.5 71.5t62.5 64t86.5 56.5t96 47t91.5 36.5t72 24.5q2 0 13.5 1t13.5 1q41 0 80 -20.5t70 -51t49.5 -68t18.5 -70.5q0 -48 -20.5 -98t-55 -99t-77 -97.5t-86.5 -91.5t-84.5 -80t-71.5 -67l19 -17q3 -2 23 -7t51.5 -13t70 -17.5 t77.5 -18t74 -16.5t59 -13q3 0 21.5 -0.5t28.5 -0.5q44 0 86.5 11.5t84 25t81.5 24.5t80 11q0 -63 -34.5 -100t-88 -56t-119.5 -25.5t-130 -6.5h-10l-430 101q-2 0 -12.5 0.5t-16.5 0.5q-36 0 -64 -16t-52.5 -35.5t-47.5 -35.5t-49 -16q-28 0 -34 15t-6 38z" />
<glyph unicode="&#xbe;" horiz-adv-x="2109" d="M50 1237q0 20 5 35t33 25q43 19 92 38t99.5 36t102.5 27t101 10q105 0 151.5 -60t46.5 -161q0 -50 -18.5 -75t-44 -42t-54.5 -32.5t-52 -48.5q37 -44 80 -79.5t78 -73.5t59 -85t24 -117q0 -45 -20 -80.5t-53.5 -60.5t-75.5 -42t-86 -27.5t-87.5 -14.5t-76.5 -4 q-40 0 -86 5.5t-85.5 22t-66.5 46t-27 79.5q35 0 68 -7t64.5 -15t63.5 -15.5t67 -7.5q33 0 80 6.5t91 22t74.5 44t30.5 72.5q0 56 -24.5 96t-64.5 66t-90 40t-101.5 19.5t-100.5 4.5t-84 -5q-23 11 -31.5 23t-8.5 32q0 27 33 44t83 31.5t107.5 29t107.5 36t83 53.5t33 79 q0 56 -25.5 74.5t-77.5 18.5q-51 0 -105 -17.5t-104.5 -39t-97 -39t-82.5 -17.5q-10 0 -16 4.5t-8.5 12t-3 16.5t-0.5 17zM594 92q0 76 20.5 141.5t49 128t61.5 124t55 126.5q2 10 15.5 55.5t29 96.5t28.5 96t17 58q14 35 47 106.5l75 162.5t88 191.5t89 190.5t77 160.5 t52 105.5q4 14 15.5 21.5t26 10.5t27.5 2t24 -1q59 0 76.5 -17.5t17.5 -76.5q0 -8 -1 -32t-1 -30q-111 -170 -210 -379t-184 -427t-155 -429t-125 -385q-10 -29 -19.5 -47t-23.5 -28.5t-33.5 -14.5t-48.5 -4q-53 0 -71.5 21.5t-18.5 72.5zM735 473v47q0 80 13.5 149t37 135 t55 134.5t69.5 145.5q5 19 21 20t29 1q26 0 36 -11t10 -38v-10q-5 -15 -16 -43.5t-23.5 -64t-28 -76t-29 -77t-23.5 -65.5t-15 -44q-7 -20 -10.5 -34t-6 -26t-3.5 -26t-1 -32q0 -6 -0.5 -15t1.5 -17.5t5.5 -14.5t14.5 -9h17.5t26.5 -0.5t26.5 -0.5h17.5h25q26 0 56.5 1 t55.5 5.5t26 14.5l37 330q3 26 12 33t28 7q17 0 37 -8.5t20 -31.5v-330h328q29 0 44 -22.5t15 -45.5q0 -15 -2 -30t-19 -18q-11 0 -41.5 0.5t-64 0.5t-63.5 -0.5t-44 -0.5q-15 -2 -40 -4.5t-49.5 -5t-43 -5.5t-20.5 -4l-19 -20v-361q-9 0 -24.5 2.5t-31 8t-27.5 15.5t-14 24 l-37 331h-289q-32 0 -48 12t-23.5 31t-7.5 43z" />
<glyph unicode="&#xbf;" horiz-adv-x="1284" d="M58 68q0 -44 34 -83t87.5 -73t121.5 -61.5t136 -46.5t129 -29.5t102 -10.5q82 0 174.5 27.5t171 74.5t130 110.5t51.5 134.5q0 85 -63 155t-156.5 129.5t-204 113t-204 105.5t-156.5 106t-63 115q0 26 13.5 45.5t31 38.5t31 37.5t13.5 42.5q0 21 -22.5 23.5t-35.5 2.5 q-47 0 -85 -19t-65 -49t-41.5 -66.5t-14.5 -70.5q0 -77 62 -142.5t156.5 -123.5t204 -112t204 -107.5t156.5 -109t62 -117.5q0 -51 -39.5 -86t-97 -56.5t-120.5 -30t-110 -8.5q-93 0 -182.5 34t-163.5 75.5t-127 75.5t-75 34q-19 0 -28 -8t-13 -19.5t-4 -25v-25.5zM144 1371 q0 -31 19 -51.5t47 -34t62.5 -19.5t63.5 -6q74 0 104 34.5t30 90.5q0 57 -37 77t-101 20q-27 0 -60.5 -5.5t-61.5 -18.5t-47 -34.5t-19 -52.5z" />
<glyph unicode="&#xc0;" horiz-adv-x="1406" d="M29 137q0 4 1 23.5t1 23.5q47 428 165.5 842t292.5 809q2 4 10.5 13.5t18.5 18.5t19.5 17t13.5 10q2 0 6 2q4 0 5 1t3 1q74 0 141.5 -50t128 -130t111.5 -178t90 -193.5t63.5 -178.5t30.5 -130q31 -18 68 -29.5t71 -24.5t62.5 -34.5t44.5 -62.5q2 -4 0 -13.5t-7 -19.5 t-11 -18.5t-12 -10.5q-8 -4 -30 -10t-46.5 -10t-47 -7t-30.5 -3v-15q0 -145 26.5 -299.5t65.5 -296.5q0 -2 5 -11t10.5 -19.5t9.5 -19.5t6 -11v-17q0 -53 -38 -80.5t-85 -27.5q-20 0 -36 4t-26 29q-12 39 -22 106.5t-19.5 146t-19.5 162.5t-22.5 159t-29 133.5t-38.5 86.5 h-29.5t-46 1t-47 1h-31.5q-68 0 -120 -2t-102 -8t-106.5 -19.5t-129.5 -33.5q-18 -10 -35 -37t-29 -59.5t-19.5 -64.5t-9.5 -52q0 -23 -4 -80t-9 -120.5t-10 -120t-7 -76.5q-25 -35 -65 -66t-87 -31q-41 0 -52 21.5t-11 58.5zM200 1888q0 11 3.5 24.5t11 24t18.5 18.5t30 8 q2 0 3.5 -0.5t4.5 -0.5q3 -2 5 -2q3 -1 10.5 -7t15.5 -12.5t15 -13t9 -9.5q93 -42 161.5 -68t127.5 -42t112 -25t112 -19.5t130 -25.5t167 -42q43 -10 72.5 -37.5t29.5 -67.5q-51 -16 -120 -14.5t-147 12.5t-157.5 29.5t-147.5 37.5t-120.5 36t-74.5 25q-11 4 -23 7.5 t-27.5 10t-38 15.5t-56.5 24q-20 8 -42.5 19t-40.5 26t-30.5 31.5t-12.5 37.5zM397 973q59 0 141.5 8t162 19.5t147 21.5t100.5 16q-4 23 -20.5 76t-36 111.5t-38.5 109.5t-28 72q-6 12 -25.5 43t-46 62.5t-56 56t-54.5 24.5q-18 0 -34.5 -4t-26.5 -30l-185 -521v-65z" />
<glyph unicode="&#xc1;" horiz-adv-x="1406" d="M29 137q0 4 1 23.5t1 23.5q47 428 165.5 842t292.5 809q2 4 10.5 13.5t18.5 18.5t19.5 17t13.5 10q2 0 6 2q4 0 5 1t3 1q74 0 141.5 -50t128 -130t111.5 -178t90 -193.5t63.5 -178.5t30.5 -130q31 -18 68 -29.5t71 -24.5t62.5 -34.5t44.5 -62.5q2 -4 0 -13.5t-7 -19.5 t-11 -18.5t-12 -10.5q-8 -4 -30 -10t-46.5 -10t-47 -7t-30.5 -3v-15q0 -145 26.5 -299.5t65.5 -296.5q0 -2 5 -11t10.5 -19.5t9.5 -19.5t6 -11v-17q0 -53 -38 -80.5t-85 -27.5q-20 0 -36 4t-26 29q-12 39 -22 106.5t-19.5 146t-19.5 162.5t-22.5 159t-29 133.5t-38.5 86.5 h-29.5t-46 1t-47 1h-31.5q-68 0 -120 -2t-102 -8t-106.5 -19.5t-129.5 -33.5q-18 -10 -35 -37t-29 -59.5t-19.5 -64.5t-9.5 -52q0 -23 -4 -80t-9 -120.5t-10 -120t-7 -76.5q-25 -35 -65 -66t-87 -31q-41 0 -52 21.5t-11 58.5zM271 1964q0 39 24.5 65.5t61.5 38.5 q80 27 139 41.5t109.5 24.5t94.5 19.5t93 24.5t107.5 41t136.5 69q4 6 19 22t22 21h4q2 0 4 1t4 1q29 0 40 -26t11 -48q0 -41 -35 -69.5t-69 -45.5q-59 -29 -81 -38t-42 -17q-29 -12 -110 -42t-178 -55.5t-194.5 -38t-160.5 10.5zM397 973q59 0 141.5 8t162 19.5t147 21.5 t100.5 16q-4 23 -20.5 76t-36 111.5t-38.5 109.5t-28 72q-6 12 -25.5 43t-46 62.5t-56 56t-54.5 24.5q-18 0 -34.5 -4t-26.5 -30l-185 -521v-65z" />
<glyph unicode="&#xc2;" horiz-adv-x="1406" d="M29 137q0 4 1 23.5t1 23.5q47 428 165.5 842t292.5 809q2 4 10.5 13.5t18.5 18.5t19.5 17t13.5 10q2 0 6 2q4 0 5 1t3 1q74 0 141.5 -50t128 -130t111.5 -178t90 -193.5t63.5 -178.5t30.5 -130q31 -18 68 -29.5t71 -24.5t62.5 -34.5t44.5 -62.5q2 -4 0 -13.5t-7 -19.5 t-11 -18.5t-12 -10.5q-8 -4 -30 -10t-46.5 -10t-47 -7t-30.5 -3v-15q0 -145 26.5 -299.5t65.5 -296.5q0 -2 5 -11t10.5 -19.5t9.5 -19.5t6 -11v-17q0 -53 -38 -80.5t-85 -27.5q-20 0 -36 4t-26 29q-12 39 -22 106.5t-19.5 146t-19.5 162.5t-22.5 159t-29 133.5t-38.5 86.5 h-29.5t-46 1t-47 1h-31.5q-68 0 -120 -2t-102 -8t-106.5 -19.5t-129.5 -33.5q-18 -10 -35 -37t-29 -59.5t-19.5 -64.5t-9.5 -52q0 -23 -4 -80t-9 -120.5t-10 -120t-7 -76.5q-25 -35 -65 -66t-87 -31q-41 0 -52 21.5t-11 58.5zM244 1921q0 55 17 133t48 163t74 169t95 150.5 t110.5 108.5t122.5 42q18 0 41.5 1t44 -4t38 -18.5t23.5 -42.5q14 -92 45 -185t72 -182t89 -173t99 -162q-31 -49 -53.5 -72.5t-65.5 -23.5t-79.5 46t-69.5 114.5t-61.5 148.5t-54 148.5t-48 114.5t-43.5 46q-57 0 -90 -48t-53.5 -119.5t-35.5 -154.5t-39 -155t-60.5 -120 t-102.5 -48q-16 0 -27.5 15.5t-19.5 35t-12 40t-4 32.5zM397 973q59 0 141.5 8t162 19.5t147 21.5t100.5 16q-4 23 -20.5 76t-36 111.5t-38.5 109.5t-28 72q-6 12 -25.5 43t-46 62.5t-56 56t-54.5 24.5q-18 0 -34.5 -4t-26.5 -30l-185 -521v-65z" />
<glyph unicode="&#xc3;" horiz-adv-x="1406" d="M2 1966q0 76 43 146.5t108.5 123t143.5 84t148 31.5q55 0 99 -20.5t81 -52t71.5 -67.5t73.5 -68t86.5 -52.5t110.5 -20.5q55 0 96 25t78 55.5t74 55t86 24.5q51 0 72.5 -23.5t37.5 -72.5q-23 -27 -64.5 -73t-92.5 -91t-106.5 -77.5t-100.5 -32.5q-80 0 -149.5 22.5 t-129 56t-109.5 73.5t-94 74t-81 56.5t-68 22.5q-51 0 -86 -20.5t-60.5 -51.5t-46 -67.5t-42 -67.5t-49 -51.5t-66.5 -20.5q-41 0 -52.5 21.5t-11.5 58.5zM29 137q0 4 1 23.5t1 23.5q47 428 165.5 842t292.5 809q2 4 10.5 13.5t18.5 18.5t19.5 17t13.5 10q2 0 6 2q4 0 5 1 t3 1q74 0 141.5 -50t128 -130t111.5 -178t90 -193.5t63.5 -178.5t30.5 -130q31 -18 68 -29.5t71 -24.5t62.5 -34.5t44.5 -62.5q2 -4 0 -13.5t-7 -19.5t-11 -18.5t-12 -10.5q-8 -4 -30 -10t-46.5 -10t-47 -7t-30.5 -3v-15q0 -145 26.5 -299.5t65.5 -296.5q0 -2 5 -11 t10.5 -19.5t9.5 -19.5t6 -11v-17q0 -53 -38 -80.5t-85 -27.5q-20 0 -36 4t-26 29q-12 39 -22 106.5t-19.5 146t-19.5 162.5t-22.5 159t-29 133.5t-38.5 86.5h-29.5t-46 1t-47 1h-31.5q-68 0 -120 -2t-102 -8t-106.5 -19.5t-129.5 -33.5q-18 -10 -35 -37t-29 -59.5 t-19.5 -64.5t-9.5 -52q0 -23 -4 -80t-9 -120.5t-10 -120t-7 -76.5q-25 -35 -65 -66t-87 -31q-41 0 -52 21.5t-11 58.5zM397 973q59 0 141.5 8t162 19.5t147 21.5t100.5 16q-4 23 -20.5 76t-36 111.5t-38.5 109.5t-28 72q-6 12 -25.5 43t-46 62.5t-56 56t-54.5 24.5 q-18 0 -34.5 -4t-26.5 -30l-185 -521v-65z" />
<glyph unicode="&#xc4;" horiz-adv-x="1406" d="M29 137q0 4 1 23.5t1 23.5q47 428 165.5 842t292.5 809q2 4 10.5 13.5t18.5 18.5t19.5 17t13.5 10q2 0 6 2q4 0 5 1t3 1q74 0 141.5 -50t128 -130t111.5 -178t90 -193.5t63.5 -178.5t30.5 -130q31 -18 68 -29.5t71 -24.5t62.5 -34.5t44.5 -62.5q2 -4 0 -13.5t-7 -19.5 t-11 -18.5t-12 -10.5q-8 -4 -30 -10t-46.5 -10t-47 -7t-30.5 -3v-15q0 -145 26.5 -299.5t65.5 -296.5q0 -2 5 -11t10.5 -19.5t9.5 -19.5t6 -11v-17q0 -53 -38 -80.5t-85 -27.5q-20 0 -36 4t-26 29q-12 39 -22 106.5t-19.5 146t-19.5 162.5t-22.5 159t-29 133.5t-38.5 86.5 h-29.5t-46 1t-47 1h-31.5q-68 0 -120 -2t-102 -8t-106.5 -19.5t-129.5 -33.5q-18 -10 -35 -37t-29 -59.5t-19.5 -64.5t-9.5 -52q0 -23 -4 -80t-9 -120.5t-10 -120t-7 -76.5q-25 -35 -65 -66t-87 -31q-41 0 -52 21.5t-11 58.5zM150 2279q0 41 33.5 67t77.5 41t90 20t71 5 q35 0 68.5 -24.5t59.5 -60t42 -75.5t16 -69q0 -25 -1 -48.5t-7 -45t-21.5 -38.5t-41.5 -26q-6 0 -18.5 -1t-27 -1t-27.5 -1t-17 -1q-55 0 -108.5 14.5t-95.5 45t-67.5 79.5t-25.5 119zM397 973q59 0 141.5 8t162 19.5t147 21.5t100.5 16q-4 23 -20.5 76t-36 111.5 t-38.5 109.5t-28 72q-6 12 -25.5 43t-46 62.5t-56 56t-54.5 24.5q-18 0 -34.5 -4t-26.5 -30l-185 -521v-65zM801 2271q0 41 33.5 66.5t78 41t90.5 20.5t70 5q35 0 68 -24.5t59.5 -60.5t42 -75.5t15.5 -68.5q0 -25 -1 -48.5t-7.5 -45t-20.5 -39t-43 -25.5q-4 0 -17.5 -1 t-27.5 -1t-26.5 -1t-18.5 -1q-55 0 -107.5 14.5t-94.5 45t-67.5 79.5t-25.5 119z" />
<glyph unicode="&#xc5;" horiz-adv-x="1406" d="M29 137q0 4 1 23.5t1 23.5q47 428 165.5 842t292.5 809q2 4 10.5 13.5t18.5 18.5t19.5 17t13.5 10q2 0 6 2q4 0 5 1t3 1q74 0 141.5 -50t128 -130t111.5 -178t90 -193.5t63.5 -178.5t30.5 -130q31 -18 68 -29.5t71 -24.5t62.5 -34.5t44.5 -62.5q2 -4 0 -13.5t-7 -19.5 t-11 -18.5t-12 -10.5q-8 -4 -30 -10t-46.5 -10t-47 -7t-30.5 -3v-15q0 -145 26.5 -299.5t65.5 -296.5q0 -2 5 -11t10.5 -19.5t9.5 -19.5t6 -11v-17q0 -53 -38 -80.5t-85 -27.5q-20 0 -36 4t-26 29q-12 39 -22 106.5t-19.5 146t-19.5 162.5t-22.5 159t-29 133.5t-38.5 86.5 h-29.5t-46 1t-47 1h-31.5q-68 0 -120 -2t-102 -8t-106.5 -19.5t-129.5 -33.5q-18 -10 -35 -37t-29 -59.5t-19.5 -64.5t-9.5 -52q0 -23 -4 -80t-9 -120.5t-10 -120t-7 -76.5q-25 -35 -65 -66t-87 -31q-41 0 -52 21.5t-11 58.5zM238 2058q0 72 23.5 150t66.5 142.5 t104.5 106.5t139.5 42q109 0 183.5 -23.5t121.5 -74t67.5 -126t20.5 -180.5v-24.5t-1 -38t-1 -38v-26.5q-14 -55 -54 -88t-89 -51.5t-102.5 -24.5t-96.5 -6q-59 0 -127 8.5t-125 36t-94 78.5t-37 137zM334 2085q0 -57 31 -93t75 -55.5t92 -26.5t85 -7q35 0 61.5 1t52 7 t53 19.5t64.5 37.5q18 35 19.5 69t1.5 68q0 74 -24.5 130.5t-67.5 92t-102.5 47t-131.5 -4.5q-31 -6 -67.5 -39t-67.5 -76t-52.5 -89t-21.5 -81zM397 973q59 0 141.5 8t162 19.5t147 21.5t100.5 16q-4 23 -20.5 76t-36 111.5t-38.5 109.5t-28 72q-6 12 -25.5 43t-46 62.5 t-56 56t-54.5 24.5q-18 0 -34.5 -4t-26.5 -30l-185 -521v-65z" />
<glyph unicode="&#xc6;" horiz-adv-x="2570" d="M29 137q0 4 1 23.5t1 23.5q47 428 165.5 842t292.5 809q2 4 10.5 13.5t18.5 18.5t19.5 17t13.5 10q2 0 6 2q4 0 5 1t3 1q74 0 141.5 -50t128 -130t111.5 -178t90 -193.5t63.5 -178.5t30.5 -130q31 -18 68 -29.5t71 -24.5t62.5 -34.5t44.5 -62.5q2 -4 0 -13.5t-7 -19.5 t-11 -18.5t-12 -10.5q-8 -4 -30 -10t-46.5 -10t-47 -7t-30.5 -3v-15q0 -145 26.5 -299.5t65.5 -296.5q0 -2 5 -11t10.5 -19.5t9.5 -19.5t6 -11v-17q0 -53 -38 -80.5t-85 -27.5q-20 0 -36 4t-26 29q-12 39 -22 106.5t-19.5 146t-19.5 162.5t-22.5 159t-29 133.5t-38.5 86.5 h-29.5t-46 1t-47 1h-31.5q-68 0 -120 -2t-102 -8t-106.5 -19.5t-129.5 -33.5q-18 -10 -35 -37t-29 -59.5t-19.5 -64.5t-9.5 -52q0 -23 -4 -80t-9 -120.5t-10 -120t-7 -76.5q-25 -35 -65 -66t-87 -31q-41 0 -52 21.5t-11 58.5zM397 973q59 0 141.5 8t162 19.5t147 21.5 t100.5 16q-4 23 -20.5 76t-36 111.5t-38.5 109.5t-28 72q-6 12 -25.5 43t-46 62.5t-56 56t-54.5 24.5q-18 0 -34.5 -4t-26.5 -30l-185 -521v-65zM1102 639q0 174 20.5 363.5t42.5 357.5q8 63 63.5 106.5t140.5 70t186.5 42t200.5 21.5t186 7t143 1q27 0 88 4t122.5 -2 t108.5 -27.5t47 -72.5q0 -25 -11 -43.5t-52 -14.5q-262 29 -526.5 -9t-514.5 -114q2 -8 2 -28.5v-45v-47t-2 -30.5q0 -4 -5 -22.5t-10 -39t-10 -39t-5 -22.5t12 -15.5t18 -15.5h13h18q18 2 74.5 6.5t132.5 11.5t161 13t160.5 13.5t132 11.5t74.5 6h12.5t24 1t26.5 1h19 q57 0 81 -11.5t24 -70.5q0 -63 -75 -84t-187.5 -22t-243.5 3.5t-243.5 -11t-187.5 -64.5t-75 -156q0 -109 41 -175.5t108.5 -102t155.5 -47t183.5 -11.5t189.5 6.5t174 6.5q76 0 136.5 17t125.5 17q20 0 30.5 -10t14.5 -24.5t4 -32v-29.5v-34.5t-5 -28t-18.5 -18.5t-39.5 -7 h-887q-104 0 -180 34t-125 93t-71.5 140t-22.5 173z" />
<glyph unicode="&#xc7;" horiz-adv-x="1650" d="M29 627q0 125 60.5 219t159.5 163.5t223 117t250 75t243.5 39.5t201.5 12q37 0 63.5 -25.5t26.5 -62.5q0 -35 -8 -62.5t-26 -64.5q-68 8 -167.5 9.5t-209 -13t-217 -43t-194.5 -80t-140 -125t-53 -174.5q0 -94 31.5 -162.5t84 -115.5t122 -78t146 -47t154.5 -22.5 t150 -6.5q168 0 319.5 14.5t309.5 79.5q31 -6 32.5 -31.5t1.5 -45.5q0 -59 -40 -98.5t-103.5 -61t-142 -30.5t-153.5 -11t-138.5 0t-97.5 2q-96 0 -200 13.5t-202 43t-187 76.5t-156 117.5t-105.5 164t-38.5 214.5zM473 137l138 31q0 -78 31.5 -135.5t77.5 -95t99.5 -60 t96.5 -31.5q29 -6 100.5 -19t152.5 -27.5t153.5 -27t101.5 -16.5q12 -14 27.5 -43.5t15.5 -48.5q0 -53 -41 -98t-105.5 -82t-144.5 -65.5t-158 -49t-144.5 -31t-103.5 -10.5q-27 0 -50 25.5t-23 71.5q0 37 14 53t34.5 22t43 7.5t39.5 5.5q37 8 93 23.5t108.5 29.5t90.5 26 l37 11v35q-43 0 -109.5 10t-143 33.5t-153.5 62.5t-138.5 94.5t-100.5 129t-39 169.5z" />
<glyph unicode="&#xc8;" d="M29 440q0 174 20.5 363.5t42.5 357.5q8 63 63.5 106.5t140.5 70t186.5 42t200.5 21.5t186 7t143 1q27 0 88 4t122.5 -2t108.5 -27.5t47 -72.5q0 -25 -11 -43.5t-52 -14.5q-262 29 -526.5 -9t-514.5 -114q2 -8 2 -28.5v-45v-47t-2 -30.5q0 -4 -5 -22.5t-10 -39t-10 -39 t-5 -22.5t12 -15.5t18 -15.5h13h18q18 2 74.5 6.5t132.5 11.5t161 13t160.5 13.5t132 11.5t74.5 6h12.5t24 1t26.5 1h19q57 0 81 -11.5t24 -70.5q0 -63 -75 -84t-187.5 -22t-243.5 3.5t-243.5 -11t-187.5 -64.5t-75 -156q0 -109 41 -175.5t108.5 -102t155.5 -47t183.5 -11.5 t189.5 6.5t174 6.5q76 0 136.5 17t125.5 17q20 0 30.5 -10t14.5 -24.5t4 -32v-29.5v-34.5t-5 -28t-18.5 -18.5t-39.5 -7h-887q-104 0 -180 34t-125 93t-71.5 140t-22.5 173zM82 2015q0 16 4 36t13.5 36t23.5 27.5t37 11.5q2 0 4 -1t6 -1q4 -2 6 -2q4 -2 13.5 -10.5 t19.5 -18.5t18.5 -19.5t10.5 -13.5q115 -63 200.5 -101t158.5 -61.5t138.5 -37t139 -28.5t161.5 -37.5t207 -61.5q53 -16 90 -56.5t37 -99.5q-63 -23 -149 -20.5t-182.5 18.5t-195 43t-183 55.5t-149.5 53t-93 36.5q-14 6 -28.5 11.5t-34 14.5t-47 22.5t-70.5 35.5 q-25 12 -52.5 28.5t-50 38t-38 46.5t-15.5 55z" />
<glyph unicode="&#xc9;" d="M29 440q0 174 20.5 363.5t42.5 357.5q8 63 63.5 106.5t140.5 70t186.5 42t200.5 21.5t186 7t143 1q27 0 88 4t122.5 -2t108.5 -27.5t47 -72.5q0 -25 -11 -43.5t-52 -14.5q-262 29 -526.5 -9t-514.5 -114q2 -8 2 -28.5v-45v-47t-2 -30.5q0 -4 -5 -22.5t-10 -39t-10 -39 t-5 -22.5t12 -15.5t18 -15.5h13h18q18 2 74.5 6.5t132.5 11.5t161 13t160.5 13.5t132 11.5t74.5 6h12.5t24 1t26.5 1h19q57 0 81 -11.5t24 -70.5q0 -63 -75 -84t-187.5 -22t-243.5 3.5t-243.5 -11t-187.5 -64.5t-75 -156q0 -109 41 -175.5t108.5 -102t155.5 -47t183.5 -11.5 t189.5 6.5t174 6.5q76 0 136.5 17t125.5 17q20 0 30.5 -10t14.5 -24.5t4 -32v-29.5v-34.5t-5 -28t-18.5 -18.5t-39.5 -7h-887q-104 0 -180 34t-125 93t-71.5 140t-22.5 173zM238 1577q0 39 24.5 65.5t61.5 38.5q80 27 139 41.5t109.5 24.5t94.5 19.5t93 24.5t107.5 41 t136.5 69q4 6 19 22t22 21h4q2 0 4 1t4 1q29 0 40 -26t11 -48q0 -41 -35 -69.5t-69 -45.5q-59 -29 -81 -38t-42 -17q-29 -12 -110 -42t-178 -55.5t-194.5 -38t-160.5 10.5z" />
<glyph unicode="&#xca;" d="M29 440q0 174 20.5 363.5t42.5 357.5q8 63 63.5 106.5t140.5 70t186.5 42t200.5 21.5t186 7t143 1q27 0 88 4t122.5 -2t108.5 -27.5t47 -72.5q0 -25 -11 -43.5t-52 -14.5q-262 29 -526.5 -9t-514.5 -114q2 -8 2 -28.5v-45v-47t-2 -30.5q0 -4 -5 -22.5t-10 -39t-10 -39 t-5 -22.5t12 -15.5t18 -15.5h13h18q18 2 74.5 6.5t132.5 11.5t161 13t160.5 13.5t132 11.5t74.5 6h12.5t24 1t26.5 1h19q57 0 81 -11.5t24 -70.5q0 -63 -75 -84t-187.5 -22t-243.5 3.5t-243.5 -11t-187.5 -64.5t-75 -156q0 -109 41 -175.5t108.5 -102t155.5 -47t183.5 -11.5 t189.5 6.5t174 6.5q76 0 136.5 17t125.5 17q20 0 30.5 -10t14.5 -24.5t4 -32v-29.5v-34.5t-5 -28t-18.5 -18.5t-39.5 -7h-887q-104 0 -180 34t-125 93t-71.5 140t-22.5 173zM242 1681q0 55 17 133t48 163t74 169t95 150.5t110.5 108.5t122.5 42q18 0 41.5 1t44 -4t38 -18.5 t23.5 -42.5q14 -92 45 -185t72 -182t89 -173t99 -162q-31 -49 -53.5 -72.5t-65.5 -23.5t-79.5 46t-69.5 114.5t-61.5 148.5t-54 148.5t-48 114.5t-43.5 46q-57 0 -90 -48t-53.5 -119.5t-35.5 -154.5t-39 -155t-60.5 -120t-102.5 -48q-16 0 -27.5 15.5t-19.5 35t-12 40 t-4 32.5z" />
<glyph unicode="&#xcb;" d="M29 440q0 174 20.5 363.5t42.5 357.5q8 63 63.5 106.5t140.5 70t186.5 42t200.5 21.5t186 7t143 1q27 0 88 4t122.5 -2t108.5 -27.5t47 -72.5q0 -25 -11 -43.5t-52 -14.5q-262 29 -526.5 -9t-514.5 -114q2 -8 2 -28.5v-45v-47t-2 -30.5q0 -4 -5 -22.5t-10 -39t-10 -39 t-5 -22.5t12 -15.5t18 -15.5h13h18q18 2 74.5 6.5t132.5 11.5t161 13t160.5 13.5t132 11.5t74.5 6h12.5t24 1t26.5 1h19q57 0 81 -11.5t24 -70.5q0 -63 -75 -84t-187.5 -22t-243.5 3.5t-243.5 -11t-187.5 -64.5t-75 -156q0 -109 41 -175.5t108.5 -102t155.5 -47t183.5 -11.5 t189.5 6.5t174 6.5q76 0 136.5 17t125.5 17q20 0 30.5 -10t14.5 -24.5t4 -32v-29.5v-34.5t-5 -28t-18.5 -18.5t-39.5 -7h-887q-104 0 -180 34t-125 93t-71.5 140t-22.5 173zM160 1861q0 41 33.5 67t77.5 41t90 20t71 5q35 0 68.5 -24.5t59.5 -60t42 -75.5t16 -69 q0 -25 -1 -48.5t-7 -45t-21.5 -38.5t-41.5 -26q-6 0 -18.5 -1t-27 -1t-27.5 -1t-17 -1q-55 0 -108.5 14.5t-95.5 45t-67.5 79.5t-25.5 119zM811 1853q0 41 33.5 66.5t78 41t90.5 20.5t70 5q35 0 68 -24.5t59.5 -60.5t42 -75.5t15.5 -68.5q0 -25 -1 -48.5t-7.5 -45t-20.5 -39 t-43 -25.5q-4 0 -17.5 -1t-27.5 -1t-26.5 -1t-18.5 -1q-55 0 -107.5 14.5t-94.5 45t-67.5 79.5t-25.5 119z" />
<glyph unicode="&#xcc;" horiz-adv-x="397" d="M-430 2015q0 16 4 36t13.5 36t23.5 27.5t37 11.5q2 0 4 -1t6 -1q4 -2 6 -2q4 -2 13.5 -10.5t19.5 -18.5t18.5 -19.5t10.5 -13.5q115 -63 200.5 -101t158.5 -61.5t138.5 -37t139 -28.5t161.5 -37.5t207 -61.5q53 -16 90 -56.5t37 -99.5q-63 -23 -149 -20.5t-182.5 18.5 t-195 43t-183 55.5t-149.5 53t-93 36.5q-14 6 -28.5 11.5t-34 14.5t-47 22.5t-70.5 35.5q-25 12 -52.5 28.5t-50 38t-38 46.5t-15.5 55zM22.5 548.5q2.5 106.5 7.5 210t1 189.5v16.5t-1 32t-1 34v26.5q0 39 -2 89t7 95t32.5 76t76.5 31q25 0 42.5 -45.5t27.5 -116t15 -154.5 t8.5 -162.5t4.5 -141t3 -87.5q4 -80 21.5 -164t35.5 -167t32.5 -165t14.5 -157q-113 0 -178.5 47t-99 126t-42 180t-6 207.5z" />
<glyph unicode="&#xcd;" horiz-adv-x="397" d="M-346 1479q0 51 25.5 85t64.5 49q84 35 146 53.5t115 31.5t99.5 25t98 31.5t113 53t143.5 88.5q4 8 20 28.5t23 27.5h5q2 0 4 1t4 1q30 0 42 -33.5t12 -61.5q0 -53 -37 -89.5t-73 -58.5q-62 -37 -85 -49t-44 -22q-31 -15 -116 -53.5t-187 -71.5t-204.5 -49t-168.5 13z M22.5 548.5q2.5 106.5 7.5 210t1 189.5v16.5t-1 32t-1 34v26.5q0 39 -2 89t7 95t32.5 76t76.5 31q25 0 42.5 -45.5t27.5 -116t15 -154.5t8.5 -162.5t4.5 -141t3 -87.5q4 -80 21.5 -164t35.5 -167t32.5 -165t14.5 -157q-113 0 -178.5 47t-99 126t-42 180t-6 207.5z" />
<glyph unicode="&#xce;" horiz-adv-x="397" d="M-268 1430q0 55 17 133t48 163t74 169t95 150.5t110.5 108.5t122.5 42q18 0 41.5 1t44 -4t38 -18.5t23.5 -42.5q14 -92 45 -185t72 -182t89 -173t99 -162q-31 -49 -53.5 -72.5t-65.5 -23.5t-79.5 46t-69.5 114.5t-61.5 148.5t-54 148.5t-48 114.5t-43.5 46q-57 0 -90 -48 t-53.5 -119.5t-35.5 -154.5t-39 -155t-60.5 -120t-102.5 -48q-16 0 -27.5 15.5t-19.5 35t-12 40t-4 32.5zM22.5 548.5q2.5 106.5 7.5 210t1 189.5v16.5t-1 32t-1 34v26.5q0 39 -2 89t7 95t32.5 76t76.5 31q25 0 42.5 -45.5t27.5 -116t15 -154.5t8.5 -162.5t4.5 -141t3 -87.5 q4 -80 21.5 -164t35.5 -167t32.5 -165t14.5 -157q-113 0 -178.5 47t-99 126t-42 180t-6 207.5z" />
<glyph unicode="&#xcf;" horiz-adv-x="397" d="M-139 1771q0 44 24 71.5t55.5 44t64 21.5t50.5 5q25 0 49 -26t42.5 -64t30 -81t11.5 -74q0 -27 -0.5 -52t-5 -48t-15.5 -41.5t-30 -28.5q-4 0 -13 -1t-19.5 -1t-19.5 -1t-12 -1q-39 0 -77.5 15.5t-68.5 48.5t-48 85.5t-18 127.5zM22.5 548.5q2.5 106.5 7.5 210t1 189.5 v16.5t-1 32t-1 34v26.5q0 39 -2 89t7 95t32.5 76t76.5 31q25 0 42.5 -45.5t27.5 -116t15 -154.5t8.5 -162.5t4.5 -141t3 -87.5q4 -80 21.5 -164t35.5 -167t32.5 -165t14.5 -157q-113 0 -178.5 47t-99 126t-42 180t-6 207.5zM326 1762q0 44 24 71.5t55.5 44t64.5 22t50 5.5 q25 0 48.5 -26.5t42.5 -65t30 -81t11 -73.5q0 -27 -0.5 -52t-5 -48t-14.5 -42t-31 -27q-3 0 -12.5 -1t-19.5 -1t-19 -1t-13 -1q-40 0 -77.5 15.5t-67.5 48t-48 85t-18 127.5z" />
<glyph unicode="&#xd0;" horiz-adv-x="1376" d="M-53 731l48 6t118.5 15.5t152.5 20.5t152.5 20.5t118 15.5t49.5 6q39 0 67.5 1t49 -6t30.5 -24.5t10 -54.5q0 -33 -6 -53.5t-57 -20.5l-725 -135zM55 1372q0 39 13.5 59.5t35 28.5t50 9t61.5 1q111 0 237 -19t247.5 -58t233 -101.5t198 -146.5t136.5 -193.5t50 -244.5 q0 -166 -66.5 -297t-178 -222.5t-258 -140.5t-304.5 -49q-102 0 -185 35t-141.5 96t-90.5 147.5t-32 188.5q0 100 1 204.5t9.5 209t28 207t54.5 198.5q-35 -14 -55.5 -8t-30 21.5t-11.5 37t-2 37.5zM242 811q4 -84 4 -139v-60q0 -20 4 -68t8 -102.5t9 -102t7 -65.5 q25 -35 65 -54t84 -28.5t89 -10.5t82 -1q111 0 209 39t173 108.5t118 164t43 204.5q0 131 -80 239.5t-199 186.5t-256 120t-254 42h-12q-47 -49 -67.5 -130t-25.5 -170t-1 -173z" />
<glyph unicode="&#xd1;" horiz-adv-x="1955" d="M31 612q16 29 29.5 83.5t26.5 119t27.5 132t33 122.5t41 91t55.5 36q4 0 16 -2t14 -2q303 -256 643 -461t703 -364q4 0 15.5 -1t15.5 -1q18 0 34.5 4t26.5 28q-39 92 -72.5 208t-59.5 236t-40 231.5t-14 195.5q0 12 3 34.5t11 46t20.5 41t28.5 17.5q14 0 40 -6 t51.5 -18.5t45 -29t19.5 -36.5q0 -37 -16.5 -70t-16.5 -69v-17q0 -6 5 -33.5t10.5 -58.5t9.5 -57.5t6 -32.5v-31q20 -76 48 -166t51.5 -186t39.5 -194.5t16 -190.5q0 -31 -3 -58.5t-14 -49t-31.5 -34t-57.5 -12.5q-78 0 -147.5 49.5t-116.5 106.5l-1192 643h-6h-6q-2 0 -2 2 q-18 0 -33 -28.5t-25 -63.5t-15 -63.5t-5 -30.5q0 -16 4 -79t10 -135.5t11 -135t5 -78.5v-107v-106q-4 -16 -18 -23.5t-31.5 -9.5t-34 -1t-22.5 1q-10 0 -38 1t-38 1zM178 1454q0 76 43 146.5t108.5 123t143.5 84t148 31.5q55 0 99 -20.5t81 -52t71.5 -67.5t73.5 -68 t86.5 -52.5t110.5 -20.5q55 0 96 25t78 55.5t74 55t86 24.5q51 0 72.5 -23.5t37.5 -72.5q-23 -27 -64.5 -73t-92.5 -91t-106.5 -77.5t-100.5 -32.5q-80 0 -149.5 22.5t-129 56t-109.5 73.5t-94 74t-81 56.5t-68 22.5q-51 0 -86 -20.5t-60.5 -51.5t-46 -67.5t-42 -67.5 t-49 -51.5t-66.5 -20.5q-41 0 -52.5 21.5t-11.5 58.5z" />
<glyph unicode="&#xd2;" horiz-adv-x="1558" d="M31 641q0 90 35.5 173t96 154.5t140.5 130t167 100.5t175 64.5t168 22.5q168 0 297 -56t216 -157.5t131 -240t44 -300.5q0 -270 -154.5 -402t-439.5 -132q-82 0 -179 19.5t-194.5 57.5t-188.5 93t-160.5 126t-111.5 158t-42 189zM240 1691q0 13 3.5 29t11 29t18.5 22.5 t29 9.5q1 0 3 -1t5 -1q3 -1 5 -1q3 -2 10.5 -9t15 -15t14.5 -15.5t8 -11.5q91 -51 158.5 -81.5t125 -49.5t109 -30t109.5 -23t127.5 -30.5t163.5 -50.5q42 -13 71 -45.5t29 -80.5q-50 -19 -117.5 -17t-143.5 15t-154 35t-144.5 45t-118 43t-73.5 30q-11 5 -22.5 9.5 t-26.5 11.5t-37 18t-56 29q-19 10 -41 23t-39.5 30.5t-30 38t-12.5 44.5zM242 639q0 -72 32.5 -133.5t87 -112.5t123 -91t141 -66.5t142.5 -41t127 -14.5q98 0 183 17.5t147.5 59.5t101.5 113.5t49 180.5q10 125 -31.5 227.5t-118.5 173t-181.5 109.5t-219.5 39 q-88 0 -190.5 -36t-189.5 -97.5t-145 -145.5t-58 -182z" />
<glyph unicode="&#xd3;" horiz-adv-x="1558" d="M31 641q0 90 35.5 173t96 154.5t140.5 130t167 100.5t175 64.5t168 22.5q168 0 297 -56t216 -157.5t131 -240t44 -300.5q0 -270 -154.5 -402t-439.5 -132q-82 0 -179 19.5t-194.5 57.5t-188.5 93t-160.5 126t-111.5 158t-42 189zM150 1192q0 53 28 89t71 52 q92 37 160.5 56.5t126.5 33t109 26.5t107.5 33t124 55.5t158.5 93.5q4 8 21.5 30t25.5 28h5q2 0 4.5 1.5t4.5 1.5q33 0 46 -35t13 -65q0 -56 -40.5 -94.5t-79.5 -61.5q-69 -39 -94 -51.5t-49 -22.5q-33 -17 -126.5 -57.5t-205.5 -75t-225 -51.5t-185 14zM242 639 q0 -72 32.5 -133.5t87 -112.5t123 -91t141 -66.5t142.5 -41t127 -14.5q98 0 183 17.5t147.5 59.5t101.5 113.5t49 180.5q10 125 -31.5 227.5t-118.5 173t-181.5 109.5t-219.5 39q-88 0 -190.5 -36t-189.5 -97.5t-145 -145.5t-58 -182z" />
<glyph unicode="&#xd4;" horiz-adv-x="1558" d="M31 641q0 90 35.5 173t96 154.5t140.5 130t167 100.5t175 64.5t168 22.5q168 0 297 -56t216 -157.5t131 -240t44 -300.5q0 -270 -154.5 -402t-439.5 -132q-82 0 -179 19.5t-194.5 57.5t-188.5 93t-160.5 126t-111.5 158t-42 189zM242 639q0 -72 32.5 -133.5t87 -112.5 t123 -91t141 -66.5t142.5 -41t127 -14.5q98 0 183 17.5t147.5 59.5t101.5 113.5t49 180.5q10 125 -31.5 227.5t-118.5 173t-181.5 109.5t-219.5 39q-88 0 -190.5 -36t-189.5 -97.5t-145 -145.5t-58 -182zM320 1544q0 55 17 133t48 163t74 169t95 150.5t110.5 108.5t122.5 42 q18 0 41.5 1t44 -4t38 -18.5t23.5 -42.5q14 -92 45 -185t72 -182t89 -173t99 -162q-31 -49 -53.5 -72.5t-65.5 -23.5t-79.5 46t-69.5 114.5t-61.5 148.5t-54 148.5t-48 114.5t-43.5 46q-57 0 -90 -48t-53.5 -119.5t-35.5 -154.5t-39 -155t-60.5 -120t-102.5 -48 q-16 0 -27.5 15.5t-19.5 35t-12 40t-4 32.5z" />
<glyph unicode="&#xd5;" horiz-adv-x="1558" d="M31 641q0 90 35.5 173t96 154.5t140.5 130t167 100.5t175 64.5t168 22.5q168 0 297 -56t216 -157.5t131 -240t44 -300.5q0 -270 -154.5 -402t-439.5 -132q-82 0 -179 19.5t-194.5 57.5t-188.5 93t-160.5 126t-111.5 158t-42 189zM73 1507q0 76 43 146.5t108.5 123 t143.5 84t148 31.5q55 0 99 -20.5t81 -52t71.5 -67.5t73.5 -68t86.5 -52.5t110.5 -20.5q55 0 96 25t78 55.5t74 55t86 24.5q51 0 72.5 -23.5t37.5 -72.5q-23 -27 -64.5 -73t-92.5 -91t-106.5 -77.5t-100.5 -32.5q-80 0 -149.5 22.5t-129 56t-109.5 73.5t-94 74t-81 56.5 t-68 22.5q-51 0 -86 -20.5t-60.5 -51.5t-46 -67.5t-42 -67.5t-49 -51.5t-66.5 -20.5q-41 0 -52.5 21.5t-11.5 58.5zM242 639q0 -72 32.5 -133.5t87 -112.5t123 -91t141 -66.5t142.5 -41t127 -14.5q98 0 183 17.5t147.5 59.5t101.5 113.5t49 180.5q10 125 -31.5 227.5 t-118.5 173t-181.5 109.5t-219.5 39q-88 0 -190.5 -36t-189.5 -97.5t-145 -145.5t-58 -182z" />
<glyph unicode="&#xd6;" horiz-adv-x="1558" d="M31 641q0 90 35.5 173t96 154.5t140.5 130t167 100.5t175 64.5t168 22.5q168 0 297 -56t216 -157.5t131 -240t44 -300.5q0 -270 -154.5 -402t-439.5 -132q-82 0 -179 19.5t-194.5 57.5t-188.5 93t-160.5 126t-111.5 158t-42 189zM172 1665q0 41 33.5 67t77.5 41t90 20 t71 5q35 0 68.5 -24.5t59.5 -60t42 -75.5t16 -69q0 -25 -1 -48.5t-7 -45t-21.5 -38.5t-41.5 -26q-6 0 -18.5 -1t-27 -1t-27.5 -1t-17 -1q-55 0 -108.5 14.5t-95.5 45t-67.5 79.5t-25.5 119zM242 639q0 -72 32.5 -133.5t87 -112.5t123 -91t141 -66.5t142.5 -41t127 -14.5 q98 0 183 17.5t147.5 59.5t101.5 113.5t49 180.5q10 125 -31.5 227.5t-118.5 173t-181.5 109.5t-219.5 39q-88 0 -190.5 -36t-189.5 -97.5t-145 -145.5t-58 -182zM823 1657q0 41 33.5 66.5t78 41t90.5 20.5t70 5q35 0 68 -24.5t59.5 -60.5t42 -75.5t15.5 -68.5 q0 -25 -1 -48.5t-7.5 -45t-20.5 -39t-43 -25.5q-4 0 -17.5 -1t-27.5 -1t-26.5 -1t-18.5 -1q-55 0 -107.5 14.5t-94.5 45t-67.5 79.5t-25.5 119z" />
<glyph unicode="&#xd7;" horiz-adv-x="1183" d="M276 440q0 63 20.5 105.5t50.5 76t62.5 65.5t57.5 73q-16 23 -42 54.5t-51.5 66t-44 69.5t-22.5 64.5t13.5 52.5t66.5 33q2 0 9 -1t12 -1q4 -10 15 -35t24.5 -51.5t24.5 -50t17 -31.5q6 -12 17.5 -30.5t23 -35t19.5 -29t10 -12.5h12q33 37 75 80t86 83t88 75t81 57h37 q39 -53 13.5 -104t-81 -100.5t-125 -97.5t-118.5 -99q23 -23 50.5 -52.5t58 -55t62 -44t62.5 -18.5q23 0 37 12t33 12q16 0 26.5 -12t-0.5 -53q-2 -6 -7 -15.5t-11 -19.5t-13 -18.5t-10 -10.5q-43 -59 -73.5 -66t-65.5 22.5t-83 87t-130 128.5q-18 0 -33.5 -11t-29 -27.5 t-26.5 -36t-25 -33.5t-31 -35.5t-36 -42t-30 -34.5l-14 -15z" />
<glyph unicode="&#xd8;" horiz-adv-x="1558" d="M31 641q0 90 35.5 173t96 154.5t140.5 130t167 100.5t175 64.5t168 22.5q168 0 297 -56t216 -157.5t131 -240t44 -300.5q0 -270 -154.5 -402t-439.5 -132q-82 0 -179 19.5t-194.5 57.5t-188.5 93t-160.5 126t-111.5 158t-42 189zM242 639q0 -72 32.5 -133.5t87 -112.5 t123 -91t141 -66.5t142.5 -41t127 -14.5q98 0 183 17.5t147.5 59.5t101.5 113.5t49 180.5q10 125 -31.5 227.5t-118.5 173t-181.5 109.5t-219.5 39q-88 0 -190.5 -36t-189.5 -97.5t-145 -145.5t-58 -182zM367 -105q0 76 20.5 141.5t49 128t61.5 124t55 126.5q2 10 15.5 55.5 t29 96.5t28.5 96t17 58q14 35 47 106.5l75 162.5t88 191.5t89 190.5t77 160.5t52 105.5q4 14 15.5 21.5t26 10.5t27.5 2t24 -1q59 0 76.5 -17.5t17.5 -76.5q0 -8 -1 -32t-1 -30q-111 -170 -210 -379t-184 -427t-155 -429t-125 -385q-10 -29 -19.5 -47t-23.5 -28.5 t-33.5 -14.5t-48.5 -4q-53 0 -71.5 21.5t-18.5 72.5z" />
<glyph unicode="&#xd9;" d="M18 1931q0 16 4 36t13.5 36t23.5 27.5t37 11.5q2 0 4 -1t6 -1q4 -2 6 -2q4 -2 13.5 -10.5t19.5 -18.5t18.5 -19.5t10.5 -13.5q115 -63 200.5 -101t158.5 -61.5t138.5 -37t139 -28.5t161.5 -37.5t207 -61.5q53 -16 90 -56.5t37 -99.5q-63 -23 -149 -20.5t-182.5 18.5 t-195 43t-183 55.5t-149.5 53t-93 36.5q-14 6 -28.5 11.5t-34 14.5t-47 22.5t-70.5 35.5q-25 12 -52.5 28.5t-50 38t-38 46.5t-15.5 55zM29 987v68t4 93t13 102.5t26.5 94t44 68.5t67.5 27q27 0 40.5 -15.5t18.5 -37t5 -45v-39.5q0 -66 -5 -114t-28 -120 q12 -100 22.5 -205.5t29 -205t51 -186.5t88 -151.5t138.5 -102.5t206 -38q59 0 132.5 7.5t142.5 30t123 65.5t75 114q0 14 1 49t1 74t1 74t1 47q0 80 -15.5 152.5t-34 143.5t-34 141.5t-15.5 144.5q0 39 8.5 66.5t55.5 27.5q57 0 95 -44t62.5 -113.5t37 -154.5t17.5 -165 t5 -146.5v-99.5q0 -164 -54.5 -276.5t-149.5 -183.5t-228 -102.5t-289 -31.5q-129 0 -227.5 43t-172 116.5t-122.5 171t-80 207t-44 225t-13 224.5z" />
<glyph unicode="&#xda;" d="M29 987v68t4 93t13 102.5t26.5 94t44 68.5t67.5 27q27 0 40.5 -15.5t18.5 -37t5 -45v-39.5q0 -66 -5 -114t-28 -120q12 -100 22.5 -205.5t29 -205t51 -186.5t88 -151.5t138.5 -102.5t206 -38q59 0 132.5 7.5t142.5 30t123 65.5t75 114q0 14 1 49t1 74t1 74t1 47 q0 80 -15.5 152.5t-34 143.5t-34 141.5t-15.5 144.5q0 39 8.5 66.5t55.5 27.5q57 0 95 -44t62.5 -113.5t37 -154.5t17.5 -165t5 -146.5v-99.5q0 -164 -54.5 -276.5t-149.5 -183.5t-228 -102.5t-289 -31.5q-129 0 -227.5 43t-172 116.5t-122.5 171t-80 207t-44 225t-13 224.5 zM109 1429q0 57 30.5 96.5t76.5 57.5q99 39 172 60.5t136 36.5t117.5 29t115 36t133 60.5t169.5 102.5q5 9 23.5 32.5t27.5 30.5h5q2 0 4.5 1.5t5.5 1.5q36 0 49.5 -38.5t13.5 -70.5q0 -61 -43.5 -103t-85.5 -67q-73 -43 -100.5 -56.5t-51.5 -24.5q-36 -18 -136.5 -62.5 t-221 -82t-241.5 -56t-199 15.5z" />
<glyph unicode="&#xdb;" d="M29 987v68t4 93t13 102.5t26.5 94t44 68.5t67.5 27q27 0 40.5 -15.5t18.5 -37t5 -45v-39.5q0 -66 -5 -114t-28 -120q12 -100 22.5 -205.5t29 -205t51 -186.5t88 -151.5t138.5 -102.5t206 -38q59 0 132.5 7.5t142.5 30t123 65.5t75 114q0 14 1 49t1 74t1 74t1 47 q0 80 -15.5 152.5t-34 143.5t-34 141.5t-15.5 144.5q0 39 8.5 66.5t55.5 27.5q57 0 95 -44t62.5 -113.5t37 -154.5t17.5 -165t5 -146.5v-99.5q0 -164 -54.5 -276.5t-149.5 -183.5t-228 -102.5t-289 -31.5q-129 0 -227.5 43t-172 116.5t-122.5 171t-80 207t-44 225t-13 224.5 zM273 1638q0 55 17 133t48 163t74 169t95 150.5t110.5 108.5t122.5 42q18 0 41.5 1t44 -4t38 -18.5t23.5 -42.5q14 -92 45 -185t72 -182t89 -173t99 -162q-31 -49 -53.5 -72.5t-65.5 -23.5t-79.5 46t-69.5 114.5t-61.5 148.5t-54 148.5t-48 114.5t-43.5 46q-57 0 -90 -48 t-53.5 -119.5t-35.5 -154.5t-39 -155t-60.5 -120t-102.5 -48q-16 0 -27.5 15.5t-19.5 35t-12 40t-4 32.5z" />
<glyph unicode="&#xdc;" d="M29 987v68t4 93t13 102.5t26.5 94t44 68.5t67.5 27q27 0 40.5 -15.5t18.5 -37t5 -45v-39.5q0 -66 -5 -114t-28 -120q12 -100 22.5 -205.5t29 -205t51 -186.5t88 -151.5t138.5 -102.5t206 -38q59 0 132.5 7.5t142.5 30t123 65.5t75 114q0 14 1 49t1 74t1 74t1 47 q0 80 -15.5 152.5t-34 143.5t-34 141.5t-15.5 144.5q0 39 8.5 66.5t55.5 27.5q57 0 95 -44t62.5 -113.5t37 -154.5t17.5 -165t5 -146.5v-99.5q0 -164 -54.5 -276.5t-149.5 -183.5t-228 -102.5t-289 -31.5q-129 0 -227.5 43t-172 116.5t-122.5 171t-80 207t-44 225t-13 224.5 zM150 1851q0 41 33.5 67t77.5 41t90 20t71 5q35 0 68.5 -24.5t59.5 -60t42 -75.5t16 -69q0 -25 -1 -48.5t-7 -45t-21.5 -38.5t-41.5 -26q-6 0 -18.5 -1t-27 -1t-27.5 -1t-17 -1q-55 0 -108.5 14.5t-95.5 45t-67.5 79.5t-25.5 119zM801 1843q0 41 33.5 66.5t78 41t90.5 20.5 t70 5q35 0 68 -24.5t59.5 -60.5t42 -75.5t15.5 -68.5q0 -25 -1 -48.5t-7.5 -45t-20.5 -39t-43 -25.5q-4 0 -17.5 -1t-27.5 -1t-26.5 -1t-18.5 -1q-55 0 -107.5 14.5t-94.5 45t-67.5 79.5t-25.5 119z" />
<glyph unicode="&#xdd;" horiz-adv-x="1314" d="M0 1620q0 59 14.5 79.5t61.5 20.5q4 0 23.5 -3t23.5 -5q31 -45 72 -108.5t91 -131t107.5 -135t118.5 -121t124.5 -86t127.5 -32.5q4 0 16.5 1t14.5 1q8 14 22 42.5t32.5 64.5t39 76t38 77t32 64.5t20.5 41.5q10 20 20.5 60.5t24.5 88.5t32.5 98t41 91t49.5 67.5t61 26.5 q0 -2 2 -2h7q4 -2 6 -2q4 -2 13 -10t19.5 -17t18.5 -18.5t10 -13.5q-59 -229 -145 -452.5t-191 -434.5v-61q-23 -27 -72 -102.5t-108 -174t-124.5 -207t-122 -198.5t-97.5 -148.5t-53 -58.5q-53 0 -60.5 30.5t-7.5 77.5q0 10 1 39t1 39q12 20 37 65.5t55.5 103t63.5 121 t63.5 120.5t54 102t33.5 68q4 8 13.5 29.5t18.5 46t17.5 46t10.5 32.5q-39 49 -104.5 99t-140.5 102t-150.5 108.5t-137 118t-100.5 129t-39 145.5zM226 1964q0 39 24.5 65.5t61.5 38.5q80 27 139 41.5t109.5 24.5t94.5 19.5t93 24.5t107.5 41t136.5 69q4 6 19 22t22 21h4 q2 0 4 1t4 1q29 0 40 -26t11 -48q0 -41 -35 -69.5t-69 -45.5q-59 -29 -81 -38t-42 -17q-29 -12 -110 -42t-178 -55.5t-194.5 -38t-160.5 10.5z" />
<glyph unicode="&#xde;" horiz-adv-x="1363" d="M16 1729q0 47 18.5 61t65.5 14q55 0 82 -43t37 -108.5t12 -141t9.5 -141t27 -108.5t66.5 -43q231 76 409.5 68.5t301 -67t186 -156.5t68 -201.5t-54 -200t-181.5 -151.5t-312.5 -58t-447.5 82q25 -129 26 -245t-11.5 -206t-37 -148.5t-50 -73t-50 21.5t-40 135.5 t-17.5 266.5t18 414q-4 33 -14 107t-21.5 168t-25.5 200.5t-25.5 205t-21.5 178t-15 120.5q0 4 -1 22.5t-1 27.5zM322 899q0 -137 53 -199.5t190 -62.5h82t110.5 5t119 14.5t108.5 29t80 50t31 75.5q0 135 -65.5 213t-190.5 78q-66 0 -134.5 -4t-136 -18.5t-130 -39 t-115.5 -63.5q0 -10 -1 -39t-1 -39z" />
<glyph unicode="&#xdf;" horiz-adv-x="1497" d="M20 1516q0 102 61.5 149t147.5 61.5t179.5 9.5t156.5 -5q80 -37 132.5 -89.5t82 -113t38.5 -124t3 -120.5t-22.5 -104t-38.5 -74q86 -20 196.5 -60t210 -100.5t167 -142.5t67.5 -187q0 -195 -64.5 -321.5t-163 -195t-216 -83t-223 19.5t-184.5 109.5t-99 188.5l-27 141 q37 18 68.5 2t61.5 -50t60.5 -78t67.5 -84t81 -67.5t101 -27.5q53 0 114.5 38t115 96t89.5 128t36 131q0 94 -41 161t-110 110t-158 66.5t-185 34.5t-191.5 12t-175.5 1q-29 61 -13.5 94t53.5 52.5t90.5 35t98.5 42t76.5 74.5t26.5 132q-2 37 -22.5 73t-49 63.5t-60.5 44 t-54 16.5q-102 0 -162.5 -7t-91.5 -25.5t-38 -51.5t-4 -85t11 -126t8 -174l2 -160l21 -1278l-146 -8q-2 0 -4 59.5t-4 148.5t-4 193.5t-4 195.5t-3 152.5t-1 65.5q-16 111 -24.5 239t-11.5 258t-1 254t6 228q-25 10 -29 24.5t-4 37.5z" />
<glyph unicode="&#xe0;" horiz-adv-x="1597" d="M29 489q0 90 54 164t135 126t174 80t171 28q33 0 85 -5t112.5 -16.5t124 -30t116 -45t88 -64.5t41.5 -85q-2 -14 -7 -53t-9 -83t-8 -83t-6 -55v-19q0 -70 29.5 -104.5t75.5 -49t98.5 -14.5h99.5q49 0 61.5 1t16.5 1t16 1t59 1q41 0 62.5 -14t21.5 -66q0 -53 -34.5 -75.5 t-80.5 -29.5t-94.5 -4t-72.5 3q-72 0 -136.5 24.5t-117.5 54t-97 54.5t-75 25q-49 0 -103.5 -15.5t-109.5 -34t-112.5 -34t-114.5 -15.5q-94 0 -178.5 30t-148 86t-100 136t-36.5 180zM211 459q0 -78 31.5 -121t82 -64.5t111 -26.5t115.5 -5q20 0 72.5 3t107.5 13 t101.5 28.5t54.5 49.5l61 246q8 35 -35 59.5t-102 38.5t-113.5 20.5t-66.5 6.5q-57 0 -130 -9.5t-137.5 -37t-108.5 -75.5t-44 -126zM219 1337q0 13 2.5 30t9 30.5t15.5 23t24 9.5q2 0 3 -1t4 -1q2 -1 4 -1q2 -2 8.5 -9t13 -15.5t12 -16.5t7.5 -11q75 -53 131.5 -85 t104.5 -51.5t91 -31t91.5 -24t106.5 -31.5t136 -52q35 -13 59.5 -47t24.5 -84q-42 -19 -98.5 -17t-120 15.5t-128.5 36t-120.5 46.5t-98.5 44.5t-61 30.5q-9 5 -18.5 10t-22.5 12.5t-31 18.5t-46 30q-17 10 -35 24t-33 32t-25 39t-10 46z" />
<glyph unicode="&#xe1;" horiz-adv-x="1597" d="M29 489q0 90 54 164t135 126t174 80t171 28q33 0 85 -5t112.5 -16.5t124 -30t116 -45t88 -64.5t41.5 -85q-2 -14 -7 -53t-9 -83t-8 -83t-6 -55v-19q0 -70 29.5 -104.5t75.5 -49t98.5 -14.5h99.5q49 0 61.5 1t16.5 1t16 1t59 1q41 0 62.5 -14t21.5 -66q0 -53 -34.5 -75.5 t-80.5 -29.5t-94.5 -4t-72.5 3q-72 0 -136.5 24.5t-117.5 54t-97 54.5t-75 25q-49 0 -103.5 -15.5t-109.5 -34t-112.5 -34t-114.5 -15.5q-94 0 -178.5 30t-148 86t-100 136t-36.5 180zM189 983q0 39 24.5 65.5t61.5 38.5q80 27 139 41.5t109.5 24.5t94.5 19.5t93 24.5 t107.5 41t136.5 69q4 6 19 22t22 21h4q2 0 4 1t4 1q29 0 40 -26t11 -48q0 -41 -35 -69.5t-69 -45.5q-59 -29 -81 -38t-42 -17q-29 -12 -110 -42t-178 -55.5t-194.5 -38t-160.5 10.5zM211 459q0 -78 31.5 -121t82 -64.5t111 -26.5t115.5 -5q20 0 72.5 3t107.5 13t101.5 28.5 t54.5 49.5l61 246q8 35 -35 59.5t-102 38.5t-113.5 20.5t-66.5 6.5q-57 0 -130 -9.5t-137.5 -37t-108.5 -75.5t-44 -126z" />
<glyph unicode="&#xe2;" horiz-adv-x="1597" d="M29 489q0 90 54 164t135 126t174 80t171 28q33 0 85 -5t112.5 -16.5t124 -30t116 -45t88 -64.5t41.5 -85q-2 -14 -7 -53t-9 -83t-8 -83t-6 -55v-19q0 -70 29.5 -104.5t75.5 -49t98.5 -14.5h99.5q49 0 61.5 1t16.5 1t16 1t59 1q41 0 62.5 -14t21.5 -66q0 -53 -34.5 -75.5 t-80.5 -29.5t-94.5 -4t-72.5 3q-72 0 -136.5 24.5t-117.5 54t-97 54.5t-75 25q-49 0 -103.5 -15.5t-109.5 -34t-112.5 -34t-114.5 -15.5q-94 0 -178.5 30t-148 86t-100 136t-36.5 180zM170 1190q0 55 17 133t48 163t74 169t95 150.5t110.5 108.5t122.5 42q18 0 41.5 1t44 -4 t38 -18.5t23.5 -42.5q14 -92 45 -185t72 -182t89 -173t99 -162q-31 -49 -53.5 -72.5t-65.5 -23.5t-79.5 46t-69.5 114.5t-61.5 148.5t-54 148.5t-48 114.5t-43.5 46q-57 0 -90 -48t-53.5 -119.5t-35.5 -154.5t-39 -155t-60.5 -120t-102.5 -48q-16 0 -27.5 15.5t-19.5 35 t-12 40t-4 32.5zM211 459q0 -78 31.5 -121t82 -64.5t111 -26.5t115.5 -5q20 0 72.5 3t107.5 13t101.5 28.5t54.5 49.5l61 246q8 35 -35 59.5t-102 38.5t-113.5 20.5t-66.5 6.5q-57 0 -130 -9.5t-137.5 -37t-108.5 -75.5t-44 -126z" />
<glyph unicode="&#xe3;" horiz-adv-x="1597" d="M29 489q0 90 54 164t135 126t174 80t171 28q33 0 85 -5t112.5 -16.5t124 -30t116 -45t88 -64.5t41.5 -85q-2 -14 -7 -53t-9 -83t-8 -83t-6 -55v-19q0 -70 29.5 -104.5t75.5 -49t98.5 -14.5h99.5q49 0 61.5 1t16.5 1t16 1t59 1q41 0 62.5 -14t21.5 -66q0 -53 -34.5 -75.5 t-80.5 -29.5t-94.5 -4t-72.5 3q-72 0 -136.5 24.5t-117.5 54t-97 54.5t-75 25q-49 0 -103.5 -15.5t-109.5 -34t-112.5 -34t-114.5 -15.5q-94 0 -178.5 30t-148 86t-100 136t-36.5 180zM73 1110q0 76 43 146.5t108.5 123t143.5 84t148 31.5q55 0 99 -20.5t81 -52t71.5 -67.5 t73.5 -68t86.5 -52.5t110.5 -20.5q55 0 96 25t78 55.5t74 55t86 24.5q51 0 72.5 -23.5t37.5 -72.5q-23 -27 -64.5 -73t-92.5 -91t-106.5 -77.5t-100.5 -32.5q-80 0 -149.5 22.5t-129 56t-109.5 73.5t-94 74t-81 56.5t-68 22.5q-51 0 -86 -20.5t-60.5 -51.5t-46 -67.5 t-42 -67.5t-49 -51.5t-66.5 -20.5q-41 0 -52.5 21.5t-11.5 58.5zM211 459q0 -78 31.5 -121t82 -64.5t111 -26.5t115.5 -5q20 0 72.5 3t107.5 13t101.5 28.5t54.5 49.5l61 246q8 35 -35 59.5t-102 38.5t-113.5 20.5t-66.5 6.5q-57 0 -130 -9.5t-137.5 -37t-108.5 -75.5 t-44 -126z" />
<glyph unicode="&#xe4;" horiz-adv-x="1597" d="M29 489q0 90 54 164t135 126t174 80t171 28q33 0 85 -5t112.5 -16.5t124 -30t116 -45t88 -64.5t41.5 -85q-2 -14 -7 -53t-9 -83t-8 -83t-6 -55v-19q0 -70 29.5 -104.5t75.5 -49t98.5 -14.5h99.5q49 0 61.5 1t16.5 1t16 1t59 1q41 0 62.5 -14t21.5 -66q0 -53 -34.5 -75.5 t-80.5 -29.5t-94.5 -4t-72.5 3q-72 0 -136.5 24.5t-117.5 54t-97 54.5t-75 25q-49 0 -103.5 -15.5t-109.5 -34t-112.5 -34t-114.5 -15.5q-94 0 -178.5 30t-148 86t-100 136t-36.5 180zM56 1214q0 41 33.5 67t77.5 41t90 20t71 5q35 0 68.5 -24.5t59.5 -60t42 -75.5t16 -69 q0 -25 -1 -48.5t-7 -45t-21.5 -38.5t-41.5 -26q-6 0 -18.5 -1t-27 -1t-27.5 -1t-17 -1q-55 0 -108.5 14.5t-95.5 45t-67.5 79.5t-25.5 119zM211 459q0 -78 31.5 -121t82 -64.5t111 -26.5t115.5 -5q20 0 72.5 3t107.5 13t101.5 28.5t54.5 49.5l61 246q8 35 -35 59.5 t-102 38.5t-113.5 20.5t-66.5 6.5q-57 0 -130 -9.5t-137.5 -37t-108.5 -75.5t-44 -126zM707 1206q0 41 33.5 66.5t78 41t90.5 20.5t70 5q35 0 68 -24.5t59.5 -60.5t42 -75.5t15.5 -68.5q0 -25 -1 -48.5t-7.5 -45t-20.5 -39t-43 -25.5q-4 0 -17.5 -1t-27.5 -1t-26.5 -1 t-18.5 -1q-55 0 -107.5 14.5t-94.5 45t-67.5 79.5t-25.5 119z" />
<glyph unicode="&#xe5;" horiz-adv-x="1597" d="M29 489q0 90 54 164t135 126t174 80t171 28q33 0 85 -5t112.5 -16.5t124 -30t116 -45t88 -64.5t41.5 -85q-2 -14 -7 -53t-9 -83t-8 -83t-6 -55v-19q0 -70 29.5 -104.5t75.5 -49t98.5 -14.5h99.5q49 0 61.5 1t16.5 1t16 1t59 1q41 0 62.5 -14t21.5 -66q0 -53 -34.5 -75.5 t-80.5 -29.5t-94.5 -4t-72.5 3q-72 0 -136.5 24.5t-117.5 54t-97 54.5t-75 25q-49 0 -103.5 -15.5t-109.5 -34t-112.5 -34t-114.5 -15.5q-94 0 -178.5 30t-148 86t-100 136t-36.5 180zM211 459q0 -78 31.5 -121t82 -64.5t111 -26.5t115.5 -5q20 0 72.5 3t107.5 13 t101.5 28.5t54.5 49.5l61 246q8 35 -35 59.5t-102 38.5t-113.5 20.5t-66.5 6.5q-57 0 -130 -9.5t-137.5 -37t-108.5 -75.5t-44 -126zM301 1128q0 72 23.5 150t66.5 142.5t104.5 106.5t139.5 42q109 0 183.5 -23.5t121.5 -74t67.5 -126t20.5 -180.5v-24.5t-1 -38t-1 -38 v-26.5q-14 -55 -54 -88t-89 -51.5t-102.5 -24.5t-96.5 -6q-59 0 -127 8.5t-125 36t-94 78.5t-37 137zM397 1155q0 -57 31 -93t75 -55.5t92 -26.5t85 -7q35 0 61.5 1t52 7t53 19.5t64.5 37.5q18 35 19.5 69t1.5 68q0 74 -24.5 130.5t-67.5 92t-102.5 47t-131.5 -4.5 q-31 -6 -67.5 -39t-67.5 -76t-52.5 -89t-21.5 -81z" />
<glyph unicode="&#xe6;" horiz-adv-x="2516" d="M29 489q0 90 54 164t135 126t174 80t171 28q33 0 85 -5t112.5 -16.5t124 -30t116 -45t88 -64.5t41.5 -85q-2 -14 -7 -53t-9 -83t-8 -83t-6 -55v-19q0 -70 29.5 -104.5t75.5 -49t98.5 -14.5h99.5q49 0 61.5 1t16.5 1t16 1t59 1q41 0 62.5 -14t21.5 -66q0 -53 -34.5 -75.5 t-80.5 -29.5t-94.5 -4t-72.5 3q-72 0 -136.5 24.5t-117.5 54t-97 54.5t-75 25q-49 0 -103.5 -15.5t-109.5 -34t-112.5 -34t-114.5 -15.5q-94 0 -178.5 30t-148 86t-100 136t-36.5 180zM211 459q0 -78 31.5 -121t82 -64.5t111 -26.5t115.5 -5q20 0 72.5 3t107.5 13 t101.5 28.5t54.5 49.5l61 246q8 35 -35 59.5t-102 38.5t-113.5 20.5t-66.5 6.5q-57 0 -130 -9.5t-137.5 -37t-108.5 -75.5t-44 -126zM1030 584q0 106 59.5 205.5t151.5 175.5t204 121t214 45q80 0 160 -21.5t143.5 -64.5t103.5 -108.5t40 -153.5q0 -41 -6.5 -63.5t-20.5 -40 t-37.5 -32t-60.5 -34.5q-18 -6 -56.5 -16.5t-87.5 -23t-101 -25.5t-101.5 -25.5t-87 -20.5t-56.5 -12q-8 -2 -39.5 -6t-67.5 -8.5t-68 -9.5t-40 -7q-6 -4 -18.5 -15.5t-12.5 -15.5q0 -61 35 -104t89.5 -70.5t122 -42t133 -21.5t121.5 -8t91 -1q156 0 308.5 18t306.5 18 v-25.5t-4 -40t-13.5 -37.5t-25.5 -22q-121 -23 -212 -36t-174 -19t-169 -7t-195 -1h-51t-78 1t-79 1h-52q-98 25 -168 81t-115 131t-65.5 163t-20.5 178zM1239 637h125t142.5 6t141 20.5t122 44.5t86.5 76t33 117v17q-4 4 -15.5 15t-15.5 16q-6 0 -23.5 1t-38 2t-38 2 t-23.5 1q-59 0 -144 -19.5t-163 -59.5t-133.5 -99.5t-55.5 -139.5z" />
<glyph unicode="&#xe7;" horiz-adv-x="1435" d="M29 483q0 135 69.5 221.5t175 133.5t229.5 64.5t230 17.5h37t55.5 -1t55 -1h37.5q61 -10 79.5 -37t18.5 -68q0 -53 -32 -83t-83 -30q-31 0 -43 10.5t-19.5 24t-19.5 23.5t-45 10q-47 0 -107.5 -5t-123 -17.5t-123 -35t-106.5 -57.5t-74.5 -84t-28.5 -114q0 -59 34 -105.5 t87 -80t119.5 -56.5t133 -37t126 -20t100.5 -6q84 0 161 26.5t150.5 57t145 57t147.5 26.5q0 -117 -65.5 -181t-161.5 -95t-206 -37t-200 -6q-78 0 -164 8t-168.5 28.5t-159.5 55.5t-134.5 88t-92 129t-34.5 176zM399 63l138 31q0 -78 31.5 -135.5t77.5 -95t99.5 -60 t96.5 -31.5q29 -6 100.5 -19t152.5 -27.5t153.5 -27t101.5 -16.5q12 -14 27.5 -43.5t15.5 -48.5q0 -53 -41 -98t-105.5 -82t-144.5 -65.5t-158 -49t-144.5 -31t-103.5 -10.5q-27 0 -50 25.5t-23 71.5q0 37 14 53t34.5 22t43 7.5t39.5 5.5q37 8 93 23.5t108.5 29.5t90.5 26 l37 11v35q-43 0 -109.5 10t-143 33.5t-153.5 62.5t-138.5 94.5t-100.5 129t-39 169.5z" />
<glyph unicode="&#xe8;" horiz-adv-x="1527" d="M59 553q0 106 59.5 205.5t151.5 175.5t204 121t214 45q80 0 160 -21.5t143.5 -64.5t103.5 -108.5t40 -153.5q0 -41 -6.5 -63.5t-20.5 -40t-37.5 -32t-60.5 -34.5q-18 -6 -56.5 -16.5t-87.5 -23t-101 -25.5t-101.5 -25.5t-87 -20.5t-56.5 -12q-8 -2 -39.5 -6t-67.5 -8.5 t-68 -9.5t-40 -7q-6 -4 -18.5 -15.5t-12.5 -15.5q0 -61 35 -104t89.5 -70.5t122 -42t133 -21.5t121.5 -8t91 -1q156 0 308.5 18t306.5 18v-25.5t-4 -40t-13.5 -37.5t-25.5 -22q-121 -23 -212 -36t-174 -19t-169 -7t-195 -1h-51t-78 1t-79 1h-52q-98 25 -168 81t-115 131 t-65.5 163t-20.5 178zM114 1580q0 13 3.5 29t11 29t19 22.5t30.5 9.5q1 0 3 -1t5 -1q3 -1 5 -1q3 -2 11 -9t16 -15t15 -15.5t8 -11.5q94 -51 164 -81.5t129.5 -49.5t112.5 -30t113 -23t132 -30.5t169 -50.5q43 -13 73.5 -45.5t30.5 -80.5q-52 -19 -122 -17t-149 15t-159 35 t-149 45t-122 43t-76 30q-11 5 -23 9.5t-28 11.5t-38.5 18t-57.5 29q-20 10 -42.5 23t-41 30.5t-31 38t-12.5 44.5zM268 606h125t142.5 6t141 20.5t122 44.5t86.5 76t33 117v17q-4 4 -15.5 15t-15.5 16q-6 0 -23.5 1t-38 2t-38 2t-23.5 1q-59 0 -144 -19.5t-163 -59.5 t-133.5 -99.5t-55.5 -139.5z" />
<glyph unicode="&#xe9;" horiz-adv-x="1527" d="M59 553q0 106 59.5 205.5t151.5 175.5t204 121t214 45q80 0 160 -21.5t143.5 -64.5t103.5 -108.5t40 -153.5q0 -41 -6.5 -63.5t-20.5 -40t-37.5 -32t-60.5 -34.5q-18 -6 -56.5 -16.5t-87.5 -23t-101 -25.5t-101.5 -25.5t-87 -20.5t-56.5 -12q-8 -2 -39.5 -6t-67.5 -8.5 t-68 -9.5t-40 -7q-6 -4 -18.5 -15.5t-12.5 -15.5q0 -61 35 -104t89.5 -70.5t122 -42t133 -21.5t121.5 -8t91 -1q156 0 308.5 18t306.5 18v-25.5t-4 -40t-13.5 -37.5t-25.5 -22q-121 -23 -212 -36t-174 -19t-169 -7t-195 -1h-51t-78 1t-79 1h-52q-98 25 -168 81t-115 131 t-65.5 163t-20.5 178zM228 1192q0 39 24.5 65.5t61.5 38.5q80 27 139 41.5t109.5 24.5t94.5 19.5t93 24.5t107.5 41t136.5 69q4 6 19 22t22 21h4q2 0 4 1t4 1q29 0 40 -26t11 -48q0 -41 -35 -69.5t-69 -45.5q-59 -29 -81 -38t-42 -17q-29 -12 -110 -42t-178 -55.5 t-194.5 -38t-160.5 10.5zM268 606h125t142.5 6t141 20.5t122 44.5t86.5 76t33 117v17q-4 4 -15.5 15t-15.5 16q-6 0 -23.5 1t-38 2t-38 2t-23.5 1q-59 0 -144 -19.5t-163 -59.5t-133.5 -99.5t-55.5 -139.5z" />
<glyph unicode="&#xea;" horiz-adv-x="1527" d="M59 553q0 106 59.5 205.5t151.5 175.5t204 121t214 45q80 0 160 -21.5t143.5 -64.5t103.5 -108.5t40 -153.5q0 -41 -6.5 -63.5t-20.5 -40t-37.5 -32t-60.5 -34.5q-18 -6 -56.5 -16.5t-87.5 -23t-101 -25.5t-101.5 -25.5t-87 -20.5t-56.5 -12q-8 -2 -39.5 -6t-67.5 -8.5 t-68 -9.5t-40 -7q-6 -4 -18.5 -15.5t-12.5 -15.5q0 -61 35 -104t89.5 -70.5t122 -42t133 -21.5t121.5 -8t91 -1q156 0 308.5 18t306.5 18v-25.5t-4 -40t-13.5 -37.5t-25.5 -22q-121 -23 -212 -36t-174 -19t-169 -7t-195 -1h-51t-78 1t-79 1h-52q-98 25 -168 81t-115 131 t-65.5 163t-20.5 178zM268 606h125t142.5 6t141 20.5t122 44.5t86.5 76t33 117v17q-4 4 -15.5 15t-15.5 16q-6 0 -23.5 1t-38 2t-38 2t-23.5 1q-59 0 -144 -19.5t-163 -59.5t-133.5 -99.5t-55.5 -139.5zM283 1241q0 55 17 133t48 163t74 169t95 150.5t110.5 108.5t122.5 42 q18 0 41.5 1t44 -4t38 -18.5t23.5 -42.5q14 -92 45 -185t72 -182t89 -173t99 -162q-31 -49 -53.5 -72.5t-65.5 -23.5t-79.5 46t-69.5 114.5t-61.5 148.5t-54 148.5t-48 114.5t-43.5 46q-57 0 -90 -48t-53.5 -119.5t-35.5 -154.5t-39 -155t-60.5 -120t-102.5 -48 q-16 0 -27.5 15.5t-19.5 35t-12 40t-4 32.5z" />
<glyph unicode="&#xeb;" horiz-adv-x="1527" d="M59 553q0 106 59.5 205.5t151.5 175.5t204 121t214 45q80 0 160 -21.5t143.5 -64.5t103.5 -108.5t40 -153.5q0 -41 -6.5 -63.5t-20.5 -40t-37.5 -32t-60.5 -34.5q-18 -6 -56.5 -16.5t-87.5 -23t-101 -25.5t-101.5 -25.5t-87 -20.5t-56.5 -12q-8 -2 -39.5 -6t-67.5 -8.5 t-68 -9.5t-40 -7q-6 -4 -18.5 -15.5t-12.5 -15.5q0 -61 35 -104t89.5 -70.5t122 -42t133 -21.5t121.5 -8t91 -1q156 0 308.5 18t306.5 18v-25.5t-4 -40t-13.5 -37.5t-25.5 -22q-121 -23 -212 -36t-174 -19t-169 -7t-195 -1h-51t-78 1t-79 1h-52q-98 25 -168 81t-115 131 t-65.5 163t-20.5 178zM82 1497q0 41 33.5 67t77.5 41t90 20t71 5q35 0 68.5 -24.5t59.5 -60t42 -75.5t16 -69q0 -25 -1 -48.5t-7 -45t-21.5 -38.5t-41.5 -26q-6 0 -18.5 -1t-27 -1t-27.5 -1t-17 -1q-55 0 -108.5 14.5t-95.5 45t-67.5 79.5t-25.5 119zM268 606h125t142.5 6 t141 20.5t122 44.5t86.5 76t33 117v17q-4 4 -15.5 15t-15.5 16q-6 0 -23.5 1t-38 2t-38 2t-23.5 1q-59 0 -144 -19.5t-163 -59.5t-133.5 -99.5t-55.5 -139.5zM733 1489q0 41 33.5 66.5t78 41t90.5 20.5t70 5q35 0 68 -24.5t59.5 -60.5t42 -75.5t15.5 -68.5q0 -25 -1 -48.5 t-7.5 -45t-20.5 -39t-43 -25.5q-4 0 -17.5 -1t-27.5 -1t-26.5 -1t-18.5 -1q-55 0 -107.5 14.5t-94.5 45t-67.5 79.5t-25.5 119z" />
<glyph unicode="&#xec;" horiz-adv-x="274" d="M-88 1585q0 27 12.5 56.5t40.5 29.5q0 -2 2 -2h4h4q6 -4 21.5 -22.5t19.5 -26.5q78 -49 135.5 -80t106.5 -48t93 -28.5t94.5 -22.5t109.5 -29.5t139 -49.5q35 -12 59.5 -43t24.5 -78q-41 -18 -99 -16t-122.5 14t-131.5 33.5t-123 43t-100 41t-63 29.5q-20 10 -42.5 20.5 t-80.5 45.5q-33 20 -68.5 53t-35.5 80zM63 612q0 10 3.5 36t8.5 55.5t10 55t9 36.5q6 4 29.5 7t32.5 3q37 0 63.5 -44t44 -112.5t26.5 -151.5t14 -159t6 -136.5t1 -82.5q0 -12 1 -32.5t-2 -39t-13 -33t-35 -14.5h-14q-6 0 -19.5 4t-28 9t-27.5 10.5t-17 7.5 q-23 61 -40.5 135t-28.5 151.5t-17.5 153.5t-6.5 141z" />
<glyph unicode="&#xed;" horiz-adv-x="368" d="M-250 1231q0 39 24.5 65.5t61.5 38.5q80 27 139.5 41.5t109.5 24.5t94 19.5t93.5 24.5t107.5 40.5t136 68.5q4 6 19.5 22.5t21.5 20.5h4q2 0 4 1t4 1q29 0 40.5 -25.5t11.5 -47.5q0 -41 -35 -70t-70 -45q-59 -29 -80.5 -38t-42.5 -17q-29 -12 -109.5 -42t-178 -55.5 t-195 -38t-160.5 10.5zM63 612q0 -66 6.5 -141.5t17.5 -153t28.5 -151.5t40.5 -135q4 -2 17 -7.5t27.5 -10.5t28 -9t19.5 -4h14q25 0 35 14.5t13 33t2 38.5t-1 33q0 23 -1 83t-6 136t-14 159t-26.5 151.5t-44 112.5t-63.5 44q-8 0 -32 -3t-30 -7q-4 -10 -9 -36t-10 -55.5 t-8.5 -55t-3.5 -36.5z" />
<glyph unicode="&#xee;" horiz-adv-x="368" d="M-156 1112q0 47 12.5 115.5t35 144.5t54 149.5t70.5 133t82 96.5t90 37q14 0 31 1t32 -4t27.5 -17.5t18.5 -36.5q23 -164 86 -323t137 -296q-23 -43 -39 -64.5t-47 -21.5t-58.5 41t-52 101.5t-45 131t-39 131t-36 101.5t-31.5 41q-43 0 -66.5 -42t-39 -105.5 t-26.5 -137.5t-28.5 -137.5t-45 -105t-75.5 -41.5q-12 0 -20 13t-14.5 30.5t-9.5 36t-3 28.5zM63 612q0 10 3.5 36t8.5 55.5t10 55t9 36.5q6 4 29.5 7t32.5 3q37 0 63.5 -44t44 -112.5t26.5 -151.5t14 -159t6 -136.5t1 -82.5q0 -12 1 -32.5t-2 -39t-13 -33t-35 -14.5h-14 q-6 0 -19.5 4t-28 9t-27.5 10.5t-17 7.5q-23 61 -40.5 135t-28.5 151.5t-17.5 153.5t-6.5 141z" />
<glyph unicode="&#xef;" horiz-adv-x="368" d="M-176 1333q0 35 19.5 57.5t46 35t54 17.5t42.5 5q20 0 40.5 -21.5t37 -52.5t25.5 -64.5t9 -58.5q0 -41 -4 -79.5t-39 -55.5q-6 0 -27.5 -2t-25.5 -2q-33 0 -64.5 12.5t-57 39t-41 68.5t-15.5 101zM63 612q0 10 3.5 36t8.5 55.5t10 55t9 36.5q6 4 29.5 7t32.5 3 q37 0 63.5 -44t44 -112.5t26.5 -151.5t14 -159t6 -136.5t1 -82.5q0 -12 1 -32.5t-2 -39t-13 -33t-35 -14.5h-14q-6 0 -19.5 4t-28 9t-27.5 10.5t-17 7.5q-23 61 -40.5 135t-28.5 151.5t-17.5 153.5t-6.5 141zM215 1327q0 35 19.5 56.5t46 34t54 17.5t42.5 5q20 0 40.5 -21.5 t36 -51.5t24.5 -63.5t9 -58.5q0 -41 -4 -80t-39 -55q-4 0 -25.5 -2t-27.5 -2q-33 0 -64.5 12t-56 39t-40 69t-15.5 101z" />
<glyph unicode="&#xf0;" horiz-adv-x="1622" d="M121 442q0 94 33.5 155.5t89 98.5t125 51.5t141.5 14.5q12 0 31.5 -1t39 -1t35 -1t17.5 -1q20 -4 63 -15.5t96.5 -27t112 -32.5t111.5 -32.5t94 -30t61 -20.5q4 0 8.5 -2t8.5 -2l12 4q4 2 16.5 26.5t14.5 35.5v32q-6 53 -25.5 99.5t-50.5 86.5t-68.5 76.5t-76.5 71.5 q-86 -31 -169 -65.5t-163 -75.5q-14 -4 -24.5 5t-17.5 22.5t-11 27.5t-7 23q-16 43 4.5 72.5t54.5 51t72.5 36t61.5 24.5q10 4 21.5 10t23.5 10q-84 72 -140.5 142.5t-80 123t-12 80t61.5 12t142.5 -79t229.5 -190.5q113 47 226.5 93.5t252.5 99.5q6 0 16.5 -3t21.5 -8 t20.5 -11.5t11.5 -10.5t0 -28.5t-4 -38.5q0 -4 -6.5 -19.5t-10.5 -19.5q-45 -33 -77.5 -55.5t-63.5 -40t-63.5 -33t-75.5 -35.5q-27 -12 -52.5 -24.5t-54.5 -22.5q172 -203 248 -362.5t81 -280.5t-48.5 -208t-140.5 -145.5t-196.5 -92.5t-215.5 -50q-66 0 -151 10.5t-174 33 t-176 59t-154.5 90t-108.5 125t-41 163.5zM303 455q0 -68 38 -118t98.5 -84t135 -54.5t147.5 -31.5t137.5 -15.5t103.5 -4.5q12 0 41.5 1.5t62.5 3.5t62.5 3t41.5 1q39 18 51.5 37.5t12.5 54.5q0 68 -43 118t-109.5 85.5t-147.5 58t-160 36t-144.5 18.5t-100.5 5 q-29 0 -68.5 1t-74.5 -8t-59.5 -32.5t-24.5 -74.5z" />
<glyph unicode="&#xf1;" horiz-adv-x="1406" d="M12 1130q0 76 43 146.5t108.5 123t143.5 84t148 31.5q55 0 99 -20.5t81 -52t71.5 -67.5t73.5 -68t86.5 -52.5t110.5 -20.5q55 0 96 25t78 55.5t74 55t86 24.5q51 0 72.5 -23.5t37.5 -72.5q-23 -27 -64.5 -73t-92.5 -91t-106.5 -77.5t-100.5 -32.5q-80 0 -149.5 22.5 t-129 56t-109.5 73.5t-94 74t-81 56.5t-68 22.5q-51 0 -86 -20.5t-60.5 -51.5t-46 -67.5t-42 -67.5t-49 -51.5t-66.5 -20.5q-41 0 -52.5 21.5t-11.5 58.5zM52 409.5q7 71.5 7 125.5v52t1 79t1 77.5v51.5q10 25 26.5 28.5t35.5 3.5q27 0 47 -33.5t34.5 -79.5t25 -92.5 t16.5 -70.5q37 6 67.5 30.5t63.5 58.5t70.5 72t89 70.5t118 54t156.5 21.5q178 0 288.5 -75.5t172 -198.5t84 -280t22.5 -316q-96 0 -146 29.5t-72.5 77.5t-26 109.5t-4.5 126t-8 127t-36.5 110.5t-92 78t-175.5 30q-109 0 -192.5 -41t-148 -102.5t-109.5 -133t-77 -133 t-49.5 -102.5t-25.5 -41q-84 0 -118 44t-43 107.5t-2 135z" />
<glyph unicode="&#xf2;" horiz-adv-x="1314" d="M16 1511q0 16 4 36t13.5 36t23.5 27.5t37 11.5q2 0 4 -1t6 -1q4 -2 6 -2q4 -2 13.5 -10.5t19.5 -18.5t18.5 -19.5t10.5 -13.5q115 -63 200.5 -101t158.5 -61.5t138.5 -37t139 -28.5t161.5 -37.5t207 -61.5q53 -16 90 -56.5t37 -99.5q-63 -23 -149 -20.5t-182.5 18.5 t-195 43t-183 55.5t-149.5 53t-93 36.5q-14 6 -28.5 11.5t-34 14.5t-47 22.5t-70.5 35.5q-25 12 -52.5 28.5t-50 38t-38 46.5t-15.5 55zM59 373q0 104 38 216.5t107.5 206t169 154t222.5 60.5q174 0 294 -34t194.5 -105.5t108.5 -181t34 -261.5q0 -10 -1 -35.5t-1 -55.5 t-1 -56.5t-1 -36.5q-23 -80 -86.5 -128t-143.5 -74t-165 -35t-152 -9q-96 0 -205 12.5t-200 51t-151.5 113.5t-60.5 198zM215 412q0 -82 49 -133.5t120 -80t148.5 -38.5t137.5 -10q55 0 98 1t84 10t85 28.5t103 54.5q29 49 31 97t2 101q0 106 -39 188.5t-108.5 133.5 t-165.5 67.5t-209 -6.5q-49 -10 -107.5 -57t-109.5 -109.5t-85 -129t-34 -117.5z" />
<glyph unicode="&#xf3;" horiz-adv-x="1314" d="M59 373q0 104 38 216.5t107.5 206t169 154t222.5 60.5q174 0 294 -34t194.5 -105.5t108.5 -181t34 -261.5q0 -10 -1 -35.5t-1 -55.5t-1 -56.5t-1 -36.5q-23 -80 -86.5 -128t-143.5 -74t-165 -35t-152 -9q-96 0 -205 12.5t-200 51t-151.5 113.5t-60.5 198zM73 1003 q0 46 28.5 77.5t70.5 45.5q92 33 160 50t126 29t108.5 23.5t106.5 29t123 48.5t157 83q5 7 22 26t25 25h5q2 0 4.5 1t4.5 1q33 0 45.5 -31t12.5 -57q0 -49 -40 -83t-79 -54q-68 -35 -93 -45.5t-48 -20.5q-34 -14 -127 -49.5t-204 -66t-223 -45.5t-185 13zM215 412 q0 -82 49 -133.5t120 -80t148.5 -38.5t137.5 -10q55 0 98 1t84 10t85 28.5t103 54.5q29 49 31 97t2 101q0 106 -39 188.5t-108.5 133.5t-165.5 67.5t-209 -6.5q-49 -10 -107.5 -57t-109.5 -109.5t-85 -129t-34 -117.5z" />
<glyph unicode="&#xf4;" horiz-adv-x="1314" d="M59 373q0 104 38 216.5t107.5 206t169 154t222.5 60.5q174 0 294 -34t194.5 -105.5t108.5 -181t34 -261.5q0 -10 -1 -35.5t-1 -55.5t-1 -56.5t-1 -36.5q-23 -80 -86.5 -128t-143.5 -74t-165 -35t-152 -9q-96 0 -205 12.5t-200 51t-151.5 113.5t-60.5 198zM215 412 q0 -82 49 -133.5t120 -80t148.5 -38.5t137.5 -10q55 0 98 1t84 10t85 28.5t103 54.5q29 49 31 97t2 101q0 106 -39 188.5t-108.5 133.5t-165.5 67.5t-209 -6.5q-49 -10 -107.5 -57t-109.5 -109.5t-85 -129t-34 -117.5zM217 1272q0 55 17 133t48 163t74 169t95 150.5 t110.5 108.5t122.5 42q18 0 41.5 1t44 -4t38 -18.5t23.5 -42.5q14 -92 45 -185t72 -182t89 -173t99 -162q-31 -49 -53.5 -72.5t-65.5 -23.5t-79.5 46t-69.5 114.5t-61.5 148.5t-54 148.5t-48 114.5t-43.5 46q-57 0 -90 -48t-53.5 -119.5t-35.5 -154.5t-39 -155t-60.5 -120 t-102.5 -48q-16 0 -27.5 15.5t-19.5 35t-12 40t-4 32.5z" />
<glyph unicode="&#xf5;" horiz-adv-x="1314" d="M-4 1212q0 76 43 146.5t108.5 123t143.5 84t148 31.5q55 0 99 -20.5t81 -52t71.5 -67.5t73.5 -68t86.5 -52.5t110.5 -20.5q55 0 96 25t78 55.5t74 55t86 24.5q51 0 72.5 -23.5t37.5 -72.5q-23 -27 -64.5 -73t-92.5 -91t-106.5 -77.5t-100.5 -32.5q-80 0 -149.5 22.5 t-129 56t-109.5 73.5t-94 74t-81 56.5t-68 22.5q-51 0 -86 -20.5t-60.5 -51.5t-46 -67.5t-42 -67.5t-49 -51.5t-66.5 -20.5q-41 0 -52.5 21.5t-11.5 58.5zM59 373q0 104 38 216.5t107.5 206t169 154t222.5 60.5q174 0 294 -34t194.5 -105.5t108.5 -181t34 -261.5 q0 -10 -1 -35.5t-1 -55.5t-1 -56.5t-1 -36.5q-23 -80 -86.5 -128t-143.5 -74t-165 -35t-152 -9q-96 0 -205 12.5t-200 51t-151.5 113.5t-60.5 198zM215 412q0 -82 49 -133.5t120 -80t148.5 -38.5t137.5 -10q55 0 98 1t84 10t85 28.5t103 54.5q29 49 31 97t2 101 q0 106 -39 188.5t-108.5 133.5t-165.5 67.5t-209 -6.5q-49 -10 -107.5 -57t-109.5 -109.5t-85 -129t-34 -117.5z" />
<glyph unicode="&#xf6;" horiz-adv-x="1314" d="M59 373q0 104 38 216.5t107.5 206t169 154t222.5 60.5q174 0 294 -34t194.5 -105.5t108.5 -181t34 -261.5q0 -10 -1 -35.5t-1 -55.5t-1 -56.5t-1 -36.5q-23 -80 -86.5 -128t-143.5 -74t-165 -35t-152 -9q-96 0 -205 12.5t-200 51t-151.5 113.5t-60.5 198zM105 1421 q0 41 33.5 67t77.5 41t90 20t71 5q35 0 68.5 -24.5t59.5 -60t42 -75.5t16 -69q0 -25 -1 -48.5t-7 -45t-21.5 -38.5t-41.5 -26q-6 0 -18.5 -1t-27 -1t-27.5 -1t-17 -1q-55 0 -108.5 14.5t-95.5 45t-67.5 79.5t-25.5 119zM215 412q0 -82 49 -133.5t120 -80t148.5 -38.5 t137.5 -10q55 0 98 1t84 10t85 28.5t103 54.5q29 49 31 97t2 101q0 106 -39 188.5t-108.5 133.5t-165.5 67.5t-209 -6.5q-49 -10 -107.5 -57t-109.5 -109.5t-85 -129t-34 -117.5zM756 1413q0 41 33.5 66.5t78 41t90.5 20.5t70 5q35 0 68 -24.5t59.5 -60.5t42 -75.5 t15.5 -68.5q0 -25 -1 -48.5t-7.5 -45t-20.5 -39t-43 -25.5q-4 0 -17.5 -1t-27.5 -1t-26.5 -1t-18.5 -1q-55 0 -107.5 14.5t-94.5 45t-67.5 79.5t-25.5 119z" />
<glyph unicode="&#xf7;" horiz-adv-x="1691" d="M396 629.5q1 15.5 1 25.5q0 45 33 64.5t77 25t91 1t76 -4.5q117 0 221 -2t209.5 -7t216.5 -11t240 -12q6 -2 16 -9.5t19.5 -17.5t17.5 -19.5t8 -15.5q0 -4 -11.5 -27.5t-19.5 -33.5q-2 -4 -14 -16.5t-16 -14.5q-61 -12 -105.5 -18.5t-83.5 -9.5t-80 -3h-94 q-96 0 -192.5 6.5t-192.5 13.5t-191.5 11t-191.5 0q-16 2 -23.5 15.5t-9.5 28.5t-1 30.5zM676 158q0 63 22.5 115.5t62.5 89t93 57t115 20.5q39 0 75.5 -19.5t64.5 -50t44 -69.5t16 -78q0 -4 -1 -16t-1 -14q-47 -43 -81.5 -68t-66.5 -38t-66.5 -16t-82.5 -3q-25 0 -57.5 1 t-63 10t-52 26.5t-21.5 52.5zM778 1079q0 53 17.5 88t49.5 55.5t75 29t94 8.5q76 0 122 -55.5t46 -135.5q0 -41 -24.5 -70.5t-59.5 -48t-75 -27t-73 -8.5q-96 0 -134 34t-38 130z" />
<glyph unicode="&#xf8;" horiz-adv-x="1314" d="M59 373q0 104 38 216.5t107.5 206t169 154t222.5 60.5q174 0 294 -34t194.5 -105.5t108.5 -181t34 -261.5q0 -10 -1 -35.5t-1 -55.5t-1 -56.5t-1 -36.5q-23 -80 -86.5 -128t-143.5 -74t-165 -35t-152 -9q-96 0 -205 12.5t-200 51t-151.5 113.5t-60.5 198zM215 412 q0 -82 49 -133.5t120 -80t148.5 -38.5t137.5 -10q55 0 98 1t84 10t85 28.5t103 54.5q29 49 31 97t2 101q0 106 -39 188.5t-108.5 133.5t-165.5 67.5t-209 -6.5q-49 -10 -107.5 -57t-109.5 -109.5t-85 -129t-34 -117.5zM242 -240q0 76 20.5 141.5t49 128t61.5 124t55 126.5 q2 10 15.5 55.5t29 96.5t28.5 96t17 58q14 35 47 106.5l75 162.5t88 191.5t89 190.5t77 160.5t52 105.5q4 14 15.5 21.5t26 10.5t27.5 2t24 -1q59 0 76.5 -17.5t17.5 -76.5q0 -8 -1 -32t-1 -30q-111 -170 -210 -379t-184 -427t-155 -429t-125 -385q-10 -29 -19.5 -47 t-23.5 -28.5t-33.5 -14.5t-48.5 -4q-53 0 -71.5 21.5t-18.5 72.5z" />
<glyph unicode="&#xf9;" horiz-adv-x="1925" d="M-16 1618q0 16 4 36t13.5 36t23.5 27.5t37 11.5q2 0 4 -1t6 -1q4 -2 6 -2q4 -2 13.5 -10.5t19.5 -18.5t18.5 -19.5t10.5 -13.5q115 -63 200.5 -101t158.5 -61.5t138.5 -37t139 -28.5t161.5 -37.5t207 -61.5q53 -16 90 -56.5t37 -99.5q-63 -23 -149 -20.5t-182.5 18.5 t-195 43t-183 55.5t-149.5 53t-93 36.5q-14 6 -28.5 11.5t-34 14.5t-47 22.5t-70.5 35.5q-25 12 -52.5 28.5t-50 38t-38 46.5t-15.5 55zM29 446v88.5t2 121t11 134t25.5 127t45 100.5t71.5 52q23 6 40.5 -8t28.5 -35.5t17 -44.5t4 -33q0 -8 -9 -39.5t-20.5 -67.5t-20.5 -68 t-9 -40q0 -2 -1 -24.5t-1 -52t-1 -61.5t-1 -50q0 -43 -2 -94.5t4 -101.5t26.5 -94t65.5 -71q6 0 23.5 -1t38 -1t38 -1t23.5 -1q168 0 319.5 75t262.5 204q-2 20 -3 72.5t-1 110.5t1 110.5t3 72.5q0 18 5 40t16 40.5t27.5 30.5t41.5 12q45 0 64.5 -34.5t27.5 -91t12 -129 t20.5 -149.5t52.5 -151t108.5 -133t188.5 -96t292 -41q0 -4 1 -15.5t1 -15.5q0 -49 -42 -69.5t-98.5 -25.5t-114 -2t-85.5 3q-92 0 -169 44t-134.5 96t-94.5 96.5t-45 44.5q-80 0 -160.5 -40t-165.5 -89.5t-175 -89.5t-187 -40q-10 0 -35.5 1.5t-55.5 2.5t-55.5 3t-35.5 4 q-57 35 -94 82t-57.5 101t-27.5 113.5t-7 118.5z" />
<glyph unicode="&#xfa;" horiz-adv-x="1925" d="M29 446v88.5t2 121t11 134t25.5 127t45 100.5t71.5 52q23 6 40.5 -8t28.5 -35.5t17 -44.5t4 -33q0 -8 -9 -39.5t-20.5 -67.5t-20.5 -68t-9 -40q0 -2 -1 -24.5t-1 -52t-1 -61.5t-1 -50q0 -43 -2 -94.5t4 -101.5t26.5 -94t65.5 -71q6 0 23.5 -1t38 -1t38 -1t23.5 -1 q168 0 319.5 75t262.5 204q-2 20 -3 72.5t-1 110.5t1 110.5t3 72.5q0 18 5 40t16 40.5t27.5 30.5t41.5 12q45 0 64.5 -34.5t27.5 -91t12 -129t20.5 -149.5t52.5 -151t108.5 -133t188.5 -96t292 -41q0 -4 1 -15.5t1 -15.5q0 -49 -42 -69.5t-98.5 -25.5t-114 -2t-85.5 3 q-92 0 -169 44t-134.5 96t-94.5 96.5t-45 44.5q-80 0 -160.5 -40t-165.5 -89.5t-175 -89.5t-187 -40q-10 0 -35.5 1.5t-55.5 2.5t-55.5 3t-35.5 4q-57 35 -94 82t-57.5 101t-27.5 113.5t-7 118.5zM320 1305q0 39 24.5 65.5t61.5 38.5q80 27 139 41.5t109.5 24.5t94.5 19.5 t93 24.5t107.5 41t136.5 69q4 6 19 22t22 21h4q2 0 4 1t4 1q29 0 40 -26t11 -48q0 -41 -35 -69.5t-69 -45.5q-59 -29 -81 -38t-42 -17q-29 -12 -110 -42t-178 -55.5t-194.5 -38t-160.5 10.5z" />
<glyph unicode="&#xfb;" horiz-adv-x="1925" d="M29 446v88.5t2 121t11 134t25.5 127t45 100.5t71.5 52q23 6 40.5 -8t28.5 -35.5t17 -44.5t4 -33q0 -8 -9 -39.5t-20.5 -67.5t-20.5 -68t-9 -40q0 -2 -1 -24.5t-1 -52t-1 -61.5t-1 -50q0 -43 -2 -94.5t4 -101.5t26.5 -94t65.5 -71q6 0 23.5 -1t38 -1t38 -1t23.5 -1 q168 0 319.5 75t262.5 204q-2 20 -3 72.5t-1 110.5t1 110.5t3 72.5q0 18 5 40t16 40.5t27.5 30.5t41.5 12q45 0 64.5 -34.5t27.5 -91t12 -129t20.5 -149.5t52.5 -151t108.5 -133t188.5 -96t292 -41q0 -4 1 -15.5t1 -15.5q0 -49 -42 -69.5t-98.5 -25.5t-114 -2t-85.5 3 q-92 0 -169 44t-134.5 96t-94.5 96.5t-45 44.5q-80 0 -160.5 -40t-165.5 -89.5t-175 -89.5t-187 -40q-10 0 -35.5 1.5t-55.5 2.5t-55.5 3t-35.5 4q-57 35 -94 82t-57.5 101t-27.5 113.5t-7 118.5zM179 1358q0 55 17 133t48 163t74 169t95 150.5t110.5 108.5t122.5 42 q18 0 41.5 1t44 -4t38 -18.5t23.5 -42.5q14 -92 45 -185t72 -182t89 -173t99 -162q-31 -49 -53.5 -72.5t-65.5 -23.5t-79.5 46t-69.5 114.5t-61.5 148.5t-54 148.5t-48 114.5t-43.5 46q-57 0 -90 -48t-53.5 -119.5t-35.5 -154.5t-39 -155t-60.5 -120t-102.5 -48 q-16 0 -27.5 15.5t-19.5 35t-12 40t-4 32.5z" />
<glyph unicode="&#xfc;" horiz-adv-x="1925" d="M29 446v88.5t2 121t11 134t25.5 127t45 100.5t71.5 52q23 6 40.5 -8t28.5 -35.5t17 -44.5t4 -33q0 -8 -9 -39.5t-20.5 -67.5t-20.5 -68t-9 -40q0 -2 -1 -24.5t-1 -52t-1 -61.5t-1 -50q0 -43 -2 -94.5t4 -101.5t26.5 -94t65.5 -71q6 0 23.5 -1t38 -1t38 -1t23.5 -1 q168 0 319.5 75t262.5 204q-2 20 -3 72.5t-1 110.5t1 110.5t3 72.5q0 18 5 40t16 40.5t27.5 30.5t41.5 12q45 0 64.5 -34.5t27.5 -91t12 -129t20.5 -149.5t52.5 -151t108.5 -133t188.5 -96t292 -41q0 -4 1 -15.5t1 -15.5q0 -49 -42 -69.5t-98.5 -25.5t-114 -2t-85.5 3 q-92 0 -169 44t-134.5 96t-94.5 96.5t-45 44.5q-80 0 -160.5 -40t-165.5 -89.5t-175 -89.5t-187 -40q-10 0 -35.5 1.5t-55.5 2.5t-55.5 3t-35.5 4q-57 35 -94 82t-57.5 101t-27.5 113.5t-7 118.5zM156 1495q0 41 33.5 67t77.5 41t90 20t71 5q35 0 68.5 -24.5t59.5 -60 t42 -75.5t16 -69q0 -25 -1 -48.5t-7 -45t-21.5 -38.5t-41.5 -26q-6 0 -18.5 -1t-27 -1t-27.5 -1t-17 -1q-55 0 -108.5 14.5t-95.5 45t-67.5 79.5t-25.5 119zM807 1487q0 41 33.5 66.5t78 41t90.5 20.5t70 5q35 0 68 -24.5t59.5 -60.5t42 -75.5t15.5 -68.5q0 -25 -1 -48.5 t-7.5 -45t-20.5 -39t-43 -25.5q-4 0 -17.5 -1t-27.5 -1t-26.5 -1t-18.5 -1q-55 0 -107.5 14.5t-94.5 45t-67.5 79.5t-25.5 119z" />
<glyph unicode="&#xfd;" horiz-adv-x="1222" d="M-246 -1061q0 39 5 92.5t21.5 103.5t47.5 88t82 44q0 -4 1 -15.5t1 -15.5q0 -23 -6 -42t-12.5 -38.5t-12.5 -40t-6 -47.5q0 -135 72.5 -231.5t182.5 -157.5t240 -90t244 -29q100 0 173 35t124.5 93.5t83 135t49 159.5t23.5 167t6 160q0 12 -2 75.5t-7 150.5t-15.5 185.5 t-25.5 181.5t-36.5 137t-50.5 54q-61 0 -118.5 -15.5t-114 -34.5t-117 -34.5t-127.5 -15.5q-12 0 -43 1t-65 2t-63.5 2t-41.5 1q-68 25 -110 76t-66.5 115.5t-32.5 134t-8 131.5q0 86 2 155.5t30 151.5q4 4 23.5 5t24.5 1q53 0 71.5 -46t23.5 -114.5t6 -149.5t22.5 -149.5 t73.5 -114.5t159 -46q143 0 226 35.5t123 105t46 173t-4 238.5q-2 41 15.5 53.5t46.5 12.5q31 0 65.5 -68.5t67 -174t63.5 -230.5t54.5 -237.5t38 -196.5t16.5 -105q2 -18 11 -90t19.5 -154.5t19.5 -154.5t11 -90v-17q0 -162 -39 -313t-122 -269t-211 -188.5t-306 -70.5 q-74 0 -166 12t-187 39t-184 70t-160 101t-113 135t-42 173zM138 1024q0 39 24.5 65.5t61.5 38.5q80 27 139 41.5t109.5 24.5t94.5 19.5t93 24.5t107.5 41t136.5 69q4 6 19 22t22 21h4q2 0 4 1t4 1q29 0 40 -26t11 -48q0 -41 -35 -69.5t-69 -45.5q-59 -29 -81 -38t-42 -17 q-29 -12 -110 -42t-178 -55.5t-194.5 -38t-160.5 10.5z" />
<glyph unicode="&#xfe;" horiz-adv-x="1327" d="M52 1859.5q-3 102.5 9 143.5l232 16l-35 -647q184 96 326.5 130t250 21.5t182.5 -63.5t123 -124.5t72.5 -164t32.5 -180.5q0 -82 -56 -143.5t-144.5 -107.5t-197 -76.5t-214 -52t-196.5 -34t-142 -18.5q-18 -33 -23.5 -99.5t-4.5 -148.5t3 -166t-4 -151l-188 14 q25 221 29 444.5t-1.5 431.5t-17.5 393t-22.5 332.5t-13.5 250zM252 975.5q-12 -107.5 24 -250.5q53 0 133 6t167.5 20.5t174.5 40t156.5 64.5t112.5 92t43 125q-6 72 -52 126t-115 88t-151.5 45t-163.5 -3t-153 -56t-118 -116t-58 -181.5z" />
<glyph unicode="&#xff;" horiz-adv-x="1222" d="M-246 -1061q0 39 5 92.5t21.5 103.5t47.5 88t82 44q0 -4 1 -15.5t1 -15.5q0 -23 -6 -42t-12.5 -38.5t-12.5 -40t-6 -47.5q0 -135 72.5 -231.5t182.5 -157.5t240 -90t244 -29q100 0 173 35t124.5 93.5t83 135t49 159.5t23.5 167t6 160q0 12 -2 75.5t-7 150.5t-15.5 185.5 t-25.5 181.5t-36.5 137t-50.5 54q-61 0 -118.5 -15.5t-114 -34.5t-117 -34.5t-127.5 -15.5q-12 0 -43 1t-65 2t-63.5 2t-41.5 1q-68 25 -110 76t-66.5 115.5t-32.5 134t-8 131.5q0 86 2 155.5t30 151.5q4 4 23.5 5t24.5 1q53 0 71.5 -46t23.5 -114.5t6 -149.5t22.5 -149.5 t73.5 -114.5t159 -46q143 0 226 35.5t123 105t46 173t-4 238.5q-2 41 15.5 53.5t46.5 12.5q31 0 65.5 -68.5t67 -174t63.5 -230.5t54.5 -237.5t38 -196.5t16.5 -105q2 -18 11 -90t19.5 -154.5t19.5 -154.5t11 -90v-17q0 -162 -39 -313t-122 -269t-211 -188.5t-306 -70.5 q-74 0 -166 12t-187 39t-184 70t-160 101t-113 135t-42 173zM86 1223q0 39 26 63t60.5 38t70 18.5t54.5 4.5q28 0 54 -22.5t46 -56t32.5 -70.5t12.5 -64q0 -24 -1 -45.5t-5.5 -42t-16.5 -36t-32 -24.5q-5 0 -14.5 -1t-21 -1t-21.5 -0.5t-13 -0.5q-43 0 -84.5 13.5t-74 42 t-52.5 74t-20 110.5zM592 1216q0 38 26 62t60.5 38.5t70.5 19t54 4.5q28 0 53.5 -23t46 -56.5t32.5 -70.5t12 -64q0 -23 -0.5 -45t-5.5 -42t-16 -36.5t-34 -23.5q-3 0 -13.5 -1t-21.5 -1t-20.5 -1t-14.5 -1q-42 0 -83 13.5t-73.5 42t-52.5 74.5t-20 111z" />
<glyph unicode="&#x152;" horiz-adv-x="2840" d="M31 641q0 90 35.5 173t96 154.5t140.5 130t167 100.5t175 64.5t168 22.5q168 0 297 -56t216 -157.5t131 -240t44 -300.5q0 -270 -154.5 -402t-439.5 -132q-82 0 -179 19.5t-194.5 57.5t-188.5 93t-160.5 126t-111.5 158t-42 189zM242 639q0 -72 32.5 -133.5t87 -112.5 t123 -91t141 -66.5t142.5 -41t127 -14.5q98 0 183 17.5t147.5 59.5t101.5 113.5t49 180.5q10 125 -31.5 227.5t-118.5 173t-181.5 109.5t-219.5 39q-88 0 -190.5 -36t-189.5 -97.5t-145 -145.5t-58 -182zM1368 432q0 174 20.5 363.5t42.5 357.5q8 63 63.5 106.5t140.5 70 t186.5 42t200.5 21.5t186 7t143 1q27 0 88 4t122.5 -2t108.5 -27.5t47 -72.5q0 -25 -11 -43.5t-52 -14.5q-262 29 -526.5 -9t-514.5 -114q2 -8 2 -28.5v-45v-47t-2 -30.5q0 -4 -5 -22.5t-10 -39t-10 -39t-5 -22.5t12 -15.5t18 -15.5h13h18q18 2 74.5 6.5t132.5 11.5t161 13 t160.5 13.5t132 11.5t74.5 6h12.5t24 1t26.5 1h19q57 0 81 -11.5t24 -70.5q0 -63 -75 -84t-187.5 -22t-243.5 3.5t-243.5 -11t-187.5 -64.5t-75 -156q0 -109 41 -175.5t108.5 -102t155.5 -47t183.5 -11.5t189.5 6.5t174 6.5q76 0 136.5 17t125.5 17q20 0 30.5 -10 t14.5 -24.5t4 -32v-29.5v-34.5t-5 -28t-18.5 -18.5t-39.5 -7h-887q-104 0 -180 34t-125 93t-71.5 140t-22.5 173z" />
<glyph unicode="&#x153;" horiz-adv-x="2560" d="M59 373q0 104 38 216.5t107.5 206t169 154t222.5 60.5q174 0 294 -34t194.5 -105.5t108.5 -181t34 -261.5q0 -10 -1 -35.5t-1 -55.5t-1 -56.5t-1 -36.5q-23 -80 -86.5 -128t-143.5 -74t-165 -35t-152 -9q-96 0 -205 12.5t-200 51t-151.5 113.5t-60.5 198zM215 412 q0 -82 49 -133.5t120 -80t148.5 -38.5t137.5 -10q55 0 98 1t84 10t85 28.5t103 54.5q29 49 31 97t2 101q0 106 -39 188.5t-108.5 133.5t-165.5 67.5t-209 -6.5q-49 -10 -107.5 -57t-109.5 -109.5t-85 -129t-34 -117.5zM1050 545q0 106 59.5 205.5t151.5 175.5t204 121 t214 45q80 0 160 -21.5t143.5 -64.5t103.5 -108.5t40 -153.5q0 -41 -6.5 -63.5t-20.5 -40t-37.5 -32t-60.5 -34.5q-18 -6 -56.5 -16.5t-87.5 -23t-101 -25.5t-101.5 -25.5t-87 -20.5t-56.5 -12q-8 -2 -39.5 -6t-67.5 -8.5t-68 -9.5t-40 -7q-6 -4 -18.5 -15.5t-12.5 -15.5 q0 -61 35 -104t89.5 -70.5t122 -42t133 -21.5t121.5 -8t91 -1q156 0 308.5 18t306.5 18v-25.5t-4 -40t-13.5 -37.5t-25.5 -22q-121 -23 -212 -36t-174 -19t-169 -7t-195 -1h-51t-78 1t-79 1h-52q-98 25 -168 81t-115 131t-65.5 163t-20.5 178zM1259 598h125t142.5 6 t141 20.5t122 44.5t86.5 76t33 117v17q-4 4 -15.5 15t-15.5 16q-6 0 -23.5 1t-38 2t-38 2t-23.5 1q-59 0 -144 -19.5t-163 -59.5t-133.5 -99.5t-55.5 -139.5z" />
<glyph unicode="&#x178;" horiz-adv-x="1314" d="M0 1620q0 59 14.5 79.5t61.5 20.5q4 0 23.5 -3t23.5 -5q31 -45 72 -108.5t91 -131t107.5 -135t118.5 -121t124.5 -86t127.5 -32.5q4 0 16.5 1t14.5 1q8 14 22 42.5t32.5 64.5t39 76t38 77t32 64.5t20.5 41.5q10 20 20.5 60.5t24.5 88.5t32.5 98t41 91t49.5 67.5t61 26.5 q0 -2 2 -2h7q4 -2 6 -2q4 -2 13 -10t19.5 -17t18.5 -18.5t10 -13.5q-59 -229 -145 -452.5t-191 -434.5v-61q-23 -27 -72 -102.5t-108 -174t-124.5 -207t-122 -198.5t-97.5 -148.5t-53 -58.5q-53 0 -60.5 30.5t-7.5 77.5q0 10 1 39t1 39q12 20 37 65.5t55.5 103t63.5 121 t63.5 120.5t54 102t33.5 68q4 8 13.5 29.5t18.5 46t17.5 46t10.5 32.5q-39 49 -104.5 99t-140.5 102t-150.5 108.5t-137 118t-100.5 129t-39 145.5zM13 2236q0 41 33.5 67t77.5 41t90 20t71 5q35 0 68.5 -24.5t59.5 -60t42 -75.5t16 -69q0 -25 -1 -48.5t-7 -45t-21.5 -38.5 t-41.5 -26q-6 0 -18.5 -1t-27 -1t-27.5 -1t-17 -1q-55 0 -108.5 14.5t-95.5 45t-67.5 79.5t-25.5 119zM664 2228q0 41 33.5 66.5t78 41t90.5 20.5t70 5q35 0 68 -24.5t59.5 -60.5t42 -75.5t15.5 -68.5q0 -25 -1 -48.5t-7.5 -45t-20.5 -39t-43 -25.5q-4 0 -17.5 -1t-27.5 -1 t-26.5 -1t-18.5 -1q-55 0 -107.5 14.5t-94.5 45t-67.5 79.5t-25.5 119z" />
<glyph unicode="&#x2c6;" horiz-adv-x="978" d="M29 1407q0 55 17 133t48 163t74 169t95 150.5t110.5 108.5t122.5 42q18 0 41.5 1t44 -4t38 -18.5t23.5 -42.5q14 -92 45 -185t72 -182t89 -173t99 -162q-31 -49 -53.5 -72.5t-65.5 -23.5t-79.5 46t-69.5 114.5t-61.5 148.5t-54 148.5t-48 114.5t-43.5 46q-57 0 -90 -48 t-53.5 -119.5t-35.5 -154.5t-39 -155t-60.5 -120t-102.5 -48q-16 0 -27.5 15.5t-19.5 35t-12 40t-4 32.5z" />
<glyph unicode="&#x2dc;" horiz-adv-x="1497" d="M59 1452q0 76 43 146.5t108.5 123t143.5 84t148 31.5q55 0 99 -20.5t81 -52t71.5 -67.5t73.5 -68t86.5 -52.5t110.5 -20.5q55 0 96 25t78 55.5t74 55t86 24.5q51 0 72.5 -23.5t37.5 -72.5q-23 -27 -64.5 -73t-92.5 -91t-106.5 -77.5t-100.5 -32.5q-80 0 -149.5 22.5 t-129 56t-109.5 73.5t-94 74t-81 56.5t-68 22.5q-51 0 -86 -20.5t-60.5 -51.5t-46 -67.5t-42 -67.5t-49 -51.5t-66.5 -20.5q-41 0 -52.5 21.5t-11.5 58.5z" />
<glyph unicode="&#x2000;" horiz-adv-x="1498" />
<glyph unicode="&#x2001;" horiz-adv-x="2997" />
<glyph unicode="&#x2002;" horiz-adv-x="1498" />
<glyph unicode="&#x2003;" horiz-adv-x="2997" />
<glyph unicode="&#x2004;" horiz-adv-x="999" />
<glyph unicode="&#x2005;" horiz-adv-x="749" />
<glyph unicode="&#x2006;" horiz-adv-x="499" />
<glyph unicode="&#x2007;" horiz-adv-x="499" />
<glyph unicode="&#x2008;" horiz-adv-x="374" />
<glyph unicode="&#x2009;" horiz-adv-x="599" />
<glyph unicode="&#x200a;" horiz-adv-x="166" />
<glyph unicode="&#x2010;" horiz-adv-x="944" d="M74.5 808q31.5 30 109.5 46t184.5 20.5t207 2t177 -10.5t97.5 -16q0 -16 4 -36.5t4 -39t-8 -32t-33 -13.5l-725 4q-49 45 -17.5 75z" />
<glyph unicode="&#x2011;" horiz-adv-x="944" d="M74.5 808q31.5 30 109.5 46t184.5 20.5t207 2t177 -10.5t97.5 -16q0 -16 4 -36.5t4 -39t-8 -32t-33 -13.5l-725 4q-49 45 -17.5 75z" />
<glyph unicode="&#x2012;" horiz-adv-x="944" d="M74.5 808q31.5 30 109.5 46t184.5 20.5t207 2t177 -10.5t97.5 -16q0 -16 4 -36.5t4 -39t-8 -32t-33 -13.5l-725 4q-49 45 -17.5 75z" />
<glyph unicode="&#x2013;" horiz-adv-x="1138" d="M72.5 792.5q17.5 24.5 71 41t134 25.5t172 13.5t185.5 3t173 -5.5t134 -11t70 -13q0 -16 4 -37t4 -39t-8 -31.5t-33 -13.5l-887 8q-37 35 -19.5 59.5z" />
<glyph unicode="&#x2014;" horiz-adv-x="1390" d="M86 792.5q31 24.5 105.5 41t184 25.5t230.5 13.5t243 3t222 -5.5t169 -11t83 -13q0 -16 4 -37t4 -39t-8 -31.5t-33 -13.5l-1198 8q-37 35 -6 59.5z" />
<glyph unicode="&#x2018;" horiz-adv-x="243" d="M-3 1359.5q-1 43.5 1 96.5t8 110.5t20.5 104.5t37 77t59.5 30q47 0 70.5 -32t23.5 -73q0 -88 -7 -169t-14.5 -160.5t-11.5 -162.5t0 -171q-4 -8 -27.5 -19.5t-33.5 -11.5q-37 0 -61.5 41t-38 94t-19.5 106t-6 76q0 20 -1 63.5z" />
<glyph unicode="&#x2019;" horiz-adv-x="243" d="M-3 1359.5q-1 43.5 1 96.5t8 110.5t20.5 104.5t37 77t59.5 30q47 0 70.5 -32t23.5 -73q0 -88 -7 -169t-14.5 -160.5t-11.5 -162.5t0 -171q-4 -8 -27.5 -19.5t-33.5 -11.5q-37 0 -61.5 41t-38 94t-19.5 106t-6 76q0 20 -1 63.5z" />
<glyph unicode="&#x201a;" horiz-adv-x="514" d="M187 43q-1 43 1 96.5t8.5 110.5t20.5 104t36.5 77t59.5 30q47 0 71 -32t24 -73q0 -88 -7.5 -169t-14.5 -160.5t-11 -162.5t0 -171q-4 -8 -27.5 -19.5t-34.5 -11.5q-37 0 -61.5 41t-37.5 94t-19.5 106.5t-6.5 76.5q0 20 -1 63z" />
<glyph unicode="&#x201c;" horiz-adv-x="978" d="M98 1432v671q0 37 32.5 51.5t59.5 14.5q25 0 59 -14.5t34 -51.5v-641q0 -35 -30 -64.5t-63 -29.5q-14 0 -30.5 2t-29.5 9t-22.5 19.5t-9.5 33.5zM739 1645v458q0 39 31.5 52.5t60.5 13.5q43 0 69 -34t40 -87t17.5 -118.5t3.5 -129t-3.5 -118t-3.5 -83.5q0 -14 -6 -32.5 t-16 -36t-24.5 -29.5t-28.5 -12q-29 0 -54.5 14.5t-44 37t-30 50t-11.5 54.5z" />
<glyph unicode="&#x201d;" horiz-adv-x="978" d="M98 1432v671q0 37 32.5 51.5t59.5 14.5q25 0 59 -14.5t34 -51.5v-641q0 -35 -30 -64.5t-63 -29.5q-14 0 -30.5 2t-29.5 9t-22.5 19.5t-9.5 33.5zM739 1645v458q0 39 31.5 52.5t60.5 13.5q43 0 69 -34t40 -87t17.5 -118.5t3.5 -129t-3.5 -118t-3.5 -83.5q0 -14 -6 -32.5 t-16 -36t-24.5 -29.5t-28.5 -12q-29 0 -54.5 14.5t-44 37t-30 50t-11.5 54.5z" />
<glyph unicode="&#x201e;" horiz-adv-x="1302" d="M145 311q0 37 33 51.5t60 14.5q25 0 58.5 -14.5t33.5 -51.5v-641q0 -35 -30 -64.5t-62 -29.5q-14 0 -31 2t-30 9t-22.5 19.5t-9.5 33.5v671zM557 -207v459q0 39 31.5 52t60.5 13q43 0 68.5 -33.5t40 -87t17.5 -119t3 -129t-3 -117.5t-3 -83q0 -14 -6 -32.5t-16.5 -36 t-24.5 -29.5t-29 -12q-29 0 -54.5 14t-43.5 36.5t-29.5 50.5t-11.5 54z" />
<glyph unicode="&#x2022;" horiz-adv-x="876" d="M184 799q0 51 45 83.5t106.5 51t123 26t94.5 7.5q47 0 92 -32t80 -77t56.5 -95t21.5 -87q0 -31 -1 -60.5t-9.5 -57.5t-28 -48.5t-57.5 -32.5q-6 0 -23.5 -1t-38 -2t-38 -2t-23.5 -1q-74 0 -144.5 18.5t-128 58.5t-92.5 101.5t-35 149.5z" />
<glyph unicode="&#x2026;" horiz-adv-x="2199" d="M59 322q0 51 45.5 83.5t106.5 51t122.5 25.5t94.5 7q47 0 92 -31.5t80 -76.5t56.5 -95t21.5 -87q0 -31 -1 -60.5t-9.5 -57.5t-27.5 -48.5t-58 -32.5q-6 0 -23.5 -1t-38 -2t-38 -2t-23.5 -1q-74 0 -144.5 18.5t-128 58.5t-92.5 101.5t-35 149.5zM793 322q0 51 45 83.5 t106.5 51t122.5 25.5t94 7q47 0 92 -31.5t80 -76.5t56.5 -95t21.5 -87q0 -31 -1 -60.5t-9 -57.5t-27.5 -48.5t-58.5 -32.5q-6 0 -23.5 -1t-38 -2t-38 -2t-23.5 -1q-74 0 -144.5 18.5t-128 58.5t-92 101.5t-34.5 149.5zM1526 322q0 51 45 83.5t106.5 51t123 25.5t93.5 7 q47 0 92.5 -31.5t80 -76.5t56 -95t21.5 -87q0 -31 -1 -60.5t-9 -57.5t-27.5 -48.5t-58.5 -32.5q-6 0 -23.5 -1t-38 -2t-38 -2t-23.5 -1q-74 0 -144.5 18.5t-128 58.5t-92 101.5t-34.5 149.5z" />
<glyph unicode="&#x202f;" horiz-adv-x="599" />
<glyph unicode="&#x2039;" d="M-2 979q0 33 13.5 53.5t49.5 38.5q166 78 295 143.5t254 127t262.5 122t319.5 125.5q4 0 8 2t8 2q35 0 56.5 -31.5t21.5 -62.5q0 -33 -13 -54.5t-50 -37.5l-807 -354l43 -43q2 -2 35.5 -17.5t86 -40t119 -54.5t134 -60.5t129 -58t106.5 -46.5q31 -14 88 -21t113.5 -20.5 t97.5 -38t41 -71.5t-31.5 -71t-72.5 -24t-118 18.5t-176.5 48.5t-213 70t-226 82t-216 85t-183.5 79.5t-127 65.5t-47 43z" />
<glyph unicode="&#x203a;" horiz-adv-x="1712" d="M29 1788q0 16 4 35.5t13 36t23.5 27.5t36.5 11q2 0 4.5 -1t6.5 -1q4 -2 6 -2q4 -2 13 -10t19.5 -18.5t18.5 -19.5t10 -13q172 -96 337 -161.5t330 -119t332 -101.5t345 -108q53 -16 90 -56t37 -99q0 -25 -10.5 -43.5t-55.5 -14.5l-1161 -825q-4 -2 -10 -2h-17 q-29 0 -42 9.5t-19 24.5t-6 35.5v43.5v48t4 30.5t17.5 24.5t41.5 30l795 551q37 4 62.5 29.5t29.5 62.5q-33 8 -116 32.5t-176 53.5t-175 56.5t-115 39.5q-14 6 -80.5 37t-149.5 70t-164 77.5t-124 61.5q-25 12 -52.5 28.5t-50 38t-37.5 46t-15 55.5z" />
<glyph unicode="&#x205f;" horiz-adv-x="749" />
<glyph unicode="&#x20ac;" horiz-adv-x="1986" d="M33 618q0 6 2 26t4 40.5t4 39.5t2 26q2 6 14.5 18t16.5 12q18 2 53 5t81 8.5t97 10.5t103 11q43 86 120.5 151.5t175 113.5t207 82t216 53.5t204 28.5t170.5 9q37 0 63.5 -25.5t26.5 -62.5q0 -35 -8 -62.5t-26 -64.5q-78 10 -197 9.5t-245 -22t-244.5 -66t-194.5 -117.5 h8q23 -2 71 -4t108.5 -5.5t127 -6.5t127 -6t108.5 -5t70 -4q18 -12 40 -43t22 -49q0 -4 -4 -13.5t-8.5 -19.5t-10.5 -18.5t-8 -10.5q-211 6 -391 -1t-360 -17v-27q0 -29 2 -55.5t8 -48.5q82 4 166 4t156.5 -1t131 -2t88.5 -1q57 0 102.5 -3t76 -20.5t47 -52.5t16.5 -98 q-166 0 -327.5 -8.5t-321.5 -16.5q53 -41 119.5 -65.5t139.5 -39t145.5 -19.5t138.5 -5q168 0 319.5 14.5t308.5 79.5q31 -6 33 -31.5t2 -45.5q0 -59 -40 -98.5t-103.5 -61t-142 -30.5t-153.5 -11t-138.5 0t-98.5 2q-104 0 -215.5 15.5t-217 50t-197 91t-154.5 140.5 q-70 -4 -137.5 -4h-136.5q-62 0 -62 61q0 53 69.5 86t176.5 49q-8 33 -11 68t-3 72q-82 -4 -164 -6.5t-168 -2.5z" />
<glyph unicode="&#x2122;" horiz-adv-x="3749" d="M59 1208q0 51 35 81t89.5 45.5t121 19.5t129 3t114.5 -5t79 -4q313 0 635.5 -25t633.5 -39q4 -2 13.5 -10t18.5 -18.5t17.5 -19.5t10.5 -13q-59 -31 -105 -54q-20 -10 -38.5 -19t-32.5 -17l-33 -17q0 -2 31.5 9.5t72.5 27.5q45 16 105 39q-4 -6 -13.5 -17.5t-18.5 -20.5 t-17.5 -16.5t-10.5 -7.5h-718q0 -61 -13.5 -116.5t-32 -109.5t-36 -111.5t-25.5 -120.5v-31q-2 -33 -6 -116t-8 -175t-9.5 -174t-7.5 -115q-23 -51 -70.5 -65t-95.5 -14q0 135 -7 285.5t2.5 303t46 296t124.5 263.5l-122 31q-6 0 -38 1t-72 2t-81 2t-63 1 q-147 0 -282.5 -18.5t-277.5 -18.5q-33 0 -39 26t-6 52zM1802 968v70v55.5t1 83.5t1 82.5v55.5q6 27 31 30t45 3q4 0 23.5 -2.5t23.5 -2.5q106 -74 202.5 -143.5t195 -121.5t206 -83.5t236.5 -31.5q68 -23 142.5 0.5t147 66.5t136 91t108.5 73q31 0 58.5 -18.5t48 -47 t33 -61.5t14.5 -59q2 -31 9 -95.5t16.5 -146.5t19.5 -172t19.5 -171t16.5 -145.5t11 -95.5q2 -27 13.5 -54.5t21.5 -54t19.5 -54t9.5 -54.5q0 -25 -15.5 -37t-38 -17t-47 -5h-43.5q-47 0 -67.5 23.5t-36.5 70.5q-2 27 -6 85t-10.5 130t-12.5 151.5t-12 151.5t-12.5 129.5 t-8.5 85.5q0 8 -3 33t-11 51.5t-22.5 48t-38.5 21.5q-49 0 -115 -17.5t-136.5 -39t-139 -39t-121.5 -17.5q-115 0 -202 40t-168 88t-165 88t-188 40q0 -180 15 -357t15 -358q0 -14 -1 -35.5t-1 -43.5q-2 -25 -2 -54l-151 -90l-31 29q-2 0 -4 34.5t-5 91t-6 126t-6.5 140.5 t-5.5 137.5t-4 113.5v38t-1 78t-1 88z" />
<glyph unicode="&#xe000;" horiz-adv-x="1064" d="M0 0v1065h1065v-1065h-1065z" />
<glyph unicode="&#xfb01;" horiz-adv-x="1404" d="M59 981q0 117 6.5 234.5t28 226t61.5 203t108.5 165t167.5 110.5t239 40q84 0 161.5 -19.5t138 -62.5t97.5 -110.5t37 -161.5q0 -23 -5 -58t-18.5 -67.5t-35 -55t-52.5 -22.5q-4 0 -8 2q-4 0 -6 2q-4 2 -16.5 14.5t-14.5 16.5q2 10 7.5 35.5t9.5 55.5t8 55.5t6 35.5v35 q0 49 -35 79.5t-84 47t-101 22.5t-85 6q-115 0 -191.5 -40.5t-127 -109.5t-77 -158t-40 -184t-16.5 -191.5t-7 -178.5q10 -27 23.5 -51.5t35.5 -40.5q166 6 351.5 2t353.5 -33q16 -4 24.5 -18t12.5 -31.5t5 -35t1 -25.5q-20 0 -64.5 -1t-100.5 -2t-117.5 -2t-117 -2 t-99.5 -3.5t-64 -2.5h-38t-64.5 -5t-66.5 -17t-44 -37v-12v-19l151 -886q4 -23 -6 -40.5t-27.5 -29.5t-37 -18.5t-35.5 -6.5q-53 0 -91 81t-64.5 209t-41 284.5t-23 306.5t-10.5 275.5t-2 193.5zM974 594q0 10 3.5 36t8.5 55.5t10 55t9 36.5q6 4 29.5 7t32.5 3 q37 0 63.5 -44t44 -112.5t26.5 -151.5t14 -159t6 -136.5t1 -82.5q0 -12 1 -32.5t-2 -39t-13 -33t-35 -14.5h-14q-6 0 -19.5 4t-28 9t-27.5 10.5t-17 7.5q-23 61 -40.5 135t-28.5 151.5t-17.5 153.5t-6.5 141zM1032 1391q0 80 96 119q25 10 42 -5.5t27.5 -42t15.5 -53 t5 -36.5q0 -20 -9 -30.5t-23.5 -15t-30 -4.5h-27.5q-41 0 -68.5 10.5t-27.5 57.5z" />
<glyph unicode="&#xfb02;" horiz-adv-x="1955" d="M59 981q0 117 6.5 234.5t28 226t61.5 203t108.5 165t167.5 110.5t239 40q84 0 161.5 -19.5t138 -62.5t97.5 -110.5t37 -161.5q0 -23 -5 -58t-18.5 -67.5t-35 -55t-52.5 -22.5q-4 0 -8 2q-4 0 -6 2q-4 2 -16.5 14.5t-14.5 16.5q2 10 7.5 35.5t9.5 55.5t8 55.5t6 35.5v35 q0 49 -35 79.5t-84 47t-101 22.5t-85 6q-115 0 -191.5 -40.5t-127 -109.5t-77 -158t-40 -184t-16.5 -191.5t-7 -178.5q10 -27 23.5 -51.5t35.5 -40.5q166 6 351.5 2t353.5 -33q16 -4 24.5 -18t12.5 -31.5t5 -35t1 -25.5q-20 0 -64.5 -1t-100.5 -2t-117.5 -2t-117 -2 t-99.5 -3.5t-64 -2.5h-38t-64.5 -5t-66.5 -17t-44 -37v-12v-19l151 -886q4 -23 -6 -40.5t-27.5 -29.5t-37 -18.5t-35.5 -6.5q-53 0 -91 81t-64.5 209t-41 284.5t-23 306.5t-10.5 275.5t-2 193.5zM1024 389q0 168 13 317.5t27.5 298t22.5 303t0 333.5q2 10 9.5 25.5 t17.5 30.5t22.5 26.5t26.5 11.5q41 0 64.5 -40t36 -100.5t15.5 -133t2 -139t-4 -118t-3 -69.5q0 -184 -18.5 -365.5t-18.5 -367.5v-51.5t1 -78t1 -78.5v-53q2 -27 19.5 -47t42 -35.5t50 -24.5t41.5 -13q12 0 42 -1t64 -1t65.5 -1t43.5 -1q80 0 116 4t63.5 10t63.5 10t116 4 q0 -102 -41 -143t-105.5 -49.5t-141.5 2t-148 10.5h-45t-70 1t-70 1h-45q-96 16 -151.5 69.5t-83 126t-34.5 158.5t-7 168z" />
</font>
</defs>
</svg>
